<?xml version="1.0" encoding="utf-8"?>
<!-- Generator: Adobe Illustrator 27.5.0, SVG Export Plug-In . SVG Version: 6.00 Build 0)  -->
<svg version="1.1" xmlns="http://www.w3.org/2000/svg" xmlns:xlink="http://www.w3.org/1999/xlink" x="0px" y="0px"
	 viewBox="0 0 750 500" style="enable-background:new 0 0 750 500;" xml:space="preserve">

<g id="OBJECTS">
	<g>
		<g>
			
				<line style="fill:none;stroke:#e0e0e0;stroke-linecap:round;stroke-linejoin:round;stroke-miterlimit:10;" x1="19.569" y1="394.058" x2="730.431" y2="394.058"/>
			
				<line style="fill:none;stroke:#e0e0e0;stroke-linecap:round;stroke-linejoin:round;stroke-miterlimit:10;" x1="19.569" y1="397.05" x2="730.431" y2="397.05"/>
		</g>
		<g>
			<path style="fill:none;stroke:#e0e0e0;stroke-linecap:round;stroke-linejoin:round;stroke-miterlimit:10;" d="M47.388,149.076
				h120.629c0-11.361-9.21-20.571-20.572-20.571c-4.102,0-7.915,1.214-11.124,3.284c-3.33-13.699-15.671-23.871-30.394-23.871
				c-16.569,0-30.121,12.882-31.207,29.175c-2.88-2.256-6.499-3.613-10.441-3.613C55.372,133.479,48.084,140.348,47.388,149.076"/>
			<path style="fill:none;stroke:#e0e0e0;stroke-linecap:round;stroke-linejoin:round;stroke-miterlimit:10;" d="M342.731,145.404
				h67.928c0-6.398-5.186-11.584-11.584-11.584c-2.31,0-4.457,0.684-6.264,1.849c-1.875-7.714-8.824-13.442-17.115-13.442
				c-9.33,0-16.961,7.254-17.573,16.429c-1.622-1.271-3.659-2.035-5.88-2.035C347.228,136.621,343.123,140.489,342.731,145.404"/>
			<path style="fill:none;stroke:#e0e0e0;stroke-linecap:round;stroke-linejoin:round;stroke-miterlimit:10;" d="M571.94,186.445
				c-2.247,0-4.358,0.58-6.196,1.593c-1.911-6.616-8.001-11.459-15.232-11.459c-2.395,0-4.657,0.546-6.693,1.496
				c-3.185-10.056-12.589-17.345-23.699-17.345c-12.665,0-23.11,9.474-24.653,21.721c-1.573-0.462-3.233-0.721-4.955-0.721
				c-9.704,0-17.572,7.867-17.572,17.572h26.45h36.831h22.862h25.714C584.797,192.202,579.04,186.445,571.94,186.445z"/>
			<path style="fill:none;stroke:#e0e0e0;stroke-linecap:round;stroke-linejoin:round;stroke-miterlimit:10;" d="M182.519,188.791
				h47.188c0-4.444-3.603-8.047-8.047-8.047c-1.605,0-3.096,0.475-4.351,1.285c-1.303-5.359-6.13-9.338-11.89-9.338
				c-6.481,0-11.783,5.039-12.208,11.413c-1.127-0.883-2.542-1.413-4.084-1.413C185.642,182.689,182.791,185.377,182.519,188.791"/>
			<path style="fill:none;stroke:#e0e0e0;stroke-linecap:round;stroke-linejoin:round;stroke-miterlimit:10;" d="M642.415,148.169
				h39.412c0-3.712-3.009-6.721-6.721-6.721c-1.34,0-2.586,0.397-3.634,1.073c-1.088-4.476-5.12-7.799-9.93-7.799
				c-5.413,0-9.841,4.209-10.196,9.532c-0.941-0.737-2.123-1.181-3.411-1.181C645.024,143.073,642.642,145.318,642.415,148.169"/>
			
				<line style="fill:none;stroke:#e0e0e0;stroke-linecap:round;stroke-linejoin:round;stroke-miterlimit:10;" x1="141.827" y1="155.897" x2="175.255" y2="155.897"/>
			
				<line style="fill:none;stroke:#e0e0e0;stroke-linecap:round;stroke-linejoin:round;stroke-miterlimit:10;" x1="137.541" y1="160.429" x2="144.626" y2="160.429"/>
			
				<line style="fill:none;stroke:#e0e0e0;stroke-linecap:round;stroke-linejoin:round;stroke-miterlimit:10;" x1="337.47" y1="129.143" x2="353.755" y2="129.143"/>
			
				<line style="fill:none;stroke:#e0e0e0;stroke-linecap:round;stroke-linejoin:round;stroke-miterlimit:10;" x1="329.327" y1="132.357" x2="339.612" y2="132.357"/>
			
				<line style="fill:none;stroke:#e0e0e0;stroke-linecap:round;stroke-linejoin:round;stroke-miterlimit:10;" x1="414.298" y1="184.214" x2="444.509" y2="184.214"/>
			
				<line style="fill:none;stroke:#e0e0e0;stroke-linecap:round;stroke-linejoin:round;stroke-miterlimit:10;" x1="439.47" y1="187.429" x2="451.467" y2="187.429"/>
			
				<line style="fill:none;stroke:#e0e0e0;stroke-linecap:round;stroke-linejoin:round;stroke-miterlimit:10;" x1="627.398" y1="163.643" x2="632.541" y2="163.643"/>
			
				<line style="fill:none;stroke:#e0e0e0;stroke-linecap:round;stroke-linejoin:round;stroke-miterlimit:10;" x1="683.327" y1="137.929" x2="702.612" y2="137.929"/>
		</g>
		<g>
			<g>
				
					<line style="fill:none;stroke:#e0e0e0;stroke-linecap:round;stroke-linejoin:round;stroke-miterlimit:10;" x1="557.042" y1="317.121" x2="575.952" y2="317.121"/>
				
					<line style="fill:none;stroke:#e0e0e0;stroke-linecap:round;stroke-linejoin:round;stroke-miterlimit:10;" x1="575.952" y1="340.616" x2="594.862" y2="340.616"/>
				
					<line style="fill:none;stroke:#e0e0e0;stroke-linecap:round;stroke-linejoin:round;stroke-miterlimit:10;" x1="547.587" y1="363.219" x2="577.226" y2="363.219"/>
				
					<line style="fill:none;stroke:#e0e0e0;stroke-linecap:round;stroke-linejoin:round;stroke-miterlimit:10;" x1="522.416" y1="371.249" x2="512.281" y2="371.249"/>
				
					<line style="fill:none;stroke:#e0e0e0;stroke-linecap:round;stroke-linejoin:round;stroke-miterlimit:10;" x1="523.888" y1="341.131" x2="532.382" y2="341.131"/>
				
					<line style="fill:none;stroke:#e0e0e0;stroke-linecap:round;stroke-linejoin:round;stroke-miterlimit:10;" x1="544.927" y1="320.988" x2="547.967" y2="320.988"/>
				<g>
					<polygon style="fill:none;stroke:#e0e0e0;stroke-linecap:round;stroke-linejoin:round;stroke-miterlimit:10;" points="
						626.708,331.72 583.524,388.581 626.708,388.581 669.892,388.581 					"/>
					<polyline style="fill:none;stroke:#e0e0e0;stroke-linecap:round;stroke-linejoin:round;stroke-miterlimit:10;" points="
						664.607,388.581 626.708,335.568 606.376,388.581 					"/>
					
						<line style="fill:none;stroke:#e0e0e0;stroke-linecap:round;stroke-linejoin:round;stroke-miterlimit:10;" x1="623.172" y1="350.06" x2="633.366" y2="350.06"/>
					
						<line style="fill:none;stroke:#e0e0e0;stroke-linecap:round;stroke-linejoin:round;stroke-miterlimit:10;" x1="633.366" y1="362.725" x2="643.56" y2="362.725"/>
					
						<line style="fill:none;stroke:#e0e0e0;stroke-linecap:round;stroke-linejoin:round;stroke-miterlimit:10;" x1="618.076" y1="374.909" x2="634.053" y2="374.909"/>
					
						<line style="fill:none;stroke:#e0e0e0;stroke-linecap:round;stroke-linejoin:round;stroke-miterlimit:10;" x1="606.658" y1="379.238" x2="601.195" y2="379.238"/>
					
						<line style="fill:none;stroke:#e0e0e0;stroke-linecap:round;stroke-linejoin:round;stroke-miterlimit:10;" x1="606.376" y1="361.389" x2="610.955" y2="361.389"/>
					
						<line style="fill:none;stroke:#e0e0e0;stroke-linecap:round;stroke-linejoin:round;stroke-miterlimit:10;" x1="616.642" y1="352.144" x2="618.28" y2="352.144"/>
				</g>
				<polyline style="fill:none;stroke:#e0e0e0;stroke-linecap:round;stroke-linejoin:round;stroke-miterlimit:10;" points="
					583.44,388.581 483.49,388.581 563.6,283.101 612.78,350.06 				"/>
				
					<line style="fill:none;stroke:#e0e0e0;stroke-linecap:round;stroke-linejoin:round;stroke-miterlimit:10;" x1="563.6" y1="290.238" x2="609.651" y2="352.793"/>
				<polyline style="fill:none;stroke:#e0e0e0;stroke-linecap:round;stroke-linejoin:round;stroke-miterlimit:10;" points="
					610.169,353.497 563.6,290.238 520.107,388.581 				"/>
			</g>
			<g>
				<polyline style="fill:none;stroke:#e0e0e0;stroke-linecap:round;stroke-linejoin:round;stroke-miterlimit:10;" points="
					407.991,315.76 480.884,315.76 480.884,388.581 303.462,388.581 303.462,315.76 376.582,315.76 				"/>
				<path style="fill:none;stroke:#e0e0e0;stroke-linecap:round;stroke-linejoin:round;stroke-miterlimit:10;" d="M392.173,359.082
					c0,0-8.871,1.924-8.871,29.499h8.871h8.871C401.044,361.006,392.173,359.082,392.173,359.082z"/>
				<g>
					<path style="fill:none;stroke:#e0e0e0;stroke-linecap:round;stroke-linejoin:round;stroke-miterlimit:10;" d="M336.417,358.785
						c-4.275,2.982-3.527,20.502-3.527,20.502h3.527h3.527C339.945,379.287,340.693,361.767,336.417,358.785z"/>
					<path style="fill:none;stroke:#e0e0e0;stroke-linecap:round;stroke-linejoin:round;stroke-miterlimit:10;" d="M345.723,358.785
						c-4.275,2.982-3.527,20.502-3.527,20.502h3.527h3.527C349.25,379.287,349.998,361.767,345.723,358.785z"/>
					<path style="fill:none;stroke:#e0e0e0;stroke-linecap:round;stroke-linejoin:round;stroke-miterlimit:10;" d="M313.27,358.785
						c-4.275,2.982-3.527,20.502-3.527,20.502h3.527h3.527C316.797,379.287,317.545,361.767,313.27,358.785z"/>
					<path style="fill:none;stroke:#e0e0e0;stroke-linecap:round;stroke-linejoin:round;stroke-miterlimit:10;" d="M322.575,358.785
						c-4.275,2.982-3.527,20.502-3.527,20.502h3.527h3.527C326.102,379.287,326.85,361.767,322.575,358.785z"/>
					<path style="fill:none;stroke:#e0e0e0;stroke-linecap:round;stroke-linejoin:round;stroke-miterlimit:10;" d="M359.565,358.785
						c-4.275,2.982-3.527,20.502-3.527,20.502h3.527h3.527C363.092,379.287,363.84,361.767,359.565,358.785z"/>
					<path style="fill:none;stroke:#e0e0e0;stroke-linecap:round;stroke-linejoin:round;stroke-miterlimit:10;" d="M368.87,358.785
						c-4.275,2.982-3.527,20.502-3.527,20.502h3.527h3.527C372.397,379.287,373.145,361.767,368.87,358.785z"/>
					<path style="fill:none;stroke:#e0e0e0;stroke-linecap:round;stroke-linejoin:round;stroke-miterlimit:10;" d="M336.417,331.885
						c-4.275,2.982-3.527,20.502-3.527,20.502h3.527h3.527C339.945,352.388,340.693,334.868,336.417,331.885z"/>
					<path style="fill:none;stroke:#e0e0e0;stroke-linecap:round;stroke-linejoin:round;stroke-miterlimit:10;" d="M345.723,331.885
						c-4.275,2.982-3.527,20.502-3.527,20.502h3.527h3.527C349.25,352.388,349.998,334.868,345.723,331.885z"/>
					<path style="fill:none;stroke:#e0e0e0;stroke-linecap:round;stroke-linejoin:round;stroke-miterlimit:10;" d="M313.27,331.885
						c-4.275,2.982-3.527,20.502-3.527,20.502h3.527h3.527C316.797,352.388,317.545,334.868,313.27,331.885z"/>
					<path style="fill:none;stroke:#e0e0e0;stroke-linecap:round;stroke-linejoin:round;stroke-miterlimit:10;" d="M322.575,331.885
						c-4.275,2.982-3.527,20.502-3.527,20.502h3.527h3.527C326.102,352.388,326.85,334.868,322.575,331.885z"/>
					<path style="fill:none;stroke:#e0e0e0;stroke-linecap:round;stroke-linejoin:round;stroke-miterlimit:10;" d="M359.565,331.885
						c-4.275,2.982-3.527,20.502-3.527,20.502h3.527h3.527C363.092,352.388,363.84,334.868,359.565,331.885z"/>
					<path style="fill:none;stroke:#e0e0e0;stroke-linecap:round;stroke-linejoin:round;stroke-miterlimit:10;" d="M368.87,331.885
						c-4.275,2.982-3.527,20.502-3.527,20.502h3.527h3.527C372.397,352.388,373.145,334.868,368.87,331.885z"/>
				</g>
				<g>
					<path style="fill:none;stroke:#e0e0e0;stroke-linecap:round;stroke-linejoin:round;stroke-miterlimit:10;" d="M438.623,358.785
						c-4.275,2.982-3.527,20.502-3.527,20.502h3.527h3.527C442.151,379.287,442.899,361.767,438.623,358.785z"/>
					<path style="fill:none;stroke:#e0e0e0;stroke-linecap:round;stroke-linejoin:round;stroke-miterlimit:10;" d="M447.928,358.785
						c-4.275,2.982-3.527,20.502-3.527,20.502h3.527h3.527C451.455,379.287,452.204,361.767,447.928,358.785z"/>
					<path style="fill:none;stroke:#e0e0e0;stroke-linecap:round;stroke-linejoin:round;stroke-miterlimit:10;" d="M415.476,358.785
						c-4.275,2.982-3.527,20.502-3.527,20.502h3.527h3.527C419.003,379.287,419.751,361.767,415.476,358.785z"/>
					<path style="fill:none;stroke:#e0e0e0;stroke-linecap:round;stroke-linejoin:round;stroke-miterlimit:10;" d="M424.781,358.785
						c-4.275,2.982-3.527,20.502-3.527,20.502h3.527h3.527C428.308,379.287,429.056,361.767,424.781,358.785z"/>
					<path style="fill:none;stroke:#e0e0e0;stroke-linecap:round;stroke-linejoin:round;stroke-miterlimit:10;" d="M461.771,358.785
						c-4.275,2.982-3.527,20.502-3.527,20.502h3.527h3.527C465.298,379.287,466.046,361.767,461.771,358.785z"/>
					<path style="fill:none;stroke:#e0e0e0;stroke-linecap:round;stroke-linejoin:round;stroke-miterlimit:10;" d="M471.076,358.785
						c-4.275,2.982-3.527,20.502-3.527,20.502h3.527h3.527C474.603,379.287,475.351,361.767,471.076,358.785z"/>
					<path style="fill:none;stroke:#e0e0e0;stroke-linecap:round;stroke-linejoin:round;stroke-miterlimit:10;" d="M438.623,331.885
						c-4.275,2.982-3.527,20.502-3.527,20.502h3.527h3.527C442.151,352.388,442.899,334.868,438.623,331.885z"/>
					<path style="fill:none;stroke:#e0e0e0;stroke-linecap:round;stroke-linejoin:round;stroke-miterlimit:10;" d="M447.928,331.885
						c-4.275,2.982-3.527,20.502-3.527,20.502h3.527h3.527C451.455,352.388,452.204,334.868,447.928,331.885z"/>
					<path style="fill:none;stroke:#e0e0e0;stroke-linecap:round;stroke-linejoin:round;stroke-miterlimit:10;" d="M415.476,331.885
						c-4.275,2.982-3.527,20.502-3.527,20.502h3.527h3.527C419.003,352.388,419.751,334.868,415.476,331.885z"/>
					<path style="fill:none;stroke:#e0e0e0;stroke-linecap:round;stroke-linejoin:round;stroke-miterlimit:10;" d="M424.781,331.885
						c-4.275,2.982-3.527,20.502-3.527,20.502h3.527h3.527C428.308,352.388,429.056,334.868,424.781,331.885z"/>
					<path style="fill:none;stroke:#e0e0e0;stroke-linecap:round;stroke-linejoin:round;stroke-miterlimit:10;" d="M461.771,331.885
						c-4.275,2.982-3.527,20.502-3.527,20.502h3.527h3.527C465.298,352.388,466.046,334.868,461.771,331.885z"/>
					<path style="fill:none;stroke:#e0e0e0;stroke-linecap:round;stroke-linejoin:round;stroke-miterlimit:10;" d="M471.076,331.885
						c-4.275,2.982-3.527,20.502-3.527,20.502h3.527h3.527C474.603,352.388,475.351,334.868,471.076,331.885z"/>
				</g>
				
					<rect x="403.823" y="267.825" style="fill:none;stroke:#e0e0e0;stroke-linecap:round;stroke-linejoin:round;stroke-miterlimit:10;" width="4.168" height="120.756"/>
				
					<rect x="376.462" y="267.825" style="fill:none;stroke:#e0e0e0;stroke-linecap:round;stroke-linejoin:round;stroke-miterlimit:10;" width="4.168" height="120.756"/>
				<g>
					<g>
						<path style="fill:none;stroke:#e0e0e0;stroke-linecap:round;stroke-linejoin:round;stroke-miterlimit:10;" d="
							M398.454,338.146c-2.545,1.775-2.099,12.203-2.099,12.203h2.099h2.099C400.554,350.349,400.999,339.921,398.454,338.146z"/>
						<path style="fill:none;stroke:#e0e0e0;stroke-linecap:round;stroke-linejoin:round;stroke-miterlimit:10;" d="
							M385.963,338.146c-2.545,1.775-2.099,12.203-2.099,12.203h2.099h2.1C388.063,350.349,388.508,339.921,385.963,338.146z"/>
					</g>
					<path style="fill:none;stroke:#e0e0e0;stroke-linecap:round;stroke-linejoin:round;stroke-miterlimit:10;" d="M392.209,338.146
						c-2.545,1.775-2.099,12.203-2.099,12.203h2.099h2.099C394.308,350.349,394.754,339.921,392.209,338.146z"/>
				</g>
				<polygon style="fill:none;stroke:#e0e0e0;stroke-linecap:round;stroke-linejoin:round;stroke-miterlimit:10;" points="
					392.209,320.943 393.613,323.787 396.751,324.243 394.48,326.457 395.016,329.583 392.209,328.107 389.402,329.583 
					389.938,326.457 387.667,324.243 390.805,323.787 				"/>
				<path style="fill:none;stroke:#e0e0e0;stroke-linecap:round;stroke-linejoin:round;stroke-miterlimit:10;" d="M403.823,323.189
					c0,0-1.764-12.719-11.597-18.704l0,0c-9.833,5.985-11.596,18.704-11.596,18.704"/>
				<path style="fill:none;stroke:#e0e0e0;stroke-linecap:round;stroke-linejoin:round;stroke-miterlimit:10;" d="M403.823,292.491
					c0,0-1.764-11.54-11.597-16.971l0,0c-9.833,5.431-11.596,16.971-11.596,16.971"/>
				<g>
					<path style="fill:none;stroke:#e0e0e0;stroke-linecap:round;stroke-linejoin:round;stroke-miterlimit:10;" d="M388.442,285.715
						c-2.545,1.775-2.099,13.201-2.099,13.201h2.099h2.099C390.542,298.915,390.987,287.49,388.442,285.715z"/>
					<path style="fill:none;stroke:#e0e0e0;stroke-linecap:round;stroke-linejoin:round;stroke-miterlimit:10;" d="M395.976,285.715
						c-2.545,1.775-2.099,13.201-2.099,13.201h2.099h2.099C398.075,298.915,398.52,287.49,395.976,285.715z"/>
				</g>
				
					<line style="fill:none;stroke:#e0e0e0;stroke-linecap:round;stroke-linejoin:round;stroke-miterlimit:10;" x1="376.194" y1="301.385" x2="407.991" y2="301.385"/>
				<g>
					<path style="fill:none;stroke:#e0e0e0;stroke-linecap:round;stroke-linejoin:round;stroke-miterlimit:10;" d="M386.348,275.092
						c0,0.856-0.694,1.55-1.55,1.55s-1.55-0.694-1.55-1.55s0.694-1.55,1.55-1.55S386.348,274.237,386.348,275.092z"/>
					
						<circle style="fill:none;stroke:#e0e0e0;stroke-linecap:round;stroke-linejoin:round;stroke-miterlimit:10;" cx="399.619" cy="275.092" r="1.55"/>
				</g>
				
					<rect x="376.462" y="263.977" style="fill:none;stroke:#e0e0e0;stroke-linecap:round;stroke-linejoin:round;stroke-miterlimit:10;" width="31.53" height="3.848"/>
				<polyline style="fill:none;stroke:#e0e0e0;stroke-linecap:round;stroke-linejoin:round;stroke-miterlimit:10;" points="
					376.462,263.977 392.226,226.462 407.991,263.977 				"/>
				<g>
					<path style="fill:#e0e0e0;" d="M391.726,226.462l0.5-16.673l0.5,16.673c0.008,0.276-0.209,0.507-0.485,0.515
						c-0.276,0.008-0.507-0.209-0.515-0.485C391.726,226.482,391.726,226.471,391.726,226.462z"/>
				</g>
				<polyline style="fill:none;stroke:#e0e0e0;stroke-linecap:round;stroke-linejoin:round;stroke-miterlimit:10;" points="
					303.462,315.76 296.836,315.76 307.31,292.491 376.462,292.491 				"/>
				<polygon style="fill:none;stroke:#e0e0e0;stroke-linecap:round;stroke-linejoin:round;stroke-miterlimit:10;" points="
					316.548,300.144 319.384,305.057 322.221,309.971 316.548,309.971 310.874,309.971 313.711,305.057 				"/>
				<polygon style="fill:none;stroke:#e0e0e0;stroke-linecap:round;stroke-linejoin:round;stroke-miterlimit:10;" points="
					333.224,300.21 336.061,305.123 338.897,310.036 333.224,310.036 327.551,310.036 330.387,305.123 				"/>
				<polygon style="fill:none;stroke:#e0e0e0;stroke-linecap:round;stroke-linejoin:round;stroke-miterlimit:10;" points="
					349.3,300.21 352.137,305.123 354.973,310.036 349.3,310.036 343.626,310.036 346.463,305.123 				"/>
				<polygon style="fill:none;stroke:#e0e0e0;stroke-linecap:round;stroke-linejoin:round;stroke-miterlimit:10;" points="
					365.584,300.21 368.421,305.123 371.257,310.036 365.584,310.036 359.91,310.036 362.747,305.123 				"/>
				<polygon style="fill:none;stroke:#e0e0e0;stroke-linecap:round;stroke-linejoin:round;stroke-miterlimit:10;" points="
					310.187,295.44 311.543,297.79 312.9,300.14 310.187,300.14 307.473,300.14 308.83,297.79 				"/>
				<polygon style="fill:none;stroke:#e0e0e0;stroke-linecap:round;stroke-linejoin:round;stroke-miterlimit:10;" points="
					324.837,295.44 326.194,297.79 327.551,300.14 324.837,300.14 322.124,300.14 323.48,297.79 				"/>
				<polygon style="fill:none;stroke:#e0e0e0;stroke-linecap:round;stroke-linejoin:round;stroke-miterlimit:10;" points="
					340.913,295.44 342.27,297.79 343.626,300.14 340.913,300.14 338.199,300.14 339.556,297.79 				"/>
				<polygon style="fill:none;stroke:#e0e0e0;stroke-linecap:round;stroke-linejoin:round;stroke-miterlimit:10;" points="
					357.439,295.44 358.796,297.79 360.153,300.14 357.439,300.14 354.726,300.14 356.082,297.79 				"/>
				<polygon style="fill:none;stroke:#e0e0e0;stroke-linecap:round;stroke-linejoin:round;stroke-miterlimit:10;" points="
					371.257,295.44 372.614,297.79 373.971,300.14 371.257,300.14 368.544,300.14 369.901,297.79 				"/>
				<polyline style="fill:none;stroke:#e0e0e0;stroke-linecap:round;stroke-linejoin:round;stroke-miterlimit:10;" points="
					481.115,315.76 487.741,315.76 477.267,292.491 408.115,292.491 				"/>
				<polygon style="fill:none;stroke:#e0e0e0;stroke-linecap:round;stroke-linejoin:round;stroke-miterlimit:10;" points="
					468.029,300.144 465.193,305.057 462.356,309.971 468.029,309.971 473.703,309.971 470.866,305.057 				"/>
				<polygon style="fill:none;stroke:#e0e0e0;stroke-linecap:round;stroke-linejoin:round;stroke-miterlimit:10;" points="
					451.353,300.21 448.516,305.123 445.68,310.036 451.353,310.036 457.026,310.036 454.19,305.123 				"/>
				<polygon style="fill:none;stroke:#e0e0e0;stroke-linecap:round;stroke-linejoin:round;stroke-miterlimit:10;" points="
					435.277,300.21 432.44,305.123 429.604,310.036 435.277,310.036 440.951,310.036 438.114,305.123 				"/>
				<polygon style="fill:none;stroke:#e0e0e0;stroke-linecap:round;stroke-linejoin:round;stroke-miterlimit:10;" points="
					418.993,300.21 416.156,305.123 413.32,310.036 418.993,310.036 424.667,310.036 421.83,305.123 				"/>
				<polygon style="fill:none;stroke:#e0e0e0;stroke-linecap:round;stroke-linejoin:round;stroke-miterlimit:10;" points="
					474.391,295.44 473.034,297.79 471.677,300.14 474.391,300.14 477.104,300.14 475.747,297.79 				"/>
				<polygon style="fill:none;stroke:#e0e0e0;stroke-linecap:round;stroke-linejoin:round;stroke-miterlimit:10;" points="
					459.74,295.44 458.383,297.79 457.026,300.14 459.74,300.14 462.454,300.14 461.097,297.79 				"/>
				<polygon style="fill:none;stroke:#e0e0e0;stroke-linecap:round;stroke-linejoin:round;stroke-miterlimit:10;" points="
					443.664,295.44 442.307,297.79 440.951,300.14 443.664,300.14 446.378,300.14 445.021,297.79 				"/>
				<polygon style="fill:none;stroke:#e0e0e0;stroke-linecap:round;stroke-linejoin:round;stroke-miterlimit:10;" points="
					427.138,295.44 425.781,297.79 424.424,300.14 427.138,300.14 429.851,300.14 428.495,297.79 				"/>
				<polygon style="fill:none;stroke:#e0e0e0;stroke-linecap:round;stroke-linejoin:round;stroke-miterlimit:10;" points="
					413.32,295.44 411.963,297.79 410.606,300.14 413.32,300.14 416.033,300.14 414.676,297.79 				"/>
			</g>
			<g>
				<path style="fill:none;stroke:#e0e0e0;stroke-linecap:round;stroke-linejoin:round;stroke-miterlimit:10;" d="M277.589,388.581
					h3.186v-26.254c-1.113-0.131-2.181-0.405-3.186-0.805V388.581z"/>
				<path style="fill:none;stroke:#e0e0e0;stroke-linecap:round;stroke-linejoin:round;stroke-miterlimit:10;" d="M263.443,388.581
					h3.25l9.516-27.709c-0.948-0.518-1.82-1.155-2.601-1.889L263.443,388.581z"/>
				<path style="fill:none;stroke:#e0e0e0;stroke-linecap:round;stroke-linejoin:round;stroke-miterlimit:10;" d="M283.1,388.581
					h3.186v-26.82c-1.011,0.339-2.078,0.556-3.186,0.628V388.581z"/>
				<path style="fill:none;stroke:#e0e0e0;stroke-linecap:round;stroke-linejoin:round;stroke-miterlimit:10;" d="M297.182,388.581
					h3.25l-10.01-29.15c-0.806,0.68-1.698,1.262-2.657,1.726L297.182,388.581z"/>
				
					<ellipse transform="matrix(0.2286 -0.9735 0.9735 0.2286 -123.5593 545.0791)" style="fill:none;stroke:#e0e0e0;stroke-linecap:round;stroke-linejoin:round;stroke-miterlimit:10;" cx="282.164" cy="350.505" rx="11.934" ry="11.934"/>
				
					<rect x="280.042" y="233.537" style="fill:none;stroke:#e0e0e0;stroke-linecap:round;stroke-linejoin:round;stroke-miterlimit:10;" width="5.511" height="105.034"/>
				
					<ellipse transform="matrix(0.1597 -0.9872 0.9872 0.1597 16.1122 467.7199)" style="fill:none;stroke:#e0e0e0;stroke-linecap:round;stroke-linejoin:round;stroke-miterlimit:10;" cx="282.797" cy="224.396" rx="9.141" ry="9.141"/>
				<polyline style="fill:none;stroke:#e0e0e0;stroke-linecap:round;stroke-linejoin:round;stroke-miterlimit:10;" points="
					280.042,215.254 282.797,176.631 284.251,176.631 285.553,215.254 				"/>
				<path style="fill:none;stroke:#e0e0e0;stroke-linecap:round;stroke-linejoin:round;stroke-miterlimit:10;" d="M286.846,173.229
					c0,1.879-1.523,3.402-3.402,3.402s-3.402-1.523-3.402-3.402c0-1.879,1.523-3.402,3.402-3.402S286.846,171.35,286.846,173.229z"
					/>
				<g>
					<path style="fill:#e0e0e0;" d="M282.944,169.827l0.5-15.224l0.5,15.224c0.009,0.276-0.207,0.507-0.484,0.516
						c-0.276,0.009-0.507-0.207-0.516-0.484C282.944,169.849,282.944,169.837,282.944,169.827z"/>
				</g>
				
					<line style="fill:none;stroke:#e0e0e0;stroke-linecap:round;stroke-linejoin:round;stroke-miterlimit:10;" x1="270.23" y1="350.505" x2="294.099" y2="350.505"/>
				
					<line style="fill:none;stroke:#e0e0e0;stroke-linecap:round;stroke-linejoin:round;stroke-miterlimit:10;" x1="270.887" y1="346.599" x2="293.685" y2="346.599"/>
				
					<line style="fill:none;stroke:#e0e0e0;stroke-linecap:round;stroke-linejoin:round;stroke-miterlimit:10;" x1="270.887" y1="353.956" x2="293.59" y2="353.956"/>
				
					<line style="fill:none;stroke:#e0e0e0;stroke-linecap:round;stroke-linejoin:round;stroke-miterlimit:10;" x1="273.607" y1="358.983" x2="290.562" y2="358.983"/>
				<g>
					
						<line style="fill:none;stroke:#e0e0e0;stroke-linecap:round;stroke-linejoin:round;stroke-miterlimit:10;" x1="280.042" y1="239.95" x2="285.553" y2="239.95"/>
					
						<line style="fill:none;stroke:#e0e0e0;stroke-linecap:round;stroke-linejoin:round;stroke-miterlimit:10;" x1="280.042" y1="248.35" x2="285.553" y2="248.35"/>
					
						<line style="fill:none;stroke:#e0e0e0;stroke-linecap:round;stroke-linejoin:round;stroke-miterlimit:10;" x1="280.042" y1="256.749" x2="285.553" y2="256.749"/>
					
						<line style="fill:none;stroke:#e0e0e0;stroke-linecap:round;stroke-linejoin:round;stroke-miterlimit:10;" x1="280.042" y1="265.149" x2="285.553" y2="265.149"/>
					
						<line style="fill:none;stroke:#e0e0e0;stroke-linecap:round;stroke-linejoin:round;stroke-miterlimit:10;" x1="280.042" y1="273.549" x2="285.553" y2="273.549"/>
					
						<line style="fill:none;stroke:#e0e0e0;stroke-linecap:round;stroke-linejoin:round;stroke-miterlimit:10;" x1="280.042" y1="281.949" x2="285.553" y2="281.949"/>
					
						<line style="fill:none;stroke:#e0e0e0;stroke-linecap:round;stroke-linejoin:round;stroke-miterlimit:10;" x1="280.042" y1="290.349" x2="285.553" y2="290.349"/>
					
						<line style="fill:none;stroke:#e0e0e0;stroke-linecap:round;stroke-linejoin:round;stroke-miterlimit:10;" x1="280.042" y1="298.749" x2="285.553" y2="298.749"/>
					
						<line style="fill:none;stroke:#e0e0e0;stroke-linecap:round;stroke-linejoin:round;stroke-miterlimit:10;" x1="280.042" y1="307.148" x2="285.553" y2="307.148"/>
					
						<line style="fill:none;stroke:#e0e0e0;stroke-linecap:round;stroke-linejoin:round;stroke-miterlimit:10;" x1="280.042" y1="315.548" x2="285.553" y2="315.548"/>
					
						<line style="fill:none;stroke:#e0e0e0;stroke-linecap:round;stroke-linejoin:round;stroke-miterlimit:10;" x1="280.042" y1="323.948" x2="285.553" y2="323.948"/>
					
						<line style="fill:none;stroke:#e0e0e0;stroke-linecap:round;stroke-linejoin:round;stroke-miterlimit:10;" x1="280.042" y1="332.348" x2="285.553" y2="332.348"/>
				</g>
				
					<line style="fill:none;stroke:#e0e0e0;stroke-linecap:round;stroke-linejoin:round;stroke-miterlimit:10;" x1="273.776" y1="225.807" x2="291.827" y2="225.807"/>
				
					<line style="fill:none;stroke:#e0e0e0;stroke-linecap:round;stroke-linejoin:round;stroke-miterlimit:10;" x1="275.54" y1="218.837" x2="290.054" y2="218.837"/>
				
					<line style="fill:none;stroke:#e0e0e0;stroke-linecap:round;stroke-linejoin:round;stroke-miterlimit:10;" x1="280.098" y1="173.833" x2="286.846" y2="173.833"/>
			</g>
			<g>
				<polyline style="fill:none;stroke:#e0e0e0;stroke-miterlimit:10;" points="649.969,358.707 649.969,264.466 616.764,264.466 
					616.764,339.709 				"/>
				<rect x="621.321" y="257.678" style="fill:none;stroke:#e0e0e0;stroke-miterlimit:10;" width="23.941" height="6.788"/>
				<rect x="625.276" y="252.014" style="fill:none;stroke:#e0e0e0;stroke-miterlimit:10;" width="16.246" height="5.665"/>
				<g>
					<path style="fill:#e0e0e0;" d="M632.792,246.639l0.5-37.195l0.5,37.195c0.004,0.276-0.217,0.503-0.493,0.507
						c-0.276,0.004-0.503-0.217-0.507-0.493C632.792,246.649,632.792,246.643,632.792,246.639z"/>
				</g>
				<rect x="629.711" y="246.563" style="fill:none;stroke:#e0e0e0;stroke-miterlimit:10;" width="7.214" height="5.451"/>
				<polyline style="fill:none;stroke:#e0e0e0;stroke-miterlimit:10;" points="621.321,331.72 621.321,270.931 624.1,270.931 
					624.1,328.086 				"/>
				<polyline style="fill:none;stroke:#e0e0e0;stroke-miterlimit:10;" points="630.513,331.72 630.513,270.931 633.292,270.931 
					633.292,335.841 				"/>
				<polyline style="fill:none;stroke:#e0e0e0;stroke-miterlimit:10;" points="640.132,345.561 640.132,270.931 642.911,270.931 
					642.911,349.248 				"/>
			</g>
			<path style="fill:none;stroke:#e0e0e0;stroke-linecap:round;stroke-linejoin:round;stroke-miterlimit:10;" d="M481.942,310.917"
				/>
			<g>
				<polyline style="fill:none;stroke:#e0e0e0;stroke-linecap:round;stroke-linejoin:round;stroke-miterlimit:10;" points="
					212.16,330.865 261.859,388.581 239.628,388.581 				"/>
				<polyline style="fill:none;stroke:#e0e0e0;stroke-linecap:round;stroke-linejoin:round;stroke-miterlimit:10;" points="
					144.611,330.865 94.912,388.581 117.143,388.581 				"/>
				
					<rect x="190.997" y="376.396" style="fill:none;stroke:#e0e0e0;stroke-linecap:round;stroke-linejoin:round;stroke-miterlimit:10;" width="48.631" height="12.184"/>
				
					<rect x="117.143" y="376.396" style="fill:none;stroke:#e0e0e0;stroke-linecap:round;stroke-linejoin:round;stroke-miterlimit:10;" width="48.631" height="12.184"/>
				<polygon style="fill:none;stroke:#e0e0e0;stroke-linecap:round;stroke-linejoin:round;stroke-miterlimit:10;" points="
					165.773,374.152 125.266,374.152 117.143,374.152 117.143,376.396 165.773,376.396 				"/>
				<polygon style="fill:none;stroke:#e0e0e0;stroke-linecap:round;stroke-linejoin:round;stroke-miterlimit:10;" points="
					231.505,374.152 190.997,374.152 190.997,376.396 239.628,376.396 239.628,374.152 				"/>
				
					<rect x="190.997" y="361.967" style="fill:none;stroke:#e0e0e0;stroke-linecap:round;stroke-linejoin:round;stroke-miterlimit:10;" width="40.508" height="12.184"/>
				
					<rect x="125.266" y="361.967" style="fill:none;stroke:#e0e0e0;stroke-linecap:round;stroke-linejoin:round;stroke-miterlimit:10;" width="40.508" height="12.184"/>
				<polygon style="fill:none;stroke:#e0e0e0;stroke-linecap:round;stroke-linejoin:round;stroke-miterlimit:10;" points="
					165.773,359.723 133.977,359.723 125.266,359.723 125.266,361.967 165.773,361.967 				"/>
				<polygon style="fill:none;stroke:#e0e0e0;stroke-linecap:round;stroke-linejoin:round;stroke-miterlimit:10;" points="
					190.997,361.967 231.505,361.967 231.505,359.723 222.794,359.723 190.997,359.723 				"/>
				
					<rect x="190.997" y="347.539" style="fill:none;stroke:#e0e0e0;stroke-linecap:round;stroke-linejoin:round;stroke-miterlimit:10;" width="31.797" height="12.184"/>
				
					<rect x="133.977" y="347.539" style="fill:none;stroke:#e0e0e0;stroke-linecap:round;stroke-linejoin:round;stroke-miterlimit:10;" width="31.797" height="12.184"/>
				<polygon style="fill:none;stroke:#e0e0e0;stroke-linecap:round;stroke-linejoin:round;stroke-miterlimit:10;" points="
					190.997,347.539 222.794,347.539 222.794,345.294 212.16,345.294 190.997,345.294 				"/>
				<polygon style="fill:none;stroke:#e0e0e0;stroke-linecap:round;stroke-linejoin:round;stroke-miterlimit:10;" points="
					165.773,345.294 144.611,345.294 133.977,345.294 133.977,347.539 165.773,347.539 				"/>
				
					<rect x="144.611" y="333.11" style="fill:none;stroke:#e0e0e0;stroke-linecap:round;stroke-linejoin:round;stroke-miterlimit:10;" width="21.162" height="12.184"/>
				
					<rect x="190.997" y="333.11" style="fill:none;stroke:#e0e0e0;stroke-linecap:round;stroke-linejoin:round;stroke-miterlimit:10;" width="21.162" height="12.184"/>
				
					<rect x="190.997" y="330.865" style="fill:none;stroke:#e0e0e0;stroke-linecap:round;stroke-linejoin:round;stroke-miterlimit:10;" width="21.162" height="2.244"/>
				
					<rect x="144.611" y="330.865" style="fill:none;stroke:#e0e0e0;stroke-linecap:round;stroke-linejoin:round;stroke-miterlimit:10;" width="21.162" height="2.244"/>
				<g>
					
						<line style="fill:none;stroke:#e0e0e0;stroke-linecap:round;stroke-linejoin:round;stroke-miterlimit:10;" x1="168.392" y1="330.865" x2="188.192" y2="330.865"/>
					
						<line style="fill:none;stroke:#e0e0e0;stroke-linecap:round;stroke-linejoin:round;stroke-miterlimit:10;" x1="168.392" y1="336.112" x2="188.192" y2="336.112"/>
					
						<line style="fill:none;stroke:#e0e0e0;stroke-linecap:round;stroke-linejoin:round;stroke-miterlimit:10;" x1="168.392" y1="341.359" x2="188.192" y2="341.359"/>
					
						<line style="fill:none;stroke:#e0e0e0;stroke-linecap:round;stroke-linejoin:round;stroke-miterlimit:10;" x1="168.392" y1="346.606" x2="188.192" y2="346.606"/>
					
						<line style="fill:none;stroke:#e0e0e0;stroke-linecap:round;stroke-linejoin:round;stroke-miterlimit:10;" x1="168.392" y1="351.853" x2="188.192" y2="351.853"/>
					
						<line style="fill:none;stroke:#e0e0e0;stroke-linecap:round;stroke-linejoin:round;stroke-miterlimit:10;" x1="168.392" y1="357.1" x2="188.192" y2="357.1"/>
					
						<line style="fill:none;stroke:#e0e0e0;stroke-linecap:round;stroke-linejoin:round;stroke-miterlimit:10;" x1="168.392" y1="362.346" x2="188.192" y2="362.346"/>
					
						<line style="fill:none;stroke:#e0e0e0;stroke-linecap:round;stroke-linejoin:round;stroke-miterlimit:10;" x1="168.392" y1="367.593" x2="188.192" y2="367.593"/>
					
						<line style="fill:none;stroke:#e0e0e0;stroke-linecap:round;stroke-linejoin:round;stroke-miterlimit:10;" x1="168.392" y1="372.84" x2="188.192" y2="372.84"/>
					
						<line style="fill:none;stroke:#e0e0e0;stroke-linecap:round;stroke-linejoin:round;stroke-miterlimit:10;" x1="168.392" y1="378.087" x2="188.192" y2="378.087"/>
					
						<line style="fill:none;stroke:#e0e0e0;stroke-linecap:round;stroke-linejoin:round;stroke-miterlimit:10;" x1="168.392" y1="383.334" x2="188.192" y2="383.334"/>
					
						<line style="fill:none;stroke:#e0e0e0;stroke-linecap:round;stroke-linejoin:round;stroke-miterlimit:10;" x1="168.392" y1="388.581" x2="188.192" y2="388.581"/>
				</g>
				<polyline style="fill:none;stroke:#e0e0e0;stroke-linecap:round;stroke-linejoin:round;stroke-miterlimit:10;" points="
					149.781,330.865 149.781,312.482 206.802,312.482 206.802,330.865 				"/>
				
					<rect x="173.081" y="318.681" style="fill:none;stroke:#e0e0e0;stroke-linecap:round;stroke-linejoin:round;stroke-miterlimit:10;" width="10.421" height="10.421"/>
				
					<rect x="144.972" y="307.458" style="fill:none;stroke:#e0e0e0;stroke-linecap:round;stroke-linejoin:round;stroke-miterlimit:10;" width="66.64" height="5.023"/>
				
					<rect x="149.781" y="299.923" style="fill:none;stroke:#e0e0e0;stroke-linecap:round;stroke-linejoin:round;stroke-miterlimit:10;" width="57.021" height="7.535"/>
				
					<rect x="145.773" y="295.755" style="fill:none;stroke:#e0e0e0;stroke-linecap:round;stroke-linejoin:round;stroke-miterlimit:10;" width="65.037" height="4.168"/>
			</g>
			<g>
				<g>
					
						<rect x="673.118" y="234.404" style="fill:none;stroke:#e0e0e0;stroke-linecap:round;stroke-linejoin:round;stroke-miterlimit:10;" width="43.064" height="154.176"/>
					<g>
						<polyline style="fill:none;stroke:#e0e0e0;stroke-linecap:round;stroke-linejoin:round;stroke-miterlimit:10;" points="
							684.551,234.404 704.771,291.569 716.182,234.404 						"/>
						
							<line style="fill:none;stroke:#e0e0e0;stroke-linecap:round;stroke-linejoin:round;stroke-miterlimit:10;" x1="704.771" y1="291.569" x2="704.771" y2="388.581"/>
					</g>
				</g>
				<polyline style="fill:none;stroke:#e0e0e0;stroke-linecap:round;stroke-linejoin:round;stroke-miterlimit:10;" points="
					673.118,247.983 684.551,268.219 691.09,252.891 				"/>
				<polyline style="fill:none;stroke:#e0e0e0;stroke-linecap:round;stroke-linejoin:round;stroke-miterlimit:10;" points="
					673.118,258.528 684.551,269.073 693.822,260.615 				"/>
				<polyline style="fill:none;stroke:#e0e0e0;stroke-linecap:round;stroke-linejoin:round;stroke-miterlimit:10;" points="
					673.118,262.451 686.379,282.688 695.272,264.715 				"/>
				<polyline style="fill:none;stroke:#e0e0e0;stroke-linecap:round;stroke-linejoin:round;stroke-miterlimit:10;" points="
					673.118,272.996 686.379,283.541 698.547,273.971 				"/>
				<polyline style="fill:none;stroke:#e0e0e0;stroke-linecap:round;stroke-linejoin:round;stroke-miterlimit:10;" points="
					673.118,276.858 686.379,297.094 700.066,278.269 				"/>
				<polyline style="fill:none;stroke:#e0e0e0;stroke-linecap:round;stroke-linejoin:round;stroke-miterlimit:10;" points="
					673.118,287.403 686.379,297.948 702.89,287.403 				"/>
				<polyline style="fill:none;stroke:#e0e0e0;stroke-linecap:round;stroke-linejoin:round;stroke-miterlimit:10;" points="
					673.118,294.127 687.217,314.363 704.771,293.444 				"/>
				<polyline style="fill:none;stroke:#e0e0e0;stroke-linecap:round;stroke-linejoin:round;stroke-miterlimit:10;" points="
					673.118,304.672 687.217,315.217 704.771,304.672 				"/>
				<polyline style="fill:none;stroke:#e0e0e0;stroke-linecap:round;stroke-linejoin:round;stroke-miterlimit:10;" points="
					673.118,310.64 688.347,330.876 704.066,312.051 				"/>
				<polyline style="fill:none;stroke:#e0e0e0;stroke-linecap:round;stroke-linejoin:round;stroke-miterlimit:10;" points="
					673.118,321.185 688.347,331.73 704.771,321.185 				"/>
				<polyline style="fill:none;stroke:#e0e0e0;stroke-linecap:round;stroke-linejoin:round;stroke-miterlimit:10;" points="
					673.118,332.405 688.347,352.642 704.771,333.436 				"/>
				<polyline style="fill:none;stroke:#e0e0e0;stroke-linecap:round;stroke-linejoin:round;stroke-miterlimit:10;" points="
					673.118,342.95 688.347,353.496 704.771,342.95 				"/>
				<polyline style="fill:none;stroke:#e0e0e0;stroke-linecap:round;stroke-linejoin:round;stroke-miterlimit:10;" points="
					673.118,350.607 688.347,370.843 704.771,351.798 				"/>
				<polyline style="fill:none;stroke:#e0e0e0;stroke-linecap:round;stroke-linejoin:round;stroke-miterlimit:10;" points="
					673.118,361.152 688.347,371.697 704.771,361.152 				"/>
				<polyline style="fill:none;stroke:#e0e0e0;stroke-linecap:round;stroke-linejoin:round;stroke-miterlimit:10;" points="
					673.118,364.716 688.347,384.952 704.771,366.252 				"/>
				<polyline style="fill:none;stroke:#e0e0e0;stroke-linecap:round;stroke-linejoin:round;stroke-miterlimit:10;" points="
					673.118,375.261 688.347,385.806 704.771,375.261 				"/>
				
					<line style="fill:none;stroke:#e0e0e0;stroke-linecap:round;stroke-linejoin:round;stroke-miterlimit:10;" x1="673.118" y1="269.345" x2="696.512" y2="269.345"/>
				
					<line style="fill:none;stroke:#e0e0e0;stroke-linecap:round;stroke-linejoin:round;stroke-miterlimit:10;" x1="673.118" y1="284.359" x2="702.221" y2="284.359"/>
				
					<line style="fill:none;stroke:#e0e0e0;stroke-linecap:round;stroke-linejoin:round;stroke-miterlimit:10;" x1="673.118" y1="298.553" x2="704.771" y2="298.553"/>
				
					<line style="fill:none;stroke:#e0e0e0;stroke-linecap:round;stroke-linejoin:round;stroke-miterlimit:10;" x1="673.118" y1="315.543" x2="702.221" y2="315.543"/>
				
					<line style="fill:none;stroke:#e0e0e0;stroke-linecap:round;stroke-linejoin:round;stroke-miterlimit:10;" x1="673.118" y1="332.068" x2="704.771" y2="332.068"/>
				
					<line style="fill:none;stroke:#e0e0e0;stroke-linecap:round;stroke-linejoin:round;stroke-miterlimit:10;" x1="673.118" y1="354.171" x2="704.771" y2="354.171"/>
				
					<line style="fill:none;stroke:#e0e0e0;stroke-linecap:round;stroke-linejoin:round;stroke-miterlimit:10;" x1="673.118" y1="372.135" x2="704.771" y2="372.135"/>
				
					<line style="fill:none;stroke:#e0e0e0;stroke-linecap:round;stroke-linejoin:round;stroke-miterlimit:10;" x1="673.118" y1="386.396" x2="704.771" y2="386.396"/>
				
					<rect x="711.266" y="277.129" style="fill:none;stroke:#e0e0e0;stroke-linecap:round;stroke-linejoin:round;stroke-miterlimit:10;" width="1.875" height="12.855"/>
				
					<rect x="711.266" y="303.517" style="fill:none;stroke:#e0e0e0;stroke-linecap:round;stroke-linejoin:round;stroke-miterlimit:10;" width="1.875" height="12.855"/>
				
					<rect x="711.266" y="331.73" style="fill:none;stroke:#e0e0e0;stroke-linecap:round;stroke-linejoin:round;stroke-miterlimit:10;" width="1.875" height="12.855"/>
				
					<rect x="711.266" y="364.416" style="fill:none;stroke:#e0e0e0;stroke-linecap:round;stroke-linejoin:round;stroke-miterlimit:10;" width="1.875" height="12.855"/>
			</g>
			<g>
				<polyline style="fill:none;stroke:#e0e0e0;stroke-linecap:round;stroke-linejoin:round;stroke-miterlimit:10;" points="
					60.701,238.852 60.701,204.146 67.089,204.146 67.089,188.619 68.775,188.619 68.775,180.102 69.218,180.102 70.106,164.221 
					70.283,180.102 72.501,180.102 72.501,188.708 73.477,188.708 73.477,201.218 75.606,201.218 75.606,214.171 78.978,214.171 
					78.978,248.216 84.213,249.926 84.213,287.869 88.649,289.319 88.649,332.172 96.101,333.946 96.101,376.289 				"/>
				<path style="fill:none;stroke:#e0e0e0;stroke-linecap:round;stroke-linejoin:round;stroke-miterlimit:10;" d="M91.659,388.581
					H75.606H33.818v-5.305h4.791v-6.92h7.453V319.84l6.654-0.975v-41.789c0,0,4.266-0.589,5.635-0.79"/>
				<path style="fill:none;stroke:#e0e0e0;stroke-linecap:round;stroke-linejoin:round;stroke-miterlimit:10;" d="M46.062,376.289"
					/>
				<polyline style="fill:none;stroke:#e0e0e0;stroke-linecap:round;stroke-linejoin:round;stroke-miterlimit:10;" points="
					46.062,319.84 56.354,318.331 56.354,357.28 				"/>
				
					<line style="fill:none;stroke:#e0e0e0;stroke-linecap:round;stroke-linejoin:round;stroke-miterlimit:10;" x1="46.062" y1="376.289" x2="101.945" y2="376.289"/>
				<polyline style="fill:none;stroke:#e0e0e0;stroke-linecap:round;stroke-linejoin:round;stroke-miterlimit:10;" points="
					52.716,277.075 62.209,275.745 62.209,339.625 				"/>
				<polyline style="fill:none;stroke:#e0e0e0;stroke-linecap:round;stroke-linejoin:round;stroke-miterlimit:10;" points="
					65.093,283.197 65.093,237.55 58.351,239.812 58.351,276.285 				"/>
				<polyline style="fill:none;stroke:#e0e0e0;stroke-linecap:round;stroke-linejoin:round;stroke-miterlimit:10;" points="
					73.477,201.218 71.614,201.218 71.614,223.132 				"/>
				<polyline style="fill:none;stroke:#e0e0e0;stroke-linecap:round;stroke-linejoin:round;stroke-miterlimit:10;" points="
					84.213,249.926 76.272,247.331 76.272,275.745 				"/>
				<polyline style="fill:none;stroke:#e0e0e0;stroke-linecap:round;stroke-linejoin:round;stroke-miterlimit:10;" points="
					88.649,289.319 79.422,286.302 79.422,319.84 				"/>
				<polyline style="fill:none;stroke:#e0e0e0;stroke-linecap:round;stroke-linejoin:round;stroke-miterlimit:10;" points="
					88.649,332.172 84.035,331.018 84.035,361.184 				"/>
				
					<line style="fill:none;stroke:#e0e0e0;stroke-linecap:round;stroke-linejoin:round;stroke-miterlimit:10;" x1="48.577" y1="325.388" x2="54.02" y2="324.461"/>
				
					<line style="fill:none;stroke:#e0e0e0;stroke-linecap:round;stroke-linejoin:round;stroke-miterlimit:10;" x1="48.351" y1="327.643" x2="53.794" y2="326.717"/>
				
					<line style="fill:none;stroke:#e0e0e0;stroke-linecap:round;stroke-linejoin:round;stroke-miterlimit:10;" x1="54.446" y1="280.602" x2="59.77" y2="279.737"/>
				
					<line style="fill:none;stroke:#e0e0e0;stroke-linecap:round;stroke-linejoin:round;stroke-miterlimit:10;" x1="54.446" y1="283.131" x2="59.77" y2="282.266"/>
				
					<line style="fill:none;stroke:#e0e0e0;stroke-linecap:round;stroke-linejoin:round;stroke-miterlimit:10;" x1="78.712" y1="251.169" x2="81.906" y2="252.322"/>
				
					<line style="fill:none;stroke:#e0e0e0;stroke-linecap:round;stroke-linejoin:round;stroke-miterlimit:10;" x1="78.712" y1="253.235" x2="81.906" y2="254.388"/>
				
					<line style="fill:none;stroke:#e0e0e0;stroke-linecap:round;stroke-linejoin:round;stroke-miterlimit:10;" x1="87.229" y1="335.543" x2="92.641" y2="336.874"/>
				
					<line style="fill:none;stroke:#e0e0e0;stroke-linecap:round;stroke-linejoin:round;stroke-miterlimit:10;" x1="87.229" y1="338.959" x2="92.641" y2="340.29"/>
			</g>
		</g>
	</g>
</g>
</svg>
