<svg width="1214" height="259" viewBox="0 0 1214 259" fill="none" xmlns="http://www.w3.org/2000/svg">
    <mask id="path-1-inside-1_305_15" fill="white">
        <path fill-rule="evenodd" clip-rule="evenodd"
            d="M245.99 0L201.846 28.9508V69.9656L246.511 118.329V1.5499L308.497 17.1756V122.208L310.108 123.982L309.951 16.0605L245.99 0ZM256.433 21.2926V127.594L263.198 135.828L294.504 106.821L294.513 106.777H294.535L294.566 106.733L295.08 107.364L301.131 114.034V31.9494L292.05 29.8807V107.147L283.404 113.922V27.8466L274.109 25.4413V120.367L265.705 125.185V23.5124L256.438 21.2542L256.433 21.2926ZM329.225 29.8348L312.816 40.0534V126.97L329.696 145.591V31.378L384.104 44.8157V238.336H378.224V58.4704L369.798 56.2474V238.336H362.549V54.3398L353.375 51.9204V171.708L357.096 175.811H353.375V238.336H346.126V175.489L293.271 117.348L289.279 121.647L338.406 175.489V238.336H127.415V155.662L68.7077 180.391V238.336H50.9659V187.867L12.9019 203.9V238.336H0V247.382H400L399.351 238.336H385.566V43.6934L329.225 29.8348ZM337.636 47.7751V154.344L346.126 163.714V50.0123L337.636 47.7751ZM199.351 68.3804L44.8357 163.594L2.5804 203.9L108.062 157.247L199.351 68.3804ZM200.535 80.9136L194.148 86.5241L260.297 159.014L267.824 156.097L200.535 80.9136ZM172.899 144.973V148.564H215.268V201.684H218.918V144.973H172.899ZM172.949 154.196V174.83H189.565V154.196H172.949ZM195.11 154.245V174.878H211.726V154.245H195.11ZM273.548 165.921V168.734H306.708V210.309H309.566V165.921H273.548ZM273.584 173.138V189.29H286.585V173.138H273.584ZM290.926 173.182V189.327H303.935V173.182H290.926ZM172.928 180.742V201.376H189.543V180.742H172.928ZM195.089 180.742V201.369H211.697V180.742H195.089ZM273.569 193.914V210.058H286.571V193.914H273.569ZM290.912 193.914V210.058H303.914V193.914H290.912Z" />
    </mask>
    <path fill-rule="evenodd" clip-rule="evenodd"
        d="M245.99 0L201.846 28.9508V69.9656L246.511 118.329V1.5499L308.497 17.1756V122.208L310.108 123.982L309.951 16.0605L245.99 0ZM256.433 21.2926V127.594L263.198 135.828L294.504 106.821L294.513 106.777H294.535L294.566 106.733L295.08 107.364L301.131 114.034V31.9494L292.05 29.8807V107.147L283.404 113.922V27.8466L274.109 25.4413V120.367L265.705 125.185V23.5124L256.438 21.2542L256.433 21.2926ZM329.225 29.8348L312.816 40.0534V126.97L329.696 145.591V31.378L384.104 44.8157V238.336H378.224V58.4704L369.798 56.2474V238.336H362.549V54.3398L353.375 51.9204V171.708L357.096 175.811H353.375V238.336H346.126V175.489L293.271 117.348L289.279 121.647L338.406 175.489V238.336H127.415V155.662L68.7077 180.391V238.336H50.9659V187.867L12.9019 203.9V238.336H0V247.382H400L399.351 238.336H385.566V43.6934L329.225 29.8348ZM337.636 47.7751V154.344L346.126 163.714V50.0123L337.636 47.7751ZM199.351 68.3804L44.8357 163.594L2.5804 203.9L108.062 157.247L199.351 68.3804ZM200.535 80.9136L194.148 86.5241L260.297 159.014L267.824 156.097L200.535 80.9136ZM172.899 144.973V148.564H215.268V201.684H218.918V144.973H172.899ZM172.949 154.196V174.83H189.565V154.196H172.949ZM195.11 154.245V174.878H211.726V154.245H195.11ZM273.548 165.921V168.734H306.708V210.309H309.566V165.921H273.548ZM273.584 173.138V189.29H286.585V173.138H273.584ZM290.926 173.182V189.327H303.935V173.182H290.926ZM172.928 180.742V201.376H189.543V180.742H172.928ZM195.089 180.742V201.369H211.697V180.742H195.089ZM273.569 193.914V210.058H286.571V193.914H273.569ZM290.912 193.914V210.058H303.914V193.914H290.912Z"
        fill="url(#paint0_linear_305_15)" stroke="#8F5E25" stroke-width="2" mask="url(#path-1-inside-1_305_15)" />
    <path
        d="M472.473 32.1V114H454.923V32.1H472.473ZM503.361 108.969L506.169 114H472.122V108.969H503.361ZM499.032 71.178V76.092H472.122V71.178H499.032ZM504.765 32.1V37.131H472.122V32.1H504.765ZM511.902 90.015L506.52 114H483.588L487.8 108.969C491.7 108.969 495.132 108.228 498.096 106.746C501.06 105.186 503.595 103.002 505.701 100.194C507.807 97.308 509.484 93.915 510.732 90.015H511.902ZM499.032 75.858V87.09H497.862V86.154C497.862 83.268 496.926 80.889 495.054 79.017C493.182 77.145 490.803 76.17 487.917 76.092V75.858H499.032ZM499.032 60.18V71.412H487.917V71.178C490.803 71.1 493.182 70.125 495.054 68.253C496.926 66.303 497.862 63.885 497.862 60.999V60.18H499.032ZM504.765 36.78V50.469H503.595V49.065C503.595 45.477 502.503 42.591 500.319 40.407C498.213 38.223 495.327 37.092 491.661 37.014V36.78H504.765ZM504.765 29.994V33.387L490.491 32.1C492.207 32.1 494.001 31.983 495.873 31.749C497.823 31.515 499.617 31.242 501.255 30.93C502.893 30.618 504.063 30.306 504.765 29.994ZM455.274 105.459V114H445.914V112.83C445.914 112.83 446.148 112.83 446.616 112.83C447.162 112.83 447.435 112.83 447.435 112.83C449.463 112.83 451.179 112.128 452.583 110.724C454.065 109.242 454.845 107.487 454.923 105.459H455.274ZM455.274 40.641H454.923C454.845 38.613 454.065 36.897 452.583 35.493C451.179 34.011 449.463 33.27 447.435 33.27C447.435 33.27 447.162 33.27 446.616 33.27C446.148 33.27 445.914 33.27 445.914 33.27V32.1H455.274V40.641ZM561.853 32.1C571.057 32.1 579.013 33.777 585.721 37.131C592.429 40.407 597.577 45.126 601.165 51.288C604.831 57.372 606.664 64.626 606.664 73.05C606.664 81.474 604.831 88.767 601.165 94.929C597.577 101.013 592.429 105.732 585.721 109.086C579.013 112.362 571.057 114 561.853 114H534.007L533.89 109.086C536.152 109.086 538.492 109.086 540.91 109.086C543.406 109.086 545.824 109.086 548.164 109.086C550.504 109.086 552.571 109.086 554.365 109.086C556.237 109.086 557.719 109.086 558.811 109.086C559.903 109.086 560.449 109.086 560.449 109.086C566.065 109.086 570.901 107.643 574.957 104.757C579.013 101.793 582.133 97.62 584.317 92.238C586.501 86.856 587.593 80.46 587.593 73.05C587.593 65.64 586.501 59.244 584.317 53.862C582.133 48.48 579.013 44.346 574.957 41.46C570.901 38.496 566.065 37.014 560.449 37.014C560.449 37.014 559.864 37.014 558.694 37.014C557.602 37.014 556.081 37.014 554.131 37.014C552.181 37.014 549.997 37.014 547.579 37.014C545.161 37.014 542.665 37.014 540.091 37.014C537.517 37.014 535.06 37.014 532.72 37.014V32.1H561.853ZM545.941 32.1V114H528.391V32.1H545.941ZM528.742 105.459V114H519.382V112.83C519.382 112.83 519.616 112.83 520.084 112.83C520.63 112.83 520.903 112.83 520.903 112.83C522.931 112.83 524.647 112.128 526.051 110.724C527.533 109.242 528.313 107.487 528.391 105.459H528.742ZM528.742 40.641H528.391C528.391 38.613 527.65 36.897 526.168 35.493C524.686 34.011 522.931 33.27 520.903 33.27C520.903 33.27 520.669 33.27 520.201 33.27C519.733 33.27 519.499 33.27 519.499 33.27L519.382 32.1H528.742V40.641ZM701.59 30.462L702.526 43.215L667.777 103.47C667.777 103.47 667.387 104.172 666.607 105.576C665.827 106.902 665.047 108.54 664.267 110.49C663.565 112.44 663.214 114.39 663.214 116.34H662.044L657.481 106.161L701.59 30.462ZM622.264 105.459V114H609.277V112.83C609.355 112.83 609.706 112.83 610.33 112.83C610.876 112.83 611.149 112.83 611.149 112.83C613.255 112.83 615.127 112.206 616.765 110.958C618.403 109.632 619.378 107.799 619.69 105.459H622.264ZM627.412 107.331C627.412 107.409 627.412 107.487 627.412 107.565C627.412 107.643 627.412 107.76 627.412 107.916C627.412 109.164 627.841 110.334 628.699 111.426C629.635 112.44 630.727 112.947 631.975 112.947H633.73V114H626.593V107.331H627.412ZM629.401 30.462H630.454L634.549 42.162L626.71 114H618.52L629.401 30.462ZM630.454 30.462L668.713 93.291L662.044 116.34L627.412 58.191L630.454 30.462ZM702.643 30.462L713.758 114H694.921L689.071 60.18L701.59 30.462H702.643ZM710.131 105.459H712.588C712.978 107.799 713.992 109.632 715.63 110.958C717.268 112.206 719.101 112.83 721.129 112.83C721.129 112.83 721.441 112.83 722.065 112.83C722.689 112.83 723.001 112.83 723.001 112.83V114H710.131V105.459ZM694.219 107.331H695.038V114H687.901V112.947H689.656C690.982 112.947 692.074 112.44 692.932 111.426C693.79 110.334 694.219 109.164 694.219 107.916C694.219 107.76 694.219 107.643 694.219 107.565C694.219 107.487 694.219 107.409 694.219 107.331ZM772.531 30.462C781.891 30.462 790.003 32.217 796.867 35.727C803.809 39.159 809.152 44.034 812.896 50.352C816.718 56.67 818.629 64.236 818.629 73.05C818.629 81.786 816.718 89.352 812.896 95.748C809.152 102.066 803.809 106.98 796.867 110.49C790.003 113.922 781.891 115.638 772.531 115.638C763.171 115.638 755.02 113.922 748.078 110.49C741.214 106.98 735.91 102.066 732.166 95.748C728.422 89.43 726.55 81.864 726.55 73.05C726.55 64.314 728.422 56.787 732.166 50.469C735.91 44.073 741.214 39.159 748.078 35.727C755.02 32.217 763.171 30.462 772.531 30.462ZM772.531 110.724C778.069 110.724 782.827 109.203 786.805 106.161C790.783 103.041 793.864 98.673 796.048 93.057C798.232 87.441 799.324 80.772 799.324 73.05C799.324 65.328 798.232 58.659 796.048 53.043C793.864 47.427 790.783 43.098 786.805 40.056C782.827 36.936 778.069 35.376 772.531 35.376C767.071 35.376 762.313 36.936 758.257 40.056C754.279 43.098 751.198 47.427 749.014 53.043C746.83 58.659 745.738 65.328 745.738 73.05C745.738 80.772 746.83 87.441 749.014 93.057C751.198 98.673 754.279 103.041 758.257 106.161C762.313 109.203 767.071 110.724 772.531 110.724ZM834 30.345L908.646 101.481L910.05 115.638L835.404 44.619L834 30.345ZM834.585 105.693V114H824.874V112.83C824.874 112.83 825.225 112.83 825.927 112.83C826.629 112.83 827.019 112.83 827.097 112.83C829.047 112.83 830.724 112.128 832.128 110.724C833.532 109.32 834.234 107.643 834.234 105.693H834.585ZM850.965 105.693C850.965 107.643 851.667 109.32 853.071 110.724C854.475 112.128 856.152 112.83 858.102 112.83C858.18 112.83 858.57 112.83 859.272 112.83C859.974 112.83 860.325 112.83 860.325 112.83V114H850.614V105.693H850.965ZM834 30.345L850.848 48.246L850.965 114H834.234V44.97C834.234 40.602 834 37.092 833.532 34.44C833.064 31.71 832.83 30.345 832.83 30.345H834ZM909.699 32.1V100.662C909.699 103.548 909.816 106.161 910.05 108.501C910.284 110.763 910.518 112.518 910.752 113.766C910.986 115.014 911.103 115.638 911.103 115.638H910.05L893.085 96.684V32.1H909.699ZM919.059 32.1V33.27C919.059 33.27 918.708 33.27 918.006 33.27C917.304 33.27 916.953 33.27 916.953 33.27C915.003 33.27 913.326 33.972 911.922 35.376C910.518 36.702 909.777 38.379 909.699 40.407H909.348V32.1H919.059ZM883.608 32.1H893.319V40.407H893.085C893.007 38.379 892.266 36.702 890.862 35.376C889.536 33.972 887.859 33.27 885.831 33.27C885.831 33.27 885.48 33.27 884.778 33.27C884.076 33.27 883.686 33.27 883.608 33.27V32.1ZM970.45 32.451V114H952.9V32.451H970.45ZM999.115 31.983V36.897H924.235V31.983H999.115ZM999.115 36.546V50.352L997.945 50.235V48.948C997.945 45.282 996.853 42.396 994.669 40.29C992.563 38.106 989.677 36.975 986.011 36.897V36.546H999.115ZM999.115 29.877V33.27L984.841 31.983C986.557 31.983 988.351 31.866 990.223 31.632C992.173 31.398 993.967 31.125 995.605 30.813C997.243 30.501 998.413 30.189 999.115 29.877ZM953.251 105.459V114H943.891V112.83C943.891 112.83 944.125 112.83 944.593 112.83C945.139 112.83 945.412 112.83 945.412 112.83C947.44 112.83 949.156 112.128 950.56 110.724C952.042 109.242 952.822 107.487 952.9 105.459H953.251ZM970.099 105.459H970.45C970.528 107.487 971.269 109.242 972.673 110.724C974.155 112.128 975.91 112.83 977.938 112.83C977.938 112.83 978.172 112.83 978.64 112.83C979.186 112.83 979.459 112.83 979.459 112.83V114H970.099V105.459ZM937.222 36.546V36.897C933.634 36.975 930.748 38.106 928.564 40.29C926.458 42.396 925.405 45.282 925.405 48.948V50.235L924.235 50.352V36.546H937.222ZM924.235 29.877C925.015 30.189 926.185 30.501 927.745 30.813C929.383 31.125 931.177 31.398 933.127 31.632C935.077 31.866 936.871 31.983 938.509 31.983L924.235 33.27V29.877ZM1051.21 30.462C1060.57 30.462 1068.68 32.217 1075.54 35.727C1082.48 39.159 1087.83 44.034 1091.57 50.352C1095.39 56.67 1097.3 64.236 1097.3 73.05C1097.3 81.786 1095.39 89.352 1091.57 95.748C1087.83 102.066 1082.48 106.98 1075.54 110.49C1068.68 113.922 1060.57 115.638 1051.21 115.638C1041.85 115.638 1033.7 113.922 1026.75 110.49C1019.89 106.98 1014.59 102.066 1010.84 95.748C1007.1 89.43 1005.23 81.864 1005.23 73.05C1005.23 64.314 1007.1 56.787 1010.84 50.469C1014.59 44.073 1019.89 39.159 1026.75 35.727C1033.7 32.217 1041.85 30.462 1051.21 30.462ZM1051.21 110.724C1056.74 110.724 1061.5 109.203 1065.48 106.161C1069.46 103.041 1072.54 98.673 1074.72 93.057C1076.91 87.441 1078 80.772 1078 73.05C1078 65.328 1076.91 58.659 1074.72 53.043C1072.54 47.427 1069.46 43.098 1065.48 40.056C1061.5 36.936 1056.74 35.376 1051.21 35.376C1045.75 35.376 1040.99 36.936 1036.93 40.056C1032.95 43.098 1029.87 47.427 1027.69 53.043C1025.51 58.659 1024.41 65.328 1024.41 73.05C1024.41 80.772 1025.51 87.441 1027.69 93.057C1029.87 98.673 1032.95 103.041 1036.93 106.161C1040.99 109.203 1045.75 110.724 1051.21 110.724ZM1112.68 30.345L1187.32 101.481L1188.73 115.638L1114.08 44.619L1112.68 30.345ZM1113.26 105.693V114H1103.55V112.83C1103.55 112.83 1103.9 112.83 1104.6 112.83C1105.3 112.83 1105.69 112.83 1105.77 112.83C1107.72 112.83 1109.4 112.128 1110.8 110.724C1112.21 109.32 1112.91 107.643 1112.91 105.693H1113.26ZM1129.64 105.693C1129.64 107.643 1130.34 109.32 1131.75 110.724C1133.15 112.128 1134.83 112.83 1136.78 112.83C1136.86 112.83 1137.25 112.83 1137.95 112.83C1138.65 112.83 1139 112.83 1139 112.83V114H1129.29V105.693H1129.64ZM1112.68 30.345L1129.52 48.246L1129.64 114H1112.91V44.97C1112.91 40.602 1112.68 37.092 1112.21 34.44C1111.74 31.71 1111.51 30.345 1111.51 30.345H1112.68ZM1188.37 32.1V100.662C1188.37 103.548 1188.49 106.161 1188.73 108.501C1188.96 110.763 1189.19 112.518 1189.43 113.766C1189.66 115.014 1189.78 115.638 1189.78 115.638H1188.73L1171.76 96.684V32.1H1188.37ZM1197.73 32.1V33.27C1197.73 33.27 1197.38 33.27 1196.68 33.27C1195.98 33.27 1195.63 33.27 1195.63 33.27C1193.68 33.27 1192 33.972 1190.6 35.376C1189.19 36.702 1188.45 38.379 1188.37 40.407H1188.02V32.1H1197.73ZM1162.28 32.1H1171.99V40.407H1171.76C1171.68 38.379 1170.94 36.702 1169.54 35.376C1168.21 33.972 1166.53 33.27 1164.51 33.27C1164.51 33.27 1164.16 33.27 1163.45 33.27C1162.75 33.27 1162.36 33.27 1162.28 33.27V32.1Z"
        fill="white" />
    <path
        d="M482.088 242.344C480.253 242.344 478.653 242.131 477.288 241.704C475.923 241.32 474.749 240.744 473.768 239.976C472.787 239.208 471.891 238.312 471.08 237.288C470.141 236.008 469.224 234.771 468.328 233.576C467.432 232.339 466.515 230.995 465.576 229.544C464.68 228.051 463.677 226.28 462.568 224.232C462.013 223.251 461.309 222.525 460.456 222.056C459.901 221.757 459.325 221.544 458.728 221.416C458.173 221.288 457.704 221.224 457.32 221.224C457.064 221.181 456.872 221.288 456.744 221.544C456.616 221.8 456.552 222.12 456.552 222.504V234.408C456.552 235.731 456.893 236.755 457.576 237.48C458.301 238.205 459.517 238.76 461.224 239.144C461.779 239.229 462.184 239.379 462.44 239.592C462.696 239.763 462.824 240.019 462.824 240.36C462.824 240.659 462.696 240.872 462.44 241C462.227 241.128 461.885 241.192 461.416 241.192C460.435 241.192 459.432 241.149 458.408 241.064C457.384 241.021 456.381 240.979 455.4 240.936C454.461 240.893 453.565 240.872 452.712 240.872C451.773 240.872 450.792 240.893 449.768 240.936C448.787 240.979 447.784 241.043 446.76 241.128C445.736 241.213 444.712 241.256 443.688 241.256C443.304 241.256 442.963 241.171 442.664 241C442.365 240.872 442.216 240.68 442.216 240.424C442.216 239.784 442.749 239.357 443.816 239.144C445.437 238.803 446.589 238.333 447.272 237.736C447.955 237.139 448.296 236.136 448.296 234.728V206.44C448.296 205.203 448.189 204.264 447.976 203.624C447.805 202.941 447.443 202.429 446.888 202.088C446.333 201.747 445.501 201.491 444.392 201.32C443.795 201.235 443.368 201.064 443.112 200.808C442.856 200.552 442.728 200.296 442.728 200.04C442.728 199.741 442.856 199.528 443.112 199.4C443.411 199.229 443.795 199.144 444.264 199.144C445.544 199.144 446.568 199.165 447.336 199.208C448.104 199.251 448.829 199.315 449.512 199.4C450.237 199.443 451.091 199.464 452.072 199.464C453.011 199.464 453.843 199.421 454.568 199.336C455.293 199.251 456.104 199.165 457 199.08C457.896 198.995 459.048 198.952 460.456 198.952C465.363 198.952 469.117 199.805 471.72 201.512C474.323 203.219 475.624 205.821 475.624 209.32C475.624 211.24 475.219 212.883 474.408 214.248C473.597 215.571 472.573 216.659 471.336 217.512C470.141 218.365 468.904 219.027 467.624 219.496C467.453 219.539 467.368 219.645 467.368 219.816C467.411 219.987 467.496 220.136 467.624 220.264C468.904 222.227 470.141 224.104 471.336 225.896C472.573 227.645 473.853 229.309 475.176 230.888C476.541 232.467 478.013 233.981 479.592 235.432C480.915 236.669 482.259 237.416 483.624 237.672C485.032 237.885 486.483 237.992 487.976 237.992C488.616 237.992 488.936 238.312 488.936 238.952C488.936 239.805 488.616 240.488 487.976 241C487.336 241.469 486.483 241.811 485.416 242.024C484.392 242.237 483.283 242.344 482.088 242.344ZM459.304 219.368C461.053 219.368 462.504 218.984 463.656 218.216C464.851 217.405 465.747 216.339 466.344 215.016C466.984 213.693 467.304 212.221 467.304 210.6C467.304 208.68 467.069 207.059 466.6 205.736C466.131 204.371 465.32 203.325 464.168 202.6C463.059 201.832 461.523 201.448 459.56 201.448C458.451 201.448 457.683 201.853 457.256 202.664C456.872 203.432 456.659 205.011 456.616 207.4C456.573 208.381 456.552 209.683 456.552 211.304C456.552 212.883 456.552 214.781 456.552 217C456.552 217.939 456.787 218.579 457.256 218.92C457.768 219.219 458.451 219.368 459.304 219.368ZM508.593 241.896C506.246 241.896 504.177 241.299 502.385 240.104C500.593 238.909 499.185 237.267 498.161 235.176C497.137 233.043 496.625 230.632 496.625 227.944C496.625 225.341 497.222 222.973 498.417 220.84C499.654 218.664 501.297 216.936 503.345 215.656C505.393 214.376 507.633 213.736 510.065 213.736C511.857 213.736 513.457 214.12 514.865 214.888C516.273 215.613 517.382 216.637 518.193 217.96C519.046 219.24 519.473 220.691 519.473 222.312C519.473 223.848 518.812 224.616 517.489 224.616H504.497C503.9 224.616 503.452 224.787 503.153 225.128C502.897 225.427 502.769 226.003 502.769 226.856C502.769 228.648 503.153 230.269 503.921 231.72C504.732 233.171 505.798 234.323 507.121 235.176C508.444 236.029 509.958 236.456 511.665 236.456C512.902 236.456 514.033 236.221 515.057 235.752C516.124 235.24 517.126 234.557 518.065 233.704C518.236 233.576 518.385 233.469 518.513 233.384C518.641 233.256 518.769 233.192 518.897 233.192C519.324 233.192 519.537 233.448 519.537 233.96C519.537 234.557 519.281 235.283 518.769 236.136C518.257 237.117 517.51 238.056 516.529 238.952C515.59 239.848 514.438 240.552 513.073 241.064C511.708 241.619 510.214 241.896 508.593 241.896ZM504.497 222.12H509.041C510.15 222.12 510.982 222.099 511.537 222.056C512.092 222.013 512.625 221.928 513.137 221.8C513.35 221.757 513.5 221.587 513.585 221.288C513.67 220.947 513.713 220.563 513.713 220.136C513.713 218.984 513.265 218.024 512.369 217.256C511.516 216.445 510.449 216.04 509.169 216.04C508.273 216.04 507.398 216.317 506.545 216.872C505.692 217.384 504.988 218.045 504.433 218.856C503.878 219.667 503.622 220.499 503.665 221.352C503.665 221.864 503.942 222.12 504.497 222.12ZM535.55 241.896C534.526 241.896 533.545 241.619 532.606 241.064C531.71 240.509 530.985 239.784 530.43 238.888C529.875 237.992 529.598 237.075 529.598 236.136C529.598 234.685 530.025 233.512 530.878 232.616C531.731 231.677 533.011 230.845 534.718 230.12L540.67 227.56C541.523 227.219 542.035 226.899 542.206 226.6C542.419 226.301 542.526 225.747 542.526 224.936L542.654 221.16C542.697 219.965 542.441 219.005 541.886 218.28C541.374 217.555 540.585 217.192 539.518 217.192C538.963 217.192 538.387 217.299 537.79 217.512C537.193 217.725 536.723 218.003 536.382 218.344C536.211 218.515 536.083 218.749 535.998 219.048C535.955 219.304 535.934 219.56 535.934 219.816C535.934 220.029 535.934 220.307 535.934 220.648C535.977 220.947 535.998 221.224 535.998 221.48C535.998 221.736 535.678 222.056 535.038 222.44C534.398 222.824 533.673 223.165 532.862 223.464C532.051 223.763 531.369 223.912 530.814 223.912C530.515 223.912 530.281 223.805 530.11 223.592C529.939 223.379 529.854 223.123 529.854 222.824C529.854 222.141 530.067 221.459 530.494 220.776C530.963 220.051 531.689 219.283 532.67 218.472C533.737 217.576 534.91 216.787 536.19 216.104C537.47 215.379 538.707 214.803 539.902 214.376C541.139 213.949 542.206 213.736 543.102 213.736C545.15 213.736 546.793 214.419 548.03 215.784C549.267 217.107 549.865 218.856 549.822 221.032L549.502 234.728C549.459 235.667 549.63 236.456 550.014 237.096C550.441 237.736 550.953 238.056 551.55 238.056C552.446 238.056 553.171 237.8 553.726 237.288C553.897 237.117 554.046 237.032 554.174 237.032C554.387 237.032 554.558 237.117 554.686 237.288C554.857 237.416 554.942 237.587 554.942 237.8C554.942 238.269 554.601 238.845 553.918 239.528C553.15 240.296 552.318 240.872 551.422 241.256C550.569 241.683 549.715 241.896 548.862 241.896C546.601 241.896 544.766 240.723 543.358 238.376H543.166C541.758 239.613 540.457 240.509 539.262 241.064C538.11 241.619 536.873 241.896 535.55 241.896ZM539.07 238.056C539.667 238.056 540.179 237.971 540.606 237.8C541.033 237.587 541.395 237.309 541.694 236.968C541.865 236.755 541.993 236.499 542.078 236.2C542.206 235.901 542.291 235.475 542.334 234.92L542.462 230.824C542.505 230.397 542.462 230.12 542.334 229.992C542.206 229.821 542.057 229.736 541.886 229.736C541.801 229.736 541.673 229.757 541.502 229.8C541.331 229.8 541.139 229.864 540.926 229.992C539.347 230.632 538.217 231.315 537.534 232.04C536.851 232.765 536.51 233.704 536.51 234.856C536.51 236.008 536.787 236.84 537.342 237.352C537.897 237.821 538.473 238.056 539.07 238.056ZM563.505 241.192C563.164 241.192 562.865 241.128 562.609 241C562.353 240.872 562.225 240.68 562.225 240.424C562.225 240.083 562.353 239.827 562.609 239.656C562.908 239.485 563.271 239.315 563.697 239.144C564.337 238.931 564.913 238.696 565.425 238.44C565.98 238.184 566.257 237.608 566.257 236.712V205.48C566.257 204.285 566.065 203.283 565.681 202.472C565.34 201.619 564.636 201.085 563.569 200.872C563.143 200.787 562.929 200.467 562.929 199.912C562.929 199.4 563.121 199.101 563.505 199.016C564.572 198.803 565.66 198.504 566.769 198.12C567.921 197.736 568.988 197.352 569.969 196.968C570.993 196.584 571.847 196.285 572.529 196.072C572.828 195.944 573.041 195.88 573.169 195.88C573.383 195.88 573.532 195.965 573.617 196.136C573.703 196.264 573.745 196.392 573.745 196.52C573.745 196.861 573.681 197.523 573.553 198.504C573.425 199.443 573.361 200.723 573.361 202.344V236.648C573.361 237.544 573.617 238.12 574.129 238.376C574.641 238.632 575.217 238.867 575.857 239.08C576.284 239.251 576.625 239.421 576.881 239.592C577.18 239.763 577.329 240.019 577.329 240.36C577.329 240.616 577.201 240.808 576.945 240.936C576.689 241.064 576.391 241.128 576.049 241.128C575.239 241.128 574.492 241.085 573.809 241C573.127 240.957 572.444 240.936 571.761 240.936C571.121 240.893 570.417 240.872 569.649 240.872C568.924 240.872 568.241 240.893 567.601 240.936C567.004 240.979 566.385 241.021 565.745 241.064C565.105 241.149 564.359 241.192 563.505 241.192ZM608.699 241.32C608.229 241.32 607.845 241.235 607.547 241.064C607.291 240.893 607.163 240.68 607.163 240.424C607.163 239.869 607.717 239.464 608.827 239.208C610.363 238.824 611.451 238.355 612.091 237.8C612.773 237.203 613.115 236.2 613.115 234.792V205.8C613.115 204.349 612.816 203.325 612.219 202.728C611.664 202.131 610.597 201.661 609.019 201.32C608.421 201.192 607.995 201.021 607.739 200.808C607.483 200.552 607.355 200.296 607.355 200.04C607.355 199.741 607.483 199.528 607.739 199.4C608.037 199.229 608.421 199.144 608.891 199.144C610.128 199.144 611.301 199.165 612.411 199.208C613.563 199.251 614.672 199.293 615.739 199.336C616.805 199.379 617.915 199.4 619.067 199.4C621.029 199.4 623.099 199.379 625.275 199.336C627.493 199.293 629.477 199.272 631.227 199.272C632.635 199.229 633.787 199.165 634.683 199.08C635.621 198.995 636.176 198.952 636.347 198.952C636.645 198.952 636.944 199.016 637.243 199.144C637.584 199.272 637.776 199.528 637.819 199.912C637.989 201.32 638.203 202.707 638.458 204.072C638.715 205.437 638.843 206.632 638.843 207.656C638.843 208.04 638.736 208.339 638.523 208.552C638.352 208.723 638.16 208.808 637.947 208.808C637.733 208.808 637.541 208.744 637.371 208.616C637.2 208.445 637.051 208.211 636.923 207.912C636.581 206.931 636.261 206.077 635.963 205.352C635.664 204.627 635.323 204.072 634.939 203.688C634.384 203.091 633.744 202.621 633.019 202.28C632.293 201.939 631.419 201.768 630.395 201.768H624.443C623.675 201.768 622.971 202.003 622.331 202.472C621.691 202.899 621.371 203.517 621.371 204.328V216.872C621.371 217.341 621.499 217.704 621.755 217.96C622.053 218.216 622.395 218.344 622.779 218.344H628.667C629.819 218.344 630.629 218.024 631.099 217.384C631.611 216.744 632.037 215.869 632.379 214.76C632.677 213.907 633.083 213.48 633.595 213.48C633.808 213.48 634 213.608 634.171 213.864C634.341 214.077 634.427 214.376 634.427 214.76C634.384 215.187 634.341 215.699 634.299 216.296C634.256 216.893 634.213 217.491 634.171 218.088C634.171 218.685 634.171 219.219 634.171 219.688C634.171 220.2 634.171 220.776 634.171 221.416C634.213 222.056 634.235 222.696 634.235 223.336C634.277 223.933 634.32 224.445 634.363 224.872C634.405 225.341 634.363 225.704 634.235 225.96C634.149 226.216 633.979 226.344 633.723 226.344C633.04 226.344 632.549 225.747 632.251 224.552C631.909 223.357 631.504 222.461 631.035 221.864C630.565 221.267 629.925 220.968 629.115 220.968H623.099C622.544 220.968 622.117 221.075 621.819 221.288C621.52 221.501 621.371 221.907 621.371 222.504V234.664C621.371 236.072 621.669 237.053 622.267 237.608C622.864 238.163 623.781 238.44 625.019 238.44H630.267C631.333 238.44 632.293 238.333 633.147 238.12C634.043 237.907 634.811 237.565 635.451 237.096C636.176 236.584 636.816 235.901 637.371 235.048C637.968 234.152 638.544 233.171 639.099 232.104C639.269 231.763 639.44 231.549 639.611 231.464C639.781 231.336 639.995 231.272 640.251 231.272C640.464 231.315 640.613 231.443 640.699 231.656C640.827 231.869 640.891 232.104 640.891 232.36C640.891 232.957 640.784 233.725 640.571 234.664C640.357 235.603 640.08 236.584 639.739 237.608C639.44 238.589 639.163 239.507 638.907 240.36C638.779 240.659 638.608 240.872 638.395 241C638.181 241.171 637.925 241.256 637.627 241.256C636.603 241.256 635.28 241.235 633.659 241.192C632.08 241.192 630.352 241.171 628.475 241.128C626.597 241.085 624.677 241.043 622.715 241C620.752 241 618.875 241 617.083 241C616.187 241 615.269 241.021 614.331 241.064C613.435 241.107 612.517 241.149 611.579 241.192C610.64 241.277 609.68 241.32 608.699 241.32ZM658.637 241.896C657.272 241.896 655.949 241.704 654.669 241.32C653.432 240.979 652.301 240.445 651.277 239.72C650.978 239.123 650.744 238.184 650.573 236.904C650.445 235.624 650.381 234.365 650.381 233.128C650.381 232.616 650.744 232.36 651.469 232.36C651.768 232.36 652.024 232.445 652.237 232.616C652.45 232.787 652.6 232.979 652.685 233.192C653.41 235.069 654.328 236.584 655.437 237.736C656.546 238.845 657.805 239.4 659.213 239.4C660.408 239.4 661.346 239.037 662.029 238.312C662.712 237.544 663.053 236.669 663.053 235.688C663.053 234.536 662.626 233.576 661.773 232.808C660.962 232.04 659.832 231.251 658.381 230.44C657.058 229.715 655.864 228.947 654.797 228.136C653.773 227.325 652.962 226.408 652.365 225.384C651.768 224.317 651.469 223.08 651.469 221.672C651.469 220.093 651.874 218.707 652.685 217.512C653.496 216.317 654.626 215.379 656.077 214.696C657.57 214.013 659.277 213.672 661.197 213.672C662.562 213.672 663.778 213.821 664.845 214.12C665.954 214.419 666.722 214.717 667.149 215.016C667.49 215.443 667.768 216.232 667.981 217.384C668.194 218.493 668.301 219.667 668.301 220.904C668.301 221.288 667.981 221.48 667.341 221.48C667.042 221.48 666.744 221.395 666.445 221.224C666.146 221.053 665.954 220.883 665.869 220.712C665.314 219.133 664.61 217.939 663.757 217.128C662.904 216.317 661.922 215.912 660.813 215.912C659.832 215.912 658.936 216.232 658.125 216.872C657.357 217.469 656.973 218.323 656.973 219.432C656.973 220.328 657.336 221.139 658.061 221.864C658.829 222.589 659.917 223.336 661.325 224.104C664.013 225.555 665.954 226.941 667.149 228.264C668.344 229.544 668.941 231.272 668.941 233.448C668.941 236.051 668.045 238.12 666.253 239.656C664.461 241.149 661.922 241.896 658.637 241.896ZM690.551 241.896C687.991 241.896 686.05 241.213 684.727 239.848C683.404 238.483 682.743 236.499 682.743 233.896V219.112C682.743 218.771 682.594 218.515 682.295 218.344C682.039 218.173 681.506 218.067 680.695 218.024H679.991C679.735 218.024 679.522 217.832 679.351 217.448C679.18 217.021 679.095 216.616 679.095 216.232C679.095 216.147 679.116 216.04 679.159 215.912C679.244 215.741 679.351 215.635 679.479 215.592C680.46 215.165 681.463 214.589 682.487 213.864C683.511 213.096 684.471 212.328 685.367 211.56C686.263 210.749 687.01 210.067 687.607 209.512C687.906 209.299 688.14 209.107 688.311 208.936C688.524 208.765 688.759 208.68 689.015 208.68C689.356 208.68 689.612 208.765 689.783 208.936C689.996 209.064 690.06 209.341 689.975 209.768L689.591 213.288C689.548 213.8 689.655 214.141 689.911 214.312C690.21 214.483 690.615 214.568 691.127 214.568H698.679C698.807 214.568 698.935 214.717 699.063 215.016C699.191 215.315 699.255 215.613 699.255 215.912C699.255 216.467 699.17 216.979 698.999 217.448C698.871 217.917 698.7 218.152 698.487 218.152H692.407C691.426 218.152 690.743 218.259 690.359 218.472C690.018 218.685 689.847 219.133 689.847 219.816V232.104C689.847 233.981 690.21 235.411 690.935 236.392C691.66 237.331 692.684 237.8 694.007 237.8C695.202 237.8 696.098 237.693 696.695 237.48C697.335 237.267 697.911 237.011 698.423 236.712C698.551 236.627 698.658 236.584 698.743 236.584C698.956 236.584 699.106 236.712 699.191 236.968C699.319 237.224 699.383 237.501 699.383 237.8C699.383 238.013 698.956 238.461 698.103 239.144C697.292 239.827 696.204 240.445 694.839 241C693.516 241.597 692.087 241.896 690.551 241.896ZM714.325 241.896C713.301 241.896 712.32 241.619 711.381 241.064C710.485 240.509 709.76 239.784 709.205 238.888C708.65 237.992 708.373 237.075 708.373 236.136C708.373 234.685 708.8 233.512 709.653 232.616C710.506 231.677 711.786 230.845 713.493 230.12L719.445 227.56C720.298 227.219 720.81 226.899 720.981 226.6C721.194 226.301 721.301 225.747 721.301 224.936L721.429 221.16C721.472 219.965 721.216 219.005 720.661 218.28C720.149 217.555 719.36 217.192 718.293 217.192C717.738 217.192 717.162 217.299 716.565 217.512C715.968 217.725 715.498 218.003 715.157 218.344C714.986 218.515 714.858 218.749 714.773 219.048C714.73 219.304 714.709 219.56 714.709 219.816C714.709 220.029 714.709 220.307 714.709 220.648C714.752 220.947 714.773 221.224 714.773 221.48C714.773 221.736 714.453 222.056 713.813 222.44C713.173 222.824 712.448 223.165 711.637 223.464C710.826 223.763 710.144 223.912 709.589 223.912C709.29 223.912 709.056 223.805 708.885 223.592C708.714 223.379 708.629 223.123 708.629 222.824C708.629 222.141 708.842 221.459 709.269 220.776C709.738 220.051 710.464 219.283 711.445 218.472C712.512 217.576 713.685 216.787 714.965 216.104C716.245 215.379 717.482 214.803 718.677 214.376C719.914 213.949 720.981 213.736 721.877 213.736C723.925 213.736 725.568 214.419 726.805 215.784C728.042 217.107 728.64 218.856 728.597 221.032L728.277 234.728C728.234 235.667 728.405 236.456 728.789 237.096C729.216 237.736 729.728 238.056 730.325 238.056C731.221 238.056 731.946 237.8 732.501 237.288C732.672 237.117 732.821 237.032 732.949 237.032C733.162 237.032 733.333 237.117 733.461 237.288C733.632 237.416 733.717 237.587 733.717 237.8C733.717 238.269 733.376 238.845 732.693 239.528C731.925 240.296 731.093 240.872 730.197 241.256C729.344 241.683 728.49 241.896 727.637 241.896C725.376 241.896 723.541 240.723 722.133 238.376H721.941C720.533 239.613 719.232 240.509 718.037 241.064C716.885 241.619 715.648 241.896 714.325 241.896ZM717.845 238.056C718.442 238.056 718.954 237.971 719.381 237.8C719.808 237.587 720.17 237.309 720.469 236.968C720.64 236.755 720.768 236.499 720.853 236.2C720.981 235.901 721.066 235.475 721.109 234.92L721.237 230.824C721.28 230.397 721.237 230.12 721.109 229.992C720.981 229.821 720.832 229.736 720.661 229.736C720.576 229.736 720.448 229.757 720.277 229.8C720.106 229.8 719.914 229.864 719.701 229.992C718.122 230.632 716.992 231.315 716.309 232.04C715.626 232.765 715.285 233.704 715.285 234.856C715.285 236.008 715.562 236.84 716.117 237.352C716.672 237.821 717.248 238.056 717.845 238.056ZM753.289 241.896C750.729 241.896 748.787 241.213 747.465 239.848C746.142 238.483 745.481 236.499 745.481 233.896V219.112C745.481 218.771 745.331 218.515 745.033 218.344C744.777 218.173 744.243 218.067 743.433 218.024H742.729C742.473 218.024 742.259 217.832 742.089 217.448C741.918 217.021 741.833 216.616 741.833 216.232C741.833 216.147 741.854 216.04 741.897 215.912C741.982 215.741 742.089 215.635 742.217 215.592C743.198 215.165 744.201 214.589 745.225 213.864C746.249 213.096 747.209 212.328 748.105 211.56C749.001 210.749 749.747 210.067 750.345 209.512C750.643 209.299 750.878 209.107 751.049 208.936C751.262 208.765 751.497 208.68 751.753 208.68C752.094 208.68 752.35 208.765 752.521 208.936C752.734 209.064 752.798 209.341 752.713 209.768L752.329 213.288C752.286 213.8 752.393 214.141 752.649 214.312C752.947 214.483 753.353 214.568 753.865 214.568H761.417C761.545 214.568 761.673 214.717 761.801 215.016C761.929 215.315 761.993 215.613 761.993 215.912C761.993 216.467 761.907 216.979 761.737 217.448C761.609 217.917 761.438 218.152 761.225 218.152H755.145C754.163 218.152 753.481 218.259 753.097 218.472C752.755 218.685 752.585 219.133 752.585 219.816V232.104C752.585 233.981 752.947 235.411 753.673 236.392C754.398 237.331 755.422 237.8 756.745 237.8C757.939 237.8 758.835 237.693 759.433 237.48C760.073 237.267 760.649 237.011 761.161 236.712C761.289 236.627 761.395 236.584 761.481 236.584C761.694 236.584 761.843 236.712 761.929 236.968C762.057 237.224 762.121 237.501 762.121 237.8C762.121 238.013 761.694 238.461 760.841 239.144C760.03 239.827 758.942 240.445 757.577 241C756.254 241.597 754.825 241.896 753.289 241.896ZM782.631 241.896C780.284 241.896 778.215 241.299 776.423 240.104C774.631 238.909 773.223 237.267 772.199 235.176C771.175 233.043 770.663 230.632 770.663 227.944C770.663 225.341 771.26 222.973 772.455 220.84C773.692 218.664 775.335 216.936 777.383 215.656C779.431 214.376 781.671 213.736 784.103 213.736C785.895 213.736 787.495 214.12 788.903 214.888C790.311 215.613 791.42 216.637 792.231 217.96C793.084 219.24 793.511 220.691 793.511 222.312C793.511 223.848 792.849 224.616 791.527 224.616H778.535C777.937 224.616 777.489 224.787 777.191 225.128C776.935 225.427 776.807 226.003 776.807 226.856C776.807 228.648 777.191 230.269 777.959 231.72C778.769 233.171 779.836 234.323 781.159 235.176C782.481 236.029 783.996 236.456 785.703 236.456C786.94 236.456 788.071 236.221 789.095 235.752C790.161 235.24 791.164 234.557 792.103 233.704C792.273 233.576 792.423 233.469 792.551 233.384C792.679 233.256 792.807 233.192 792.935 233.192C793.361 233.192 793.575 233.448 793.575 233.96C793.575 234.557 793.319 235.283 792.807 236.136C792.295 237.117 791.548 238.056 790.567 238.952C789.628 239.848 788.476 240.552 787.111 241.064C785.745 241.619 784.252 241.896 782.631 241.896ZM778.535 222.12H783.079C784.188 222.12 785.02 222.099 785.575 222.056C786.129 222.013 786.663 221.928 787.175 221.8C787.388 221.757 787.537 221.587 787.623 221.288C787.708 220.947 787.751 220.563 787.751 220.136C787.751 218.984 787.303 218.024 786.407 217.256C785.553 216.445 784.487 216.04 783.207 216.04C782.311 216.04 781.436 216.317 780.583 216.872C779.729 217.384 779.025 218.045 778.47 218.856C777.916 219.667 777.66 220.499 777.703 221.352C777.703 221.864 777.98 222.12 778.535 222.12ZM825.498 241.32C825.029 241.32 824.645 241.235 824.346 241.064C824.09 240.893 823.962 240.68 823.962 240.424C823.962 239.869 824.517 239.464 825.626 239.208C827.162 238.824 828.25 238.355 828.89 237.8C829.573 237.203 829.914 236.2 829.914 234.792V205.8C829.914 204.349 829.616 203.325 829.018 202.728C828.464 202.131 827.397 201.661 825.818 201.32C825.221 201.192 824.794 201.021 824.538 200.808C824.282 200.552 824.154 200.296 824.154 200.04C824.154 199.741 824.282 199.528 824.538 199.4C824.837 199.229 825.221 199.144 825.69 199.144C826.928 199.144 828.101 199.165 829.21 199.208C830.362 199.251 831.472 199.293 832.538 199.336C833.605 199.379 834.714 199.4 835.866 199.4C837.829 199.4 839.898 199.379 842.074 199.336C844.293 199.293 846.277 199.272 848.026 199.272C849.434 199.229 850.586 199.165 851.482 199.08C852.421 198.995 852.976 198.952 853.146 198.952C853.445 198.952 853.744 199.016 854.042 199.144C854.384 199.272 854.576 199.528 854.618 199.912C854.789 201.32 855.002 202.707 855.258 204.072C855.514 205.437 855.642 206.632 855.642 207.656C855.642 208.04 855.536 208.339 855.322 208.552C855.152 208.723 854.96 208.808 854.746 208.808C854.533 208.808 854.341 208.744 854.17 208.616C854 208.445 853.85 208.211 853.722 207.912C853.381 206.931 853.061 206.077 852.762 205.352C852.464 204.627 852.122 204.072 851.738 203.688C851.184 203.091 850.544 202.621 849.818 202.28C849.093 201.939 848.218 201.768 847.194 201.768H841.242C840.474 201.768 839.77 202.003 839.13 202.472C838.49 202.899 838.17 203.517 838.17 204.328V216.872C838.17 217.341 838.298 217.704 838.554 217.96C838.853 218.216 839.194 218.344 839.578 218.344H845.466C846.618 218.344 847.429 218.024 847.898 217.384C848.41 216.744 848.837 215.869 849.178 214.76C849.477 213.907 849.882 213.48 850.394 213.48C850.608 213.48 850.8 213.608 850.97 213.864C851.141 214.077 851.226 214.376 851.226 214.76C851.184 215.187 851.141 215.699 851.098 216.296C851.056 216.893 851.013 217.491 850.97 218.088C850.97 218.685 850.97 219.219 850.97 219.688C850.97 220.2 850.97 220.776 850.97 221.416C851.013 222.056 851.034 222.696 851.034 223.336C851.077 223.933 851.12 224.445 851.162 224.872C851.205 225.341 851.162 225.704 851.034 225.96C850.949 226.216 850.778 226.344 850.522 226.344C849.84 226.344 849.349 225.747 849.05 224.552C848.709 223.357 848.304 222.461 847.834 221.864C847.365 221.267 846.725 220.968 845.914 220.968H839.898C839.344 220.968 838.917 221.075 838.618 221.288C838.32 221.501 838.17 221.907 838.17 222.504V234.664C838.17 236.072 838.469 237.053 839.066 237.608C839.664 238.163 840.581 238.44 841.818 238.44H847.066C848.133 238.44 849.093 238.333 849.946 238.12C850.842 237.907 851.61 237.565 852.25 237.096C852.976 236.584 853.616 235.901 854.17 235.048C854.768 234.152 855.344 233.171 855.898 232.104C856.069 231.763 856.24 231.549 856.41 231.464C856.581 231.336 856.794 231.272 857.05 231.272C857.264 231.315 857.413 231.443 857.498 231.656C857.626 231.869 857.69 232.104 857.69 232.36C857.69 232.957 857.584 233.725 857.37 234.664C857.157 235.603 856.88 236.584 856.538 237.608C856.24 238.589 855.962 239.507 855.706 240.36C855.578 240.659 855.408 240.872 855.194 241C854.981 241.171 854.725 241.256 854.426 241.256C853.402 241.256 852.08 241.235 850.458 241.192C848.88 241.192 847.152 241.171 845.274 241.128C843.397 241.085 841.477 241.043 839.514 241C837.552 241 835.674 241 833.882 241C832.986 241 832.069 241.021 831.13 241.064C830.234 241.107 829.317 241.149 828.378 241.192C827.44 241.277 826.48 241.32 825.498 241.32ZM867.245 241.256C866.946 241.256 866.626 241.213 866.285 241.128C865.944 241.043 865.773 240.851 865.773 240.552C865.773 240.211 865.88 239.955 866.093 239.784C866.349 239.571 866.69 239.4 867.117 239.272C867.629 239.101 868.162 238.803 868.717 238.376C869.272 237.907 869.976 237.096 870.829 235.944L876.397 228.264C876.696 227.923 876.824 227.645 876.781 227.432C876.781 227.219 876.696 226.963 876.525 226.664L871.533 219.304C870.978 218.451 870.488 217.789 870.061 217.32C869.677 216.808 869.144 216.445 868.461 216.232C868.077 216.104 867.757 215.955 867.501 215.784C867.288 215.571 867.181 215.293 867.181 214.952C867.181 214.611 867.373 214.419 867.757 214.376C868.141 214.291 868.461 214.248 868.717 214.248C869.656 214.248 870.36 214.291 870.829 214.376C871.341 214.419 871.853 214.461 872.365 214.504C872.877 214.547 873.624 214.568 874.605 214.568C875.714 214.568 876.589 214.525 877.229 214.44C877.912 214.355 878.85 214.312 880.045 214.312C880.301 214.312 880.6 214.355 880.941 214.44C881.325 214.525 881.517 214.739 881.517 215.08C881.517 215.421 881.368 215.656 881.069 215.784C880.813 215.912 880.514 216.04 880.173 216.168C879.832 216.296 879.469 216.467 879.085 216.68C878.744 216.851 878.573 217.149 878.573 217.576C878.573 217.789 878.637 218.088 878.765 218.472C878.936 218.813 879.149 219.176 879.405 219.56L882.349 223.848C882.52 224.232 882.712 224.232 882.925 223.848L885.293 219.944C885.506 219.603 885.677 219.219 885.805 218.792C885.976 218.365 886.04 217.981 885.997 217.64C885.997 217 885.656 216.552 884.973 216.296C884.632 216.168 884.312 216.04 884.013 215.912C883.757 215.741 883.629 215.485 883.629 215.144C883.629 214.803 883.821 214.589 884.205 214.504C884.589 214.419 884.888 214.376 885.101 214.376C885.954 214.376 886.68 214.397 887.277 214.44C887.874 214.483 888.429 214.504 888.941 214.504C889.752 214.504 890.392 214.461 890.861 214.376C891.373 214.291 892.098 214.248 893.037 214.248C893.293 214.248 893.592 214.291 893.933 214.376C894.274 214.419 894.445 214.589 894.445 214.888C894.445 215.272 894.317 215.549 894.061 215.72C893.848 215.891 893.549 216.061 893.165 216.232C892.653 216.403 892.056 216.701 891.373 217.128C890.733 217.555 890.05 218.28 889.325 219.304L884.909 225.384C884.696 225.683 884.589 225.939 884.589 226.152C884.632 226.323 884.738 226.557 884.909 226.856L890.541 235.816C891.096 236.669 891.693 237.373 892.333 237.928C892.973 238.483 893.656 238.909 894.381 239.208C894.765 239.336 895.064 239.485 895.277 239.656C895.533 239.827 895.661 240.104 895.661 240.488C895.661 240.787 895.49 240.957 895.149 241C894.808 241.085 894.509 241.128 894.253 241.128C893.314 241.128 892.525 241.107 891.885 241.064C891.245 241.021 890.605 240.979 889.965 240.936C889.325 240.851 888.514 240.808 887.533 240.808C886.424 240.808 885.378 240.851 884.397 240.936C883.416 241.021 882.328 241.064 881.133 241.064C880.152 241.064 879.661 240.808 879.661 240.296C879.661 239.912 879.789 239.656 880.045 239.528C880.301 239.357 880.664 239.208 881.133 239.08C881.645 238.909 882.072 238.675 882.413 238.376C882.797 238.077 882.989 237.587 882.989 236.904C882.989 236.605 882.946 236.328 882.861 236.072C882.776 235.773 882.605 235.411 882.349 234.984L878.893 229.8C878.765 229.672 878.637 229.672 878.509 229.8L875.117 235.432C874.989 235.603 874.84 235.901 874.669 236.328C874.498 236.712 874.413 237.096 874.413 237.48C874.413 237.907 874.498 238.269 874.669 238.568C874.84 238.867 875.117 239.08 875.501 239.208C875.842 239.379 876.162 239.528 876.461 239.656C876.76 239.784 876.909 240.04 876.909 240.424C876.909 240.723 876.717 240.915 876.333 241C875.949 241.128 875.65 241.192 875.437 241.192C874.584 241.149 873.88 241.107 873.325 241.064C872.77 241.064 872.216 241.064 871.661 241.064C870.85 241.064 870.146 241.085 869.549 241.128C868.952 241.171 868.184 241.213 867.245 241.256ZM904.843 258.28C904.587 258.28 904.31 258.216 904.011 258.088C903.712 257.96 903.563 257.747 903.563 257.448C903.563 257.107 903.712 256.851 904.011 256.68C904.31 256.509 904.651 256.36 905.035 256.232C905.846 255.976 906.464 255.677 906.891 255.336C907.36 255.037 907.595 254.525 907.595 253.8V222.504C907.595 222.077 907.488 221.587 907.275 221.032C907.062 220.435 906.742 219.901 906.315 219.432C905.931 218.92 905.419 218.621 904.779 218.536C904.566 218.451 904.395 218.344 904.267 218.216C904.182 218.045 904.139 217.789 904.139 217.448C904.139 217.149 904.182 216.936 904.267 216.808C904.395 216.637 904.544 216.531 904.715 216.488C906.251 216.147 907.787 215.72 909.323 215.208C910.859 214.653 912.203 214.12 913.355 213.608C913.483 213.565 913.611 213.501 913.739 213.416C913.867 213.288 913.995 213.224 914.123 213.224C914.336 213.224 914.464 213.309 914.507 213.48C914.592 213.608 914.635 213.779 914.635 213.992C914.635 214.333 914.571 214.909 914.443 215.72C914.358 216.488 914.315 217.149 914.315 217.704C914.315 218.131 914.358 218.365 914.443 218.408C914.87 217.981 915.616 217.427 916.683 216.744C917.792 216.019 919.051 215.379 920.459 214.824C921.91 214.269 923.296 213.992 924.619 213.992C926.88 213.992 928.8 214.611 930.379 215.848C932 217.043 933.238 218.6 934.091 220.52C934.944 222.397 935.371 224.36 935.371 226.408C935.371 228.371 934.987 230.291 934.219 232.168C933.494 234.003 932.448 235.667 931.083 237.16C929.718 238.653 928.139 239.848 926.347 240.744C924.598 241.64 922.699 242.088 920.651 242.088C920.139 242.088 919.52 242.003 918.795 241.832C918.112 241.704 917.408 241.512 916.683 241.256C916 241.043 915.403 240.787 914.891 240.488C914.848 240.488 914.806 240.616 914.763 240.872C914.72 241.085 914.678 241.341 914.635 241.64C914.635 241.939 914.635 242.173 914.635 242.344V253.416C914.635 253.971 914.806 254.419 915.147 254.76C915.488 255.144 915.915 255.443 916.427 255.656C916.939 255.869 917.515 256.061 918.155 256.232C918.582 256.36 918.923 256.509 919.179 256.68C919.435 256.851 919.563 257.107 919.563 257.448C919.563 257.704 919.435 257.896 919.179 258.024C918.923 258.195 918.667 258.28 918.411 258.28C917.131 258.28 915.872 258.216 914.635 258.088C913.44 258.003 912.288 257.96 911.179 257.96C910.454 257.96 909.771 257.981 909.131 258.024C908.491 258.067 907.83 258.109 907.147 258.152C906.464 258.237 905.696 258.28 904.843 258.28ZM920.843 239.4C921.355 239.4 921.995 239.229 922.763 238.888C923.531 238.504 924.278 237.907 925.003 237.096C925.771 236.285 926.39 235.176 926.859 233.768C927.371 232.36 927.627 230.632 927.627 228.584C927.627 226.237 927.371 224.36 926.859 222.952C926.347 221.501 925.707 220.413 924.939 219.688C924.171 218.963 923.382 218.493 922.571 218.28C921.803 218.024 921.12 217.896 920.523 217.896C919.67 217.896 918.795 218.088 917.899 218.472C917.003 218.813 916.256 219.24 915.659 219.752C915.062 220.221 914.763 220.627 914.763 220.968C914.763 221.565 914.763 222.355 914.763 223.336C914.763 224.275 914.742 225.299 914.699 226.408C914.699 227.475 914.678 228.456 914.635 229.352C914.635 230.248 914.635 230.888 914.635 231.272C914.635 232.509 914.912 233.768 915.467 235.048C916.022 236.285 916.768 237.331 917.707 238.184C918.646 238.995 919.691 239.4 920.843 239.4ZM957.006 241.896C954.659 241.896 952.59 241.299 950.798 240.104C949.006 238.909 947.598 237.267 946.574 235.176C945.55 233.043 945.038 230.632 945.038 227.944C945.038 225.341 945.635 222.973 946.83 220.84C948.067 218.664 949.71 216.936 951.758 215.656C953.806 214.376 956.046 213.736 958.478 213.736C960.27 213.736 961.87 214.12 963.278 214.888C964.686 215.613 965.795 216.637 966.606 217.96C967.459 219.24 967.886 220.691 967.886 222.312C967.886 223.848 967.224 224.616 965.902 224.616H952.91C952.312 224.616 951.864 224.787 951.566 225.128C951.31 225.427 951.182 226.003 951.182 226.856C951.182 228.648 951.566 230.269 952.334 231.72C953.144 233.171 954.211 234.323 955.534 235.176C956.856 236.029 958.371 236.456 960.078 236.456C961.315 236.456 962.446 236.221 963.47 235.752C964.536 235.24 965.539 234.557 966.478 233.704C966.648 233.576 966.798 233.469 966.926 233.384C967.054 233.256 967.182 233.192 967.31 233.192C967.736 233.192 967.95 233.448 967.95 233.96C967.95 234.557 967.694 235.283 967.182 236.136C966.67 237.117 965.923 238.056 964.942 238.952C964.003 239.848 962.851 240.552 961.486 241.064C960.12 241.619 958.627 241.896 957.006 241.896ZM952.91 222.12H957.454C958.563 222.12 959.395 222.099 959.95 222.056C960.504 222.013 961.038 221.928 961.55 221.8C961.763 221.757 961.912 221.587 961.998 221.288C962.083 220.947 962.126 220.563 962.126 220.136C962.126 218.984 961.678 218.024 960.782 217.256C959.928 216.445 958.862 216.04 957.582 216.04C956.686 216.04 955.811 216.317 954.958 216.872C954.104 217.384 953.4 218.045 952.845 218.856C952.291 219.667 952.035 220.499 952.078 221.352C952.078 221.864 952.355 222.12 952.91 222.12ZM978.779 241.192C978.437 241.192 978.139 241.128 977.883 241C977.627 240.829 977.499 240.616 977.499 240.36C977.499 240.019 977.627 239.763 977.883 239.592C978.181 239.421 978.544 239.272 978.971 239.144C979.867 238.888 980.485 238.589 980.827 238.248C981.211 237.864 981.403 237.352 981.403 236.712V222.312C981.403 221.331 981.253 220.52 980.955 219.88C980.699 219.197 980.123 218.749 979.227 218.536C979.056 218.451 978.885 218.344 978.715 218.216C978.544 218.045 978.459 217.811 978.459 217.512C978.459 216.957 978.693 216.616 979.163 216.488C980.443 216.147 981.829 215.699 983.323 215.144C984.816 214.547 986.075 213.971 987.099 213.416C987.312 213.288 987.547 213.16 987.803 213.032C988.059 212.904 988.251 212.84 988.379 212.84C988.72 212.84 988.891 213.053 988.891 213.48C988.891 213.651 988.869 214.035 988.827 214.632C988.827 215.229 988.805 215.891 988.763 216.616C988.763 217.299 988.741 217.917 988.699 218.472C988.699 218.728 988.763 218.856 988.891 218.856C989.573 217.96 990.341 217.128 991.195 216.36C992.048 215.592 992.944 214.952 993.883 214.44C994.864 213.928 995.845 213.672 996.827 213.672C998.064 213.672 998.981 213.928 999.579 214.44C1000.22 214.952 1000.54 215.592 1000.54 216.36C1000.54 216.957 1000.37 217.597 1000.03 218.28C999.728 218.963 999.323 219.56 998.811 220.072C998.341 220.541 997.808 220.776 997.211 220.776C996.869 220.776 996.507 220.712 996.123 220.584C995.739 220.413 995.355 220.221 994.971 220.008C994.587 219.837 994.181 219.667 993.755 219.496C993.371 219.325 993.008 219.24 992.667 219.24C991.6 219.24 990.64 219.645 989.787 220.456C988.933 221.224 988.507 222.76 988.507 225.064V236.328C988.507 237.096 988.784 237.693 989.339 238.12C989.893 238.504 990.747 238.867 991.899 239.208C992.368 239.336 992.709 239.485 992.923 239.656C993.179 239.784 993.307 240.019 993.307 240.36C993.307 240.915 992.923 241.192 992.155 241.192C990.875 241.192 989.659 241.128 988.507 241C987.397 240.915 986.288 240.872 985.179 240.872C984.453 240.872 983.749 240.893 983.067 240.936C982.427 240.979 981.765 241.021 981.083 241.064C980.4 241.149 979.632 241.192 978.779 241.192ZM1020.55 241.896C1017.99 241.896 1016.05 241.213 1014.73 239.848C1013.4 238.483 1012.74 236.499 1012.74 233.896V219.112C1012.74 218.771 1012.59 218.515 1012.29 218.344C1012.04 218.173 1011.51 218.067 1010.69 218.024H1009.99C1009.73 218.024 1009.52 217.832 1009.35 217.448C1009.18 217.021 1009.09 216.616 1009.09 216.232C1009.09 216.147 1009.12 216.04 1009.16 215.912C1009.24 215.741 1009.35 215.635 1009.48 215.592C1010.46 215.165 1011.46 214.589 1012.49 213.864C1013.51 213.096 1014.47 212.328 1015.37 211.56C1016.26 210.749 1017.01 210.067 1017.61 209.512C1017.91 209.299 1018.14 209.107 1018.31 208.936C1018.52 208.765 1018.76 208.68 1019.01 208.68C1019.36 208.68 1019.61 208.765 1019.78 208.936C1020 209.064 1020.06 209.341 1019.97 209.768L1019.59 213.288C1019.55 213.8 1019.65 214.141 1019.91 214.312C1020.21 214.483 1020.61 214.568 1021.13 214.568H1028.68C1028.81 214.568 1028.93 214.717 1029.06 215.016C1029.19 215.315 1029.25 215.613 1029.25 215.912C1029.25 216.467 1029.17 216.979 1029 217.448C1028.87 217.917 1028.7 218.152 1028.49 218.152H1022.41C1021.43 218.152 1020.74 218.259 1020.36 218.472C1020.02 218.685 1019.85 219.133 1019.85 219.816V232.104C1019.85 233.981 1020.21 235.411 1020.93 236.392C1021.66 237.331 1022.68 237.8 1024.01 237.8C1025.2 237.8 1026.1 237.693 1026.69 237.48C1027.33 237.267 1027.91 237.011 1028.42 236.712C1028.55 236.627 1028.66 236.584 1028.74 236.584C1028.96 236.584 1029.11 236.712 1029.19 236.968C1029.32 237.224 1029.38 237.501 1029.38 237.8C1029.38 238.013 1028.96 238.461 1028.1 239.144C1027.29 239.827 1026.2 240.445 1024.84 241C1023.52 241.597 1022.09 241.896 1020.55 241.896ZM1046.44 241.896C1045.07 241.896 1043.75 241.704 1042.47 241.32C1041.23 240.979 1040.1 240.445 1039.08 239.72C1038.78 239.123 1038.54 238.184 1038.37 236.904C1038.25 235.624 1038.18 234.365 1038.18 233.128C1038.18 232.616 1038.54 232.36 1039.27 232.36C1039.57 232.36 1039.82 232.445 1040.04 232.616C1040.25 232.787 1040.4 232.979 1040.49 233.192C1041.21 235.069 1042.13 236.584 1043.24 237.736C1044.35 238.845 1045.61 239.4 1047.01 239.4C1048.21 239.4 1049.15 239.037 1049.83 238.312C1050.51 237.544 1050.85 236.669 1050.85 235.688C1050.85 234.536 1050.43 233.576 1049.57 232.808C1048.76 232.04 1047.63 231.251 1046.18 230.44C1044.86 229.715 1043.66 228.947 1042.6 228.136C1041.57 227.325 1040.76 226.408 1040.17 225.384C1039.57 224.317 1039.27 223.08 1039.27 221.672C1039.27 220.093 1039.67 218.707 1040.49 217.512C1041.3 216.317 1042.43 215.379 1043.88 214.696C1045.37 214.013 1047.08 213.672 1049 213.672C1050.36 213.672 1051.58 213.821 1052.65 214.12C1053.75 214.419 1054.52 214.717 1054.95 215.016C1055.29 215.443 1055.57 216.232 1055.78 217.384C1055.99 218.493 1056.1 219.667 1056.1 220.904C1056.1 221.288 1055.78 221.48 1055.14 221.48C1054.84 221.48 1054.54 221.395 1054.25 221.224C1053.95 221.053 1053.75 220.883 1053.67 220.712C1053.11 219.133 1052.41 217.939 1051.56 217.128C1050.7 216.317 1049.72 215.912 1048.61 215.912C1047.63 215.912 1046.74 216.232 1045.93 216.872C1045.16 217.469 1044.77 218.323 1044.77 219.432C1044.77 220.328 1045.14 221.139 1045.86 221.864C1046.63 222.589 1047.72 223.336 1049.13 224.104C1051.81 225.555 1053.75 226.941 1054.95 228.264C1056.14 229.544 1056.74 231.272 1056.74 233.448C1056.74 236.051 1055.85 238.12 1054.05 239.656C1052.26 241.149 1049.72 241.896 1046.44 241.896Z"
        fill="black" />
    <defs>
        <linearGradient id="paint0_linear_305_15" x1="0" y1="0" x2="400" y2="0" gradientUnits="userSpaceOnUse">
            <stop stop-color="#35f5ff" />
            <stop offset="0.0001" stop-color="#ffdaa4" />
            <stop offset="1" stop-color="#ffeb7c" />
        </linearGradient>
    </defs>
</svg>