<svg xmlns="http://www.w3.org/2000/svg" width="701" height="502" viewBox="0 0 701 502" fill="none">
<path d="M645.444 44.2692L701 126H523.65L436.043 1H475.929L502.994 40.1483V24.3516H523.65V44.2692H645.444Z" fill="#FF4C4C"/>
<path d="M431.769 10.6154L442.453 27.7857L355.558 126H201V120.505H334.191L431.769 10.6154Z" fill="#FF4C4C"/>
<path d="M469.519 95.0934V79.2967H452.425V95.0934H469.519Z" fill="#565656"/>
<path d="M469.519 116.385V101.275H452.425V116.385H469.519Z" fill="#565656"/>
<path d="M428.209 116.385H444.59V101.275H428.209V116.385Z" fill="#565656"/>
<path d="M444.59 79.2967V95.0934H428.209V79.2967H444.59Z" fill="#565656"/>
<path d="M1 116.785L10.6154 127.254C10.6154 127.254 37.1634 85.0453 70.2308 68.627C103.298 52.2086 102.923 100.034 102.923 100.034C102.923 100.034 137.58 181.922 108.692 238.226V472.733C108.692 510.422 162.538 510.422 162.538 472.733C162.538 435.045 166.094 248.603 162.538 231.945C158.983 215.286 141.891 148.19 166.385 104.222C166.385 104.222 162.422 83.5883 170.231 77.0022C173.986 73.8353 177.192 74.1965 181.769 72.8146C189.86 70.3716 195.765 63.8482 202.923 68.627C208.085 72.073 206.202 78.7704 210.615 83.2837C213.807 86.5479 216.195 87.7149 220.231 89.5651C231.305 94.6421 251 89.5651 251 89.5651V3.71865C251 3.71865 230.853 -2.39832 220.231 3.71865C215.98 6.16664 213.898 8.26742 210.615 12.0939C206.919 16.4033 207.562 21.6134 202.923 24.6568C195.731 29.3754 189.419 24.2372 181.769 20.4692C174.927 17.0989 176 12.0939 166.385 7.90629C156.769 3.71865 87.8793 12.0701 51 43.5012C25.2157 65.4763 18.3915 84.6133 1 116.785Z" fill="black" stroke="black"/>
<path d="M349 178.789V230H343.961V178.789H330.602V173.984H362.359V178.789H349ZM396.734 230L381.539 206.094H374.625V230H369.586V173.984H387.359C389.26 173.984 391.044 174.349 392.711 175.078C394.378 175.781 395.836 176.758 397.086 178.008C398.336 179.258 399.312 180.729 400.016 182.422C400.745 184.089 401.109 185.872 401.109 187.773V192.305C401.109 194.206 400.745 196.003 400.016 197.695C399.312 199.362 398.336 200.82 397.086 202.07C395.836 203.32 394.378 204.31 392.711 205.039C391.044 205.742 389.26 206.094 387.359 206.094L402.555 230H396.734ZM396.07 187.773C396.07 186.523 395.836 185.365 395.367 184.297C394.898 183.203 394.26 182.253 393.453 181.445C392.646 180.612 391.695 179.961 390.602 179.492C389.534 179.023 388.375 178.789 387.125 178.789H374.625V201.289H387.125C388.375 201.289 389.534 201.055 390.602 200.586C391.695 200.117 392.646 199.479 393.453 198.672C394.26 197.839 394.898 196.888 395.367 195.82C395.836 194.727 396.07 193.555 396.07 192.305V187.773ZM442.906 217.031C442.906 218.932 442.542 220.716 441.812 222.383C441.109 224.049 440.133 225.508 438.883 226.758C437.633 228.008 436.174 228.997 434.508 229.727C432.841 230.43 431.057 230.781 429.156 230.781H425.172C423.271 230.781 421.474 230.43 419.781 229.727C418.115 228.997 416.656 228.008 415.406 226.758C414.156 225.508 413.167 224.049 412.438 222.383C411.734 220.716 411.383 218.932 411.383 217.031V173.984H416.422V217.031C416.422 218.281 416.656 219.453 417.125 220.547C417.594 221.615 418.232 222.565 419.039 223.398C419.872 224.206 420.823 224.844 421.891 225.312C422.984 225.781 424.156 226.016 425.406 226.016H428.922C430.172 226.016 431.331 225.781 432.398 225.312C433.492 224.844 434.443 224.206 435.25 223.398C436.057 222.565 436.695 221.615 437.164 220.547C437.633 219.453 437.867 218.281 437.867 217.031V173.984H442.906V217.031ZM485.641 217.031C485.641 218.932 485.25 220.716 484.469 222.383C483.714 224.049 482.685 225.508 481.383 226.758C480.107 228.008 478.609 228.997 476.891 229.727C475.198 230.43 473.401 230.781 471.5 230.781H467.477C465.576 230.781 463.766 230.43 462.047 229.727C460.354 228.997 458.857 228.008 457.555 226.758C456.279 225.508 455.25 224.049 454.469 222.383C453.714 220.716 453.336 218.932 453.336 217.031V214.805L458.375 213.984V217.031C458.375 218.281 458.622 219.453 459.117 220.547C459.638 221.615 460.328 222.565 461.188 223.398C462.047 224.206 463.036 224.844 464.156 225.312C465.302 225.781 466.5 226.016 467.75 226.016H471.266C472.516 226.016 473.701 225.781 474.82 225.312C475.94 224.844 476.93 224.206 477.789 223.398C478.648 222.565 479.326 221.615 479.82 220.547C480.341 219.453 480.602 218.281 480.602 217.031V215.352C480.602 213.424 480.224 211.823 479.469 210.547C478.714 209.271 477.711 208.19 476.461 207.305C475.211 206.393 473.792 205.625 472.203 205C470.641 204.375 469.026 203.75 467.359 203.125C465.693 202.5 464.065 201.81 462.477 201.055C460.914 200.299 459.508 199.362 458.258 198.242C457.008 197.096 456.005 195.703 455.25 194.062C454.495 192.422 454.117 190.404 454.117 188.008V186.953C454.117 185.052 454.469 183.268 455.172 181.602C455.901 179.935 456.891 178.477 458.141 177.227C459.391 175.977 460.849 175 462.516 174.297C464.208 173.568 466.005 173.203 467.906 173.203H471.5C473.401 173.203 475.185 173.568 476.852 174.297C478.518 175 479.977 175.977 481.227 177.227C482.477 178.477 483.453 179.935 484.156 181.602C484.885 183.268 485.25 185.052 485.25 186.953V188.398L480.211 189.219V186.953C480.211 185.703 479.977 184.544 479.508 183.477C479.039 182.383 478.401 181.432 477.594 180.625C476.786 179.818 475.836 179.18 474.742 178.711C473.674 178.242 472.516 178.008 471.266 178.008H468.141C466.891 178.008 465.719 178.242 464.625 178.711C463.557 179.18 462.607 179.818 461.773 180.625C460.966 181.432 460.328 182.383 459.859 183.477C459.391 184.544 459.156 185.703 459.156 186.953V188.008C459.156 189.805 459.534 191.315 460.289 192.539C461.044 193.763 462.047 194.818 463.297 195.703C464.547 196.562 465.953 197.318 467.516 197.969C469.104 198.594 470.732 199.245 472.398 199.922C474.065 200.573 475.68 201.302 477.242 202.109C478.831 202.891 480.25 203.867 481.5 205.039C482.75 206.185 483.753 207.591 484.508 209.258C485.263 210.924 485.641 212.956 485.641 215.352V217.031ZM510.094 178.789V230H505.055V178.789H491.695V173.984H523.453V178.789H510.094ZM531.5 230V173.984H563.023V178.789H536.539V199.609H557.984V204.414H536.539V225.195H563.023V230H531.5ZM604.195 216.25C604.195 218.151 603.831 219.935 603.102 221.602C602.398 223.268 601.422 224.727 600.172 225.977C598.922 227.227 597.451 228.216 595.758 228.945C594.091 229.648 592.307 230 590.406 230H572.672V173.984H590.406C592.307 173.984 594.091 174.349 595.758 175.078C597.451 175.781 598.922 176.758 600.172 178.008C601.422 179.258 602.398 180.729 603.102 182.422C603.831 184.089 604.195 185.872 604.195 187.773V216.25ZM599.156 187.773C599.156 186.523 598.922 185.365 598.453 184.297C597.984 183.203 597.333 182.253 596.5 181.445C595.693 180.612 594.742 179.961 593.648 179.492C592.581 179.023 591.422 178.789 590.172 178.789H577.711V225.195H590.172C591.422 225.195 592.581 224.961 593.648 224.492C594.742 224.023 595.693 223.385 596.5 222.578C597.333 221.771 597.984 220.833 598.453 219.766C598.922 218.672 599.156 217.5 599.156 216.25V187.773ZM356.422 318.953H338.688L335.016 332H329.781L346.188 275.984H348.844L365.328 332H360.133L356.422 318.953ZM340.055 314.148H355.094L347.711 288.328L347.555 286.258L347.398 288.328L340.055 314.148ZM404.039 318.25C404.039 320.151 403.674 321.935 402.945 323.602C402.242 325.268 401.266 326.727 400.016 327.977C398.766 329.227 397.294 330.216 395.602 330.945C393.935 331.648 392.151 332 390.25 332H372.516V275.984H390.25C392.151 275.984 393.935 276.349 395.602 277.078C397.294 277.781 398.766 278.758 400.016 280.008C401.266 281.258 402.242 282.729 402.945 284.422C403.674 286.089 404.039 287.872 404.039 289.773V318.25ZM399 289.773C399 288.523 398.766 287.365 398.297 286.297C397.828 285.203 397.177 284.253 396.344 283.445C395.536 282.612 394.586 281.961 393.492 281.492C392.424 281.023 391.266 280.789 390.016 280.789H377.555V327.195H390.016C391.266 327.195 392.424 326.961 393.492 326.492C394.586 326.023 395.536 325.385 396.344 324.578C397.177 323.771 397.828 322.833 398.297 321.766C398.766 320.672 399 319.5 399 318.25V289.773ZM428.023 319.695L428.18 321.766L428.336 319.695L440.758 275.984H445.953L429.469 332H426.812L410.406 275.984H415.641L428.023 319.695ZM453.141 332V275.984H458.18V332H453.141ZM501.734 319.031C501.734 320.932 501.344 322.716 500.562 324.383C499.807 326.049 498.779 327.508 497.477 328.758C496.201 330.008 494.703 330.997 492.984 331.727C491.292 332.43 489.495 332.781 487.594 332.781H483.57C481.669 332.781 479.859 332.43 478.141 331.727C476.448 330.997 474.951 330.008 473.648 328.758C472.372 327.508 471.344 326.049 470.562 324.383C469.807 322.716 469.43 320.932 469.43 319.031V316.805L474.469 315.984V319.031C474.469 320.281 474.716 321.453 475.211 322.547C475.732 323.615 476.422 324.565 477.281 325.398C478.141 326.206 479.13 326.844 480.25 327.312C481.396 327.781 482.594 328.016 483.844 328.016H487.359C488.609 328.016 489.794 327.781 490.914 327.312C492.034 326.844 493.023 326.206 493.883 325.398C494.742 324.565 495.419 323.615 495.914 322.547C496.435 321.453 496.695 320.281 496.695 319.031V317.352C496.695 315.424 496.318 313.823 495.562 312.547C494.807 311.271 493.805 310.19 492.555 309.305C491.305 308.393 489.885 307.625 488.297 307C486.734 306.375 485.12 305.75 483.453 305.125C481.786 304.5 480.159 303.81 478.57 303.055C477.008 302.299 475.602 301.362 474.352 300.242C473.102 299.096 472.099 297.703 471.344 296.062C470.589 294.422 470.211 292.404 470.211 290.008V288.953C470.211 287.052 470.562 285.268 471.266 283.602C471.995 281.935 472.984 280.477 474.234 279.227C475.484 277.977 476.943 277 478.609 276.297C480.302 275.568 482.099 275.203 484 275.203H487.594C489.495 275.203 491.279 275.568 492.945 276.297C494.612 277 496.07 277.977 497.32 279.227C498.57 280.477 499.547 281.935 500.25 283.602C500.979 285.268 501.344 287.052 501.344 288.953V290.398L496.305 291.219V288.953C496.305 287.703 496.07 286.544 495.602 285.477C495.133 284.383 494.495 283.432 493.688 282.625C492.88 281.818 491.93 281.18 490.836 280.711C489.768 280.242 488.609 280.008 487.359 280.008H484.234C482.984 280.008 481.812 280.242 480.719 280.711C479.651 281.18 478.701 281.818 477.867 282.625C477.06 283.432 476.422 284.383 475.953 285.477C475.484 286.544 475.25 287.703 475.25 288.953V290.008C475.25 291.805 475.628 293.315 476.383 294.539C477.138 295.763 478.141 296.818 479.391 297.703C480.641 298.562 482.047 299.318 483.609 299.969C485.198 300.594 486.826 301.245 488.492 301.922C490.159 302.573 491.773 303.302 493.336 304.109C494.924 304.891 496.344 305.867 497.594 307.039C498.844 308.185 499.846 309.591 500.602 311.258C501.357 312.924 501.734 314.956 501.734 317.352V319.031ZM512.594 332V275.984H544.117V280.789H517.633V301.609H539.078V306.414H517.633V327.195H544.117V332H512.594ZM580.094 332L564.898 308.094H557.984V332H552.945V275.984H570.719C572.62 275.984 574.404 276.349 576.07 277.078C577.737 277.781 579.195 278.758 580.445 280.008C581.695 281.258 582.672 282.729 583.375 284.422C584.104 286.089 584.469 287.872 584.469 289.773V294.305C584.469 296.206 584.104 298.003 583.375 299.695C582.672 301.362 581.695 302.82 580.445 304.07C579.195 305.32 577.737 306.31 576.07 307.039C574.404 307.742 572.62 308.094 570.719 308.094L585.914 332H580.094ZM579.43 289.773C579.43 288.523 579.195 287.365 578.727 286.297C578.258 285.203 577.62 284.253 576.812 283.445C576.005 282.612 575.055 281.961 573.961 281.492C572.893 281.023 571.734 280.789 570.484 280.789H557.984V303.289H570.484C571.734 303.289 572.893 303.055 573.961 302.586C575.055 302.117 576.005 301.479 576.812 300.672C577.62 299.839 578.258 298.888 578.727 297.82C579.195 296.727 579.43 295.555 579.43 294.305V289.773ZM626.266 319.031C626.266 320.932 625.875 322.716 625.094 324.383C624.339 326.049 623.31 327.508 622.008 328.758C620.732 330.008 619.234 330.997 617.516 331.727C615.823 332.43 614.026 332.781 612.125 332.781H608.102C606.201 332.781 604.391 332.43 602.672 331.727C600.979 330.997 599.482 330.008 598.18 328.758C596.904 327.508 595.875 326.049 595.094 324.383C594.339 322.716 593.961 320.932 593.961 319.031V316.805L599 315.984V319.031C599 320.281 599.247 321.453 599.742 322.547C600.263 323.615 600.953 324.565 601.812 325.398C602.672 326.206 603.661 326.844 604.781 327.312C605.927 327.781 607.125 328.016 608.375 328.016H611.891C613.141 328.016 614.326 327.781 615.445 327.312C616.565 326.844 617.555 326.206 618.414 325.398C619.273 324.565 619.951 323.615 620.445 322.547C620.966 321.453 621.227 320.281 621.227 319.031V317.352C621.227 315.424 620.849 313.823 620.094 312.547C619.339 311.271 618.336 310.19 617.086 309.305C615.836 308.393 614.417 307.625 612.828 307C611.266 306.375 609.651 305.75 607.984 305.125C606.318 304.5 604.69 303.81 603.102 303.055C601.539 302.299 600.133 301.362 598.883 300.242C597.633 299.096 596.63 297.703 595.875 296.062C595.12 294.422 594.742 292.404 594.742 290.008V288.953C594.742 287.052 595.094 285.268 595.797 283.602C596.526 281.935 597.516 280.477 598.766 279.227C600.016 277.977 601.474 277 603.141 276.297C604.833 275.568 606.63 275.203 608.531 275.203H612.125C614.026 275.203 615.81 275.568 617.477 276.297C619.143 277 620.602 277.977 621.852 279.227C623.102 280.477 624.078 281.935 624.781 283.602C625.51 285.268 625.875 287.052 625.875 288.953V290.398L620.836 291.219V288.953C620.836 287.703 620.602 286.544 620.133 285.477C619.664 284.383 619.026 283.432 618.219 282.625C617.411 281.818 616.461 281.18 615.367 280.711C614.299 280.242 613.141 280.008 611.891 280.008H608.766C607.516 280.008 606.344 280.242 605.25 280.711C604.182 281.18 603.232 281.818 602.398 282.625C601.591 283.432 600.953 284.383 600.484 285.477C600.016 286.544 599.781 287.703 599.781 288.953V290.008C599.781 291.805 600.159 293.315 600.914 294.539C601.669 295.763 602.672 296.818 603.922 297.703C605.172 298.562 606.578 299.318 608.141 299.969C609.729 300.594 611.357 301.245 613.023 301.922C614.69 302.573 616.305 303.302 617.867 304.109C619.456 304.891 620.875 305.867 622.125 307.039C623.375 308.185 624.378 309.591 625.133 311.258C625.888 312.924 626.266 314.956 626.266 317.352V319.031ZM361.734 434L346.539 410.094H339.625V434H334.586V377.984H352.359C354.26 377.984 356.044 378.349 357.711 379.078C359.378 379.781 360.836 380.758 362.086 382.008C363.336 383.258 364.312 384.729 365.016 386.422C365.745 388.089 366.109 389.872 366.109 391.773V396.305C366.109 398.206 365.745 400.003 365.016 401.695C364.312 403.362 363.336 404.82 362.086 406.07C360.836 407.32 359.378 408.31 357.711 409.039C356.044 409.742 354.26 410.094 352.359 410.094L367.555 434H361.734ZM361.07 391.773C361.07 390.523 360.836 389.365 360.367 388.297C359.898 387.203 359.26 386.253 358.453 385.445C357.646 384.612 356.695 383.961 355.602 383.492C354.534 383.023 353.375 382.789 352.125 382.789H339.625V405.289H352.125C353.375 405.289 354.534 405.055 355.602 404.586C356.695 404.117 357.646 403.479 358.453 402.672C359.26 401.839 359.898 400.888 360.367 399.82C360.836 398.727 361.07 397.555 361.07 396.305V391.773ZM377.203 434V377.984H408.727V382.789H382.242V403.609H403.688V408.414H382.242V429.195H408.727V434H377.203ZM439.391 420.953H421.656L417.984 434H412.75L429.156 377.984H431.812L448.297 434H443.102L439.391 420.953ZM423.023 416.148H438.062L430.68 390.328L430.523 388.258L430.367 390.328L423.023 416.148ZM454.664 434V377.984H459.703V429.195H481.148V434H454.664ZM500.641 382.789V434H495.602V382.789H482.242V377.984H514V382.789H500.641ZM536.773 407.203V434H531.734V407.281L517.242 377.984H522.672L534.195 401.266L545.719 377.984H551.148L536.773 407.203Z" fill="#001C51"/>
</svg>