<svg width="400" height="248" viewBox="0 0 400 248" fill="none" xmlns="http://www.w3.org/2000/svg">
<mask id="path-1-inside-1_303_10" fill="white">
<path fill-rule="evenodd" clip-rule="evenodd" d="M245.99 0L201.846 28.9508V69.9656L246.511 118.329V1.5499L308.497 17.1756V122.208L310.108 123.982L309.951 16.0605L245.99 0ZM256.433 21.2926V127.594L263.198 135.828L294.504 106.821L294.513 106.777H294.535L294.566 106.733L295.08 107.364L301.131 114.034V31.9494L292.05 29.8807V107.147L283.404 113.922V27.8466L274.109 25.4413V120.367L265.705 125.185V23.5124L256.438 21.2542L256.433 21.2926ZM329.225 29.8348L312.816 40.0534V126.97L329.696 145.591V31.378L384.104 44.8157V238.336H378.224V58.4704L369.798 56.2474V238.336H362.549V54.3398L353.375 51.9204V171.708L357.096 175.811H353.375V238.336H346.126V175.489L293.271 117.348L289.279 121.647L338.406 175.489V238.336H127.415V155.662L68.7077 180.391V238.336H50.9659V187.867L12.9019 203.9V238.336H0V247.382H400L399.351 238.336H385.566V43.6934L329.225 29.8348ZM337.636 47.7751V154.344L346.126 163.714V50.0123L337.636 47.7751ZM199.351 68.3804L44.8357 163.594L2.5804 203.9L108.062 157.247L199.351 68.3804ZM200.535 80.9136L194.148 86.5241L260.297 159.014L267.824 156.097L200.535 80.9136ZM172.899 144.973V148.564H215.268V201.684H218.918V144.973H172.899ZM172.949 154.196V174.83H189.565V154.196H172.949ZM195.11 154.245V174.878H211.726V154.245H195.11ZM273.548 165.921V168.734H306.708V210.309H309.566V165.921H273.548ZM273.584 173.138V189.29H286.585V173.138H273.584ZM290.926 173.182V189.327H303.935V173.182H290.926ZM172.928 180.742V201.376H189.543V180.742H172.928ZM195.089 180.742V201.369H211.697V180.742H195.089ZM273.569 193.914V210.058H286.571V193.914H273.569ZM290.912 193.914V210.058H303.914V193.914H290.912Z"/>
</mask>
<path fill-rule="evenodd" clip-rule="evenodd" d="M245.99 0L201.846 28.9508V69.9656L246.511 118.329V1.5499L308.497 17.1756V122.208L310.108 123.982L309.951 16.0605L245.99 0ZM256.433 21.2926V127.594L263.198 135.828L294.504 106.821L294.513 106.777H294.535L294.566 106.733L295.08 107.364L301.131 114.034V31.9494L292.05 29.8807V107.147L283.404 113.922V27.8466L274.109 25.4413V120.367L265.705 125.185V23.5124L256.438 21.2542L256.433 21.2926ZM329.225 29.8348L312.816 40.0534V126.97L329.696 145.591V31.378L384.104 44.8157V238.336H378.224V58.4704L369.798 56.2474V238.336H362.549V54.3398L353.375 51.9204V171.708L357.096 175.811H353.375V238.336H346.126V175.489L293.271 117.348L289.279 121.647L338.406 175.489V238.336H127.415V155.662L68.7077 180.391V238.336H50.9659V187.867L12.9019 203.9V238.336H0V247.382H400L399.351 238.336H385.566V43.6934L329.225 29.8348ZM337.636 47.7751V154.344L346.126 163.714V50.0123L337.636 47.7751ZM199.351 68.3804L44.8357 163.594L2.5804 203.9L108.062 157.247L199.351 68.3804ZM200.535 80.9136L194.148 86.5241L260.297 159.014L267.824 156.097L200.535 80.9136ZM172.899 144.973V148.564H215.268V201.684H218.918V144.973H172.899ZM172.949 154.196V174.83H189.565V154.196H172.949ZM195.11 154.245V174.878H211.726V154.245H195.11ZM273.548 165.921V168.734H306.708V210.309H309.566V165.921H273.548ZM273.584 173.138V189.29H286.585V173.138H273.584ZM290.926 173.182V189.327H303.935V173.182H290.926ZM172.928 180.742V201.376H189.543V180.742H172.928ZM195.089 180.742V201.369H211.697V180.742H195.089ZM273.569 193.914V210.058H286.571V193.914H273.569ZM290.912 193.914V210.058H303.914V193.914H290.912Z" fill="url(#paint0_linear_303_10)" stroke="#8F5E25" stroke-width="2" mask="url(#path-1-inside-1_303_10)"/>
<defs>
<linearGradient id="paint0_linear_303_10" x1="0" y1="0" x2="400" y2="0" gradientUnits="userSpaceOnUse">
<stop stop-color="#8F5E25"/>
<stop offset="0.0001" stop-color="#FBB040"/>
<stop offset="1" stop-color="#FAD303"/>
</linearGradient>
</defs>
</svg>
