<svg xmlns="http://www.w3.org/2000/svg" viewBox="0 0 1200 800">
    <g data-name="Secondary shapes">
        <path fill="#f59191"
            d="M889.09,441.34V306.84H827.37L730.64,439.5v41.14H849.17v40.84h39.92V480.64h25.18v-39.3Zm-39.92,0H776.39l72.78-99.49Z" />
        <polygon fill="#fab870"
            points="421.83 441.34 400.52 447.08 400.52 488.32 381.91 488.32 381.91 521.49 421.83 521.49 421.83 480.64 447.01 480.64 447.01 441.34 421.83 441.34" />
        <polygon fill="#f59191"
            points="360.11 306.84 263.38 439.5 263.38 480.64 392.85 480.64 392.85 450.57 377.57 441.34 309.13 441.34 381.91 341.85 381.91 435 392.85 441.61 392.85 441.25 421.83 433.39 421.83 306.84 360.11 306.84" />
        <path fill="#fab870"
            d="M516.15,413.84A71.74,71.74,0,0,1,620,349.71L633.53,326l-4.35-15.91a111.67,111.67,0,0,0-92.95,202.75l17.25-36A71.71,71.71,0,0,1,516.15,413.84Z" />
        <path fill="#b8d1cd"
            d="M591.35,497a71.54,71.54,0,0,1-27.48-5.46l-17.26,36a111.92,111.92,0,0,0,89.45,0l-16-36.59A71.47,71.47,0,0,1,591.35,497Z" />
        <path fill="#fab870"
            d="M656.08,325.44l-15.88,4.35-13.52,23.73a71.71,71.71,0,0,1-6.6,124.42l16,36.63a111.67,111.67,0,0,0,20-189.13Z" />
        <polygon fill="#b8d1cd" points="639.75 322.84 661.67 316.83 633.74 300.92 639.75 322.84" />
        <path fill="#fab870"
            d="M952.83,302.62h-24.7q-.11-5.31-.1-6.47,0-12,4-19.69t15.92-17.37q11.94-9.64,14.27-12.64a16.82,16.82,0,0,0,3.6-10.43,17.34,17.34,0,0,0-6.36-13.46Q953.09,217,942.31,217q-10.39,0-17.39,5.91t-9.61,18l-24.86-3.13q1.06-17.36,14.76-29.47t35.94-12.12q23.42,0,37.24,12.22t13.84,28.43a31.24,31.24,0,0,1-5.08,17q-5.08,8-21.73,21.81-8.62,7.16-10.7,11.49T952.83,302.62Zm-24.7,36.58V312h24.7v27.2Z" />
        <path fill="#b8d1cd"
            d="M352.7,628.23h-3A68.32,68.32,0,0,1,352,613q1.78-6,7.31-16.8A77.79,77.79,0,0,0,365,583.5a31.33,31.33,0,0,0,1.3-8.93q0-9.26-4.9-14.72a15.52,15.52,0,0,0-12-5.47q-6.31,0-9.95,3c-2.43,2-3.63,4.15-3.63,6.48a14.32,14.32,0,0,0,2.18,6.63q2.19,3.93,2.19,6a6.19,6.19,0,0,1-1.68,4.41,5.39,5.39,0,0,1-4.08,1.78,7.2,7.2,0,0,1-5.57-3q-2.52-3-2.52-8.43,0-8.26,7.07-14.61t19.15-6.35q15,0,22.07,8.76a22,22,0,0,1,5.24,14.25,28.28,28.28,0,0,1-2.36,11q-2.37,5.63-9,13.24-10.56,12-12.9,17T352.7,628.23Zm-1.05,9.1a8.06,8.06,0,0,1,8.12,8.12,7.71,7.71,0,0,1-2.4,5.7,7.89,7.89,0,0,1-5.72,2.35,8.09,8.09,0,0,1,0-16.17Z" />
        <path fill="#b8d1cd"
            d="M420,602.76c-5.51,0-7.77-3.91-5-8.68l54-93.55c2.76-4.78,7.27-4.78,10,0l54,93.55c2.75,4.77.5,8.68-5,8.68Z" />
        <polygon fill="#f59191"
            points="589.31 201.09 582.61 194.39 570.79 206.2 558.98 194.39 552.28 201.09 564.09 212.91 552.28 224.72 558.98 231.43 570.79 219.61 582.61 231.43 589.31 224.72 577.5 212.91 589.31 201.09" />
        <path fill="#f59191" d="M585.66,430.92l7.52-13.11,11.17,13.61-9.84-30.89-7,12.15-10.36-14.22Z" />
        <polygon fill="#f59191"
            points="669.88 560.01 664.73 554.87 655.66 563.94 646.58 554.87 641.44 560.01 650.51 569.09 641.44 578.16 646.58 583.31 655.66 574.23 664.73 583.31 669.88 578.16 660.8 569.09 669.88 560.01" />
        <polygon fill="none" stroke="#eeecea" stroke-linecap="round" stroke-linejoin="round" stroke-width="3"
            points="384.91 131.49 378.32 120.08 384.91 108.67 398.1 108.67 404.68 120.08 398.1 131.49 384.91 131.49" />
        <path fill="none" stroke="#eeecea" stroke-linecap="round" stroke-linejoin="round" stroke-width="3"
            d="M409.27,306.36V286a14.83,14.83,0,0,0-14.83-14.83H350.29" />
        <path fill="none" stroke="#eeecea" stroke-linecap="round" stroke-linejoin="round" stroke-width="3"
            d="M409.27,306.36V286a14.83,14.83,0,0,0-14.83-14.83H350.29c0-.68-.05-1.36-.05-2.05A41.27,41.27,0,0,1,379,229.8V142.54h0a25.73,25.73,0,1,1,25.07,0h0V229.8a41.27,41.27,0,0,1,5.22,76.56" />
        <path fill="none" stroke="#eeecea" stroke-linecap="round" stroke-linejoin="round" stroke-width="3"
            d="M350.29,271.16a41.27,41.27,0,0,0,23.45,35.21V271.16" />
        <path fill="none" stroke="#eeecea" stroke-linecap="round" stroke-linejoin="round" stroke-width="3"
            d="M400.06,242.32H382.94A27.93,27.93,0,0,0,365.72,258h51.65A28,28,0,0,0,400.06,242.32Z" />
        <line x1="391.5" x2="391.5" y1="242.32" y2="258.03" fill="none" stroke="#eeecea" stroke-linecap="round"
            stroke-linejoin="round" stroke-width="3" />
        <line x1="404.78" x2="404.78" y1="244.31" y2="258.03" fill="none" stroke="#eeecea" stroke-linecap="round"
            stroke-linejoin="round" stroke-width="3" />
        <line x1="378.23" x2="378.23" y1="244.31" y2="258.03" fill="none" stroke="#eeecea" stroke-linecap="round"
            stroke-linejoin="round" stroke-width="3" />
        <polygon fill="none" stroke="#eeecea" stroke-linecap="round" stroke-linejoin="round" stroke-width="3"
            points="409.27 316.8 391.5 327.06 373.73 316.8 373.73 296.28 391.5 286.02 409.27 296.28 409.27 316.8" />
        <path fill="#eeecea" d="M394.33,307a3,3,0,1,1-3-3A3,3,0,0,1,394.33,307Z" />
        <path fill="none" stroke="#eeecea" stroke-linecap="round" stroke-linejoin="round" stroke-width="3"
            d="M573.72,302.53V291.08c-3.9,0-13.63-1.09-15-6.21h0a37.56,37.56,0,0,0-2-4.76h0c-2.68-4.56,3.43-12.21,6.19-15l-8.1-8.1c-2.76,2.76-10.41,8.87-15,6.19h0a37.51,37.51,0,0,0-4.76-2h0c-5.12-1.33-6.21-11.06-6.21-15H517.49c0,3.91-1.09,13.64-6.21,15h0a37.51,37.51,0,0,0-4.76,2h0c-4.57,2.68-12.21-3.43-15-6.19l-8.1,8.1c2.76,2.76,8.87,10.41,6.19,15a37.51,37.51,0,0,0-2,4.76h0c-1.33,5.12-11.06,6.21-15,6.21v11.45c3.91,0,13.64,1.09,15,6.21h0a39,39,0,0,0,2,4.76h0c2.68,4.56-3.43,12.21-6.19,15l8.1,8.1c2.76-2.76,10.4-8.88,15-6.2h0a36.1,36.1,0,0,0,4.76,2h0c5.12,1.34,6.21,11.07,6.21,15h11.45c0-3.9,1.09-13.63,6.21-15h0a37.51,37.51,0,0,0,4.76-2h0c4.56-2.68,12.21,3.44,15,6.2l8.1-8.1c-2.76-2.76-8.87-10.41-6.19-15h0a37.1,37.1,0,0,0,2-4.77h0C560.09,303.62,569.82,302.53,573.72,302.53Zm-50.51,8A13.69,13.69,0,1,1,536.9,296.8,13.69,13.69,0,0,1,523.21,310.49Z" />
        <polygon fill="none" stroke="#eeecea" stroke-linecap="round" stroke-linejoin="round" stroke-width="3"
            points="692.74 539.21 681.54 519.8 692.74 500.4 715.15 500.4 726.35 519.8 715.15 539.21 692.74 539.21" />
        <path fill="none" stroke="#eeecea" stroke-linecap="round" stroke-linejoin="round" stroke-width="3"
            d="M695,519.81a9,9,0,1,1,9,9A9,9,0,0,1,695,519.81Z" />
        <rect width="33.98" height="17.15" x="729.4" y="341.26" fill="none" stroke="#eeecea" stroke-linecap="round"
            stroke-linejoin="round" stroke-width="3" />
        <line x1="737.67" x2="737.67" y1="341.26" y2="358.41" fill="none" stroke="#eeecea" stroke-linecap="round"
            stroke-linejoin="round" stroke-width="3" />
        <line x1="755.11" x2="755.11" y1="341.26" y2="358.41" fill="none" stroke="#eeecea" stroke-linecap="round"
            stroke-linejoin="round" stroke-width="3" />
        <rect width="13.01" height="45.46" x="739.89" y="295.8" fill="none" stroke="#eeecea" stroke-linecap="round"
            stroke-linejoin="round" stroke-width="3" />
        <line x1="752.89" x2="739.89" y1="295.8" y2="308.81" fill="none" stroke="#eeecea" stroke-linecap="round"
            stroke-linejoin="round" stroke-width="3" />
        <line x1="752.89" x2="739.89" y1="307.37" y2="320.38" fill="none" stroke="#eeecea" stroke-linecap="round"
            stroke-linejoin="round" stroke-width="3" />
        <line x1="752.89" x2="739.89" y1="318.95" y2="331.95" fill="none" stroke="#eeecea" stroke-linecap="round"
            stroke-linejoin="round" stroke-width="3" />
        <line x1="752.89" x2="742.16" y1="330.52" y2="341.26" fill="none" stroke="#eeecea" stroke-linecap="round"
            stroke-linejoin="round" stroke-width="3" />
        <path fill="none" stroke="#eeecea" stroke-linecap="round" stroke-linejoin="round" stroke-width="3"
            d="M791,642.57v52.78c0,2.55,4.16,4.61,9.3,4.62s9.3-2.08,9.3-4.62V642.57Z" />
        <path fill="none" stroke="#eeecea" stroke-linecap="round" stroke-linejoin="round" stroke-width="3"
            d="M749.29,576.85a51,51,0,1,1,51,51A51,51,0,0,1,749.29,576.85Z" />
        <path fill="#fab870" d="M762.35,576.85a37.92,37.92,0,1,1,37.92,37.92A37.93,37.93,0,0,1,762.35,576.85Z" />
        <line x1="800.28" x2="800.27" y1="642.57" y2="627.83" fill="none" stroke="#eeecea" stroke-linecap="round"
            stroke-linejoin="round" stroke-width="3" />
        <line x1="790.98" x2="809.58" y1="690.31" y2="690.31" fill="none" stroke="#eeecea" stroke-linecap="round"
            stroke-linejoin="round" stroke-width="3" />
        <polygon fill="#fff"
            points="813.26 568.56 808.56 563.86 800.27 572.15 791.99 563.86 787.29 568.56 795.57 576.85 787.29 585.13 791.99 589.83 800.27 581.55 808.56 589.83 813.26 585.13 804.97 576.85 813.26 568.56" />
        <path fill="#fab870"
            d="M941.55,442.05l-15.41,15.42h6.18l15.41-15.42Zm38.66,0L964.8,457.47H971l15.41-15.42Zm-25.77,0L939,457.47h6.19l15.41-15.42Zm-25.77,0-15.42,15.42h6.18l15.42-15.42Zm-12.89,0-11.7,11.7v3.72h2.47L922,442.05Zm51.55,0-15.42,15.42h6.18l15.41-15.42Zm77.31,0-15.41,15.42h6.18l9.7-9.71v-5.71Zm-51.54,0-15.42,15.42h6.18l15.42-15.42Zm52,15.42v-3l-3,3Zm-13.35-15.42-15.42,15.42h6.18l15.42-15.42Zm-12.89,0-15.41,15.42h6.17l15.42-15.42Zm-12.89,0-15.41,15.42h6.18l15.41-15.42Z" />
        <rect width="141.03" height="15.41" x="904.08" y="442.05" fill="none" stroke="#eeecea" stroke-linecap="round"
            stroke-linejoin="round" stroke-width="3" />
        <polygon fill="none" stroke="#eeecea" stroke-linecap="round" stroke-linejoin="round" stroke-width="3"
            points="929.87 457.46 904.5 521.49 889.09 521.49 914.46 457.46 929.87 457.46" />
        <line x1="941.84" x2="929.87" y1="487.66" y2="457.47" fill="none" stroke="#eeecea" stroke-linecap="round"
            stroke-linejoin="round" stroke-width="3" />
        <polyline fill="none" stroke="#eeecea" stroke-linecap="round" stroke-linejoin="round" stroke-width="3"
            points="931.29 499.95 939.83 521.49 955.24 521.49 946.71 499.96" />
        <line x1="922.16" x2="926.42" y1="476.91" y2="487.66" fill="none" stroke="#eeecea" stroke-linecap="round"
            stroke-linejoin="round" stroke-width="3" />
        <polygon fill="none" stroke="#eeecea" stroke-linecap="round" stroke-linejoin="round" stroke-width="3"
            points="1034.74 457.46 1009.37 521.49 993.95 521.49 1019.33 457.46 1034.74 457.46" />
        <polyline fill="none" stroke="#eeecea" stroke-linecap="round" stroke-linejoin="round" stroke-width="3"
            points="1027.03 476.91 1044.69 521.49 1060.11 521.49 1034.74 457.46" />
        <circle cx="915.63" cy="427.22" r="7.01" fill="none" stroke="#eeecea" stroke-linecap="round"
            stroke-linejoin="round" stroke-width="3" />
        <line x1="915.63" x2="915.63" y1="434.23" y2="442.05" fill="none" stroke="#eeecea" stroke-linecap="round"
            stroke-linejoin="round" stroke-width="3" />
        <path fill="none" stroke="#eeecea" stroke-linecap="round" stroke-linejoin="round" stroke-width="3"
            d="M1040.57,427.22a7,7,0,1,0-7,7A7,7,0,0,0,1040.57,427.22Z" />
        <line x1="1033.56" x2="1033.56" y1="434.23" y2="442.05" fill="none" stroke="#eeecea" stroke-linecap="round"
            stroke-linejoin="round" stroke-width="3" />
        <line x1="1002.49" x2="913.03" y1="499.96" y2="499.96" fill="none" stroke="#eeecea" stroke-linecap="round"
            stroke-linejoin="round" stroke-width="3" />
        <line x1="1007.36" x2="917.9" y1="487.66" y2="487.66" fill="none" stroke="#eeecea" stroke-linecap="round"
            stroke-linejoin="round" stroke-width="3" />
        <path fill="#f59191"
            d="M1161.35,533c-13.16,0-30.07,11.08-43.93,11.08-8.8,0-12.48-2.08-17.75-2.08v21.07c5.27,0,8.95-2.08,17.75-2.08,13.86,0,30.77,11.09,43.93,11.09a19.54,19.54,0,1,0,0-39.08Z" />
        <polygon fill="none" stroke="#eeecea" stroke-linecap="round" stroke-linejoin="round" stroke-width="3"
            points="1008.48 547.84 1008.48 557.23 1032.04 561.41 1032.04 543.67 1008.48 547.84" />
        <line x1="1099.67" x2="1032.04" y1="552.54" y2="552.54" fill="none" stroke="#eeecea" stroke-linecap="round"
            stroke-linejoin="round" stroke-width="3" />
        <path fill="none" stroke="#eeecea" stroke-linecap="round" stroke-linejoin="round" stroke-width="3"
            d="M1161.35,533c-13.16,0-30.07,11.08-43.93,11.08-8.8,0-12.48-2.08-17.75-2.08v21.07c5.27,0,8.95-2.08,17.75-2.08,13.86,0,30.77,11.09,43.93,11.09a19.54,19.54,0,1,0,0-39.08Z" />
        <path fill="#eeecea" d="M1162.56,550a2.59,2.59,0,1,1-2.59,2.59A2.59,2.59,0,0,1,1162.56,550Z" />
        <path fill="#eeecea" d="M1152.48,550a2.59,2.59,0,1,1-2.59,2.59A2.59,2.59,0,0,1,1152.48,550Z" />
        <path fill="#eeecea" d="M1142.4,550a2.59,2.59,0,1,1-2.58,2.59A2.6,2.6,0,0,1,1142.4,550Z" />
        <line x1="1109.46" x2="1109.46" y1="561.63" y2="543.45" fill="none" stroke="#eeecea" stroke-linecap="round"
            stroke-linejoin="round" stroke-width="3" />
        <polygon fill="#f59191" points="821.28 99.53 808.96 94.39 839.25 81.94 851.57 87.08 821.28 99.53" />
        <polygon fill="#f59191" points="847.1 110.31 834.79 105.17 865.08 92.72 877.39 97.86 847.1 110.31" />
        <polygon fill="#f59191" points="872.92 121.08 860.61 115.95 890.9 103.5 903.21 108.64 872.92 121.08" />
        <polygon fill="#f59191" points="898.75 131.86 886.43 126.72 916.72 114.28 929.04 119.42 898.75 131.86" />
        <polygon fill="#f59191" points="924.57 142.64 912.25 137.5 942.54 125.05 954.86 130.19 924.57 142.64" />
        <polygon fill="#f59191" points="950.39 153.42 938.08 148.28 968.37 135.83 980.68 140.97 950.39 153.42" />
        <polygon fill="#f59191" points="976.21 164.2 963.9 159.06 994.19 146.61 1006.5 151.75 976.21 164.2" />
        <polygon fill="#f59191" points="1002.03 174.98 989.72 169.84 1020.01 157.39 1032.33 162.53 1002.03 174.98" />
        <polygon fill="#f59191" points="1027.86 185.76 1015.55 180.62 1045.84 168.17 1058.15 173.31 1027.86 185.76" />
        <polygon fill="#f59191" points="1053.68 196.54 1041.37 191.4 1071.66 178.95 1083.97 184.09 1053.68 196.54" />
        <polygon fill="#f59191" points="1079.51 207.32 1067.19 202.18 1097.48 189.73 1109.8 194.87 1079.51 207.32" />
        <polygon fill="#f59191" points="1105.33 218.1 1093.01 212.96 1123.31 200.51 1135.62 205.65 1105.33 218.1" />
        <polygon fill="#f59191" points="1131.15 228.88 1118.84 223.74 1149.13 211.29 1161.44 216.43 1131.15 228.88" />
        <line x1="827.03" x2="1163.29" y1="76.83" y2="217.2" fill="none" stroke="#eeecea" stroke-linecap="round"
            stroke-linejoin="round" stroke-width="3" />
        <line x1="803.59" x2="1146.38" y1="92.14" y2="235.24" fill="none" stroke="#eeecea" stroke-linecap="round"
            stroke-linejoin="round" stroke-width="3" />
        <polygon fill="#fab870" points="37.57 615.02 24.71 611.44 53.23 595.34 66.09 598.92 37.57 615.02" />
        <polygon fill="#fab870" points="64.53 622.53 51.67 618.95 80.19 602.85 93.04 606.43 64.53 622.53" />
        <polygon fill="#fab870" points="91.48 630.03 78.63 626.45 107.15 610.35 120 613.93 91.48 630.03" />
        <polygon fill="#fab870" points="118.44 637.53 105.58 633.96 134.1 617.86 146.96 621.44 118.44 637.53" />
        <polygon fill="#fab870" points="145.4 645.04 132.54 641.46 161.06 625.36 173.91 628.94 145.4 645.04" />
        <polygon fill="#fab870" points="172.35 652.55 159.5 648.97 188.02 632.87 200.87 636.45 172.35 652.55" />
        <polygon fill="#fab870" points="199.31 660.05 186.46 656.47 214.98 640.38 227.83 643.95 199.31 660.05" />
        <polygon fill="#fab870" points="226.27 667.55 213.41 663.98 241.93 647.88 254.79 651.46 226.27 667.55" />
        <polygon fill="#fab870" points="253.22 675.06 240.37 671.48 268.89 655.38 281.74 658.96 253.22 675.06" />
        <polygon fill="#fab870" points="280.18 682.56 267.33 678.99 295.85 662.89 308.7 666.47 280.18 682.56" />
        <polygon fill="#fab870" points="307.14 690.07 294.29 686.49 322.81 670.39 335.66 673.97 307.14 690.07" />
        <polygon fill="#fab870" points="334.1 697.58 321.24 694 349.76 677.9 362.62 681.48 334.1 697.58" />
        <polygon fill="#fab870" points="361.05 705.08 348.2 701.5 376.72 685.4 389.57 688.98 361.05 705.08" />
        <line x1="40.47" x2="391.5" y1="591.79" y2="689.52" fill="none" stroke="#eeecea" stroke-linecap="round"
            stroke-linejoin="round" stroke-width="3" />
        <line x1="19.11" x2="376.96" y1="609.88" y2="709.51" fill="none" stroke="#eeecea" stroke-linecap="round"
            stroke-linejoin="round" stroke-width="3" />
        <polygon fill="#fab870" points="227.19 445.73 185.97 445.73 189 431.96 224.15 431.96 227.19 445.73" />
        <polygon fill="#fab870" points="232.99 472.06 180.17 472.06 177.35 485.83 235.81 485.83 232.99 472.06" />
        <polyline fill="none" stroke="#eeecea" stroke-linecap="round" stroke-linejoin="round" stroke-width="3"
            points="242.52 515.36 217.18 400.32 195.97 400.32 170.63 515.36" />
        <polygon fill="none" stroke="#eeecea" stroke-linecap="round" stroke-linejoin="round" stroke-width="3"
            points="258.2 523.5 255.06 515.36 158.09 515.36 154.95 523.5 258.2 523.5" />
        <line x1="133.28" x2="117.62" y1="523.49" y2="523.49" fill="none" stroke="#eeecea" stroke-linecap="round"
            stroke-linejoin="round" stroke-width="3" />
        <line x1="139.63" x2="128.56" y1="538.82" y2="549.89" fill="none" stroke="#eeecea" stroke-linecap="round"
            stroke-linejoin="round" stroke-width="3" />
        <line x1="154.95" x2="154.95" y1="545.17" y2="560.83" fill="none" stroke="#eeecea" stroke-linecap="round"
            stroke-linejoin="round" stroke-width="3" />
        <path fill="#b8d1cd"
            d="M249,332c-1.79,0-2.53-1.28-1.63-2.83L265,298.68c.9-1.56,2.37-1.56,3.27,0l17.61,30.51c.9,1.55.17,2.83-1.63,2.83Z" />
        <line x1="473.99" x2="473.99" y1="526.35" y2="571.74" fill="none" stroke="#fff" stroke-linecap="round"
            stroke-linejoin="round" stroke-width="3" />
        <line x1="473.99" x2="473.99" y1="589.93" y2="584.06" fill="none" stroke="#fff" stroke-linecap="round"
            stroke-linejoin="round" stroke-width="3" />
        <path fill="none" stroke="#eeecea" stroke-linecap="round" stroke-linejoin="round" stroke-width="3"
            d="M716.45,205.51c0-11.12,1.85-21,9.16-28.36h0a41.64,41.64,0,1,0-58.85,0h0c7.31,7.31,9.15,17.24,9.15,28.36Z" />
        <line x1="720.48" x2="671.86" y1="205.51" y2="205.51" fill="none" stroke="#eeecea" stroke-linecap="round"
            stroke-linejoin="round" stroke-width="3" />
        <line x1="720.49" x2="671.86" y1="214.74" y2="214.74" fill="none" stroke="#eeecea" stroke-linecap="round"
            stroke-linejoin="round" stroke-width="3" />
        <line x1="720.48" x2="671.86" y1="223.96" y2="223.96" fill="none" stroke="#eeecea" stroke-linecap="round"
            stroke-linejoin="round" stroke-width="3" />
        <line x1="675.89" x2="675.89" y1="223.96" y2="205.51" fill="none" stroke="#eeecea" stroke-linecap="round"
            stroke-linejoin="round" stroke-width="3" />
        <line x1="716.45" x2="716.45" y1="223.96" y2="205.51" fill="none" stroke="#eeecea" stroke-linecap="round"
            stroke-linejoin="round" stroke-width="3" />
        <line x1="689.29" x2="689.29" y1="177.47" y2="205.51" fill="none" stroke="#eeecea" stroke-linecap="round"
            stroke-linejoin="round" stroke-width="3" />
        <line x1="689.29" x2="674.68" y1="177.47" y2="162.86" fill="none" stroke="#eeecea" stroke-linecap="round"
            stroke-linejoin="round" stroke-width="3" />
        <line x1="702.6" x2="702.6" y1="177.47" y2="205.51" fill="none" stroke="#eeecea" stroke-linecap="round"
            stroke-linejoin="round" stroke-width="3" />
        <line x1="702.6" x2="717.2" y1="177.47" y2="162.86" fill="none" stroke="#eeecea" stroke-linecap="round"
            stroke-linejoin="round" stroke-width="3" />
        <polyline fill="none" stroke="#eeecea" stroke-linecap="round" stroke-linejoin="round" stroke-width="3"
            points="678.76 158.47 684.52 152.72 690.28 158.47 696.03 152.72 701.79 158.47 707.55 152.72 713.3 158.47" />
        <line x1="676.82" x2="715.52" y1="233.19" y2="233.19" fill="none" stroke="#eeecea" stroke-linecap="round"
            stroke-linejoin="round" stroke-width="3" />
        <line x1="696.18" x2="696.18" y1="93.13" y2="84.13" fill="none" stroke="#eeecea" stroke-linecap="round"
            stroke-linejoin="round" stroke-width="3" />
        <line x1="734.77" x2="741.14" y1="109.12" y2="102.75" fill="none" stroke="#eeecea" stroke-linecap="round"
            stroke-linejoin="round" stroke-width="3" />
        <line x1="750.75" x2="759.76" y1="147.71" y2="147.71" fill="none" stroke="#eeecea" stroke-linecap="round"
            stroke-linejoin="round" stroke-width="3" />
        <line x1="734.77" x2="741.14" y1="186.31" y2="192.67" fill="none" stroke="#eeecea" stroke-linecap="round"
            stroke-linejoin="round" stroke-width="3" />
        <line x1="657.58" x2="651.21" y1="109.12" y2="102.75" fill="none" stroke="#eeecea" stroke-linecap="round"
            stroke-linejoin="round" stroke-width="3" />
        <line x1="641.6" x2="632.59" y1="147.71" y2="147.71" fill="none" stroke="#eeecea" stroke-linecap="round"
            stroke-linejoin="round" stroke-width="3" />
        <line x1="657.58" x2="651.21" y1="186.31" y2="192.67" fill="none" stroke="#eeecea" stroke-linecap="round"
            stroke-linejoin="round" stroke-width="3" />
        <path fill="none" stroke="#eeecea" stroke-linecap="round" stroke-linejoin="round" stroke-width="3"
            d="M521.55,693.77a4.56,4.56,0,0,0,4.57,4.57h41.61a4.56,4.56,0,1,0,0-9.12H526.12A4.56,4.56,0,0,0,521.55,693.77Z" />
        <line x1="536.29" x2="536.29" y1="698.34" y2="715.22" fill="none" stroke="#eeecea" stroke-linecap="round"
            stroke-linejoin="round" stroke-width="3" />
        <line x1="557.65" x2="557.65" y1="698.34" y2="715.22" fill="none" stroke="#eeecea" stroke-linecap="round"
            stroke-linejoin="round" stroke-width="3" />
        <line x1="530.98" x2="530.98" y1="689.22" y2="667.65" fill="none" stroke="#eeecea" stroke-linecap="round"
            stroke-linejoin="round" stroke-width="3" />
        <line x1="562.96" x2="562.96" y1="689.22" y2="667.65" fill="none" stroke="#eeecea" stroke-linecap="round"
            stroke-linejoin="round" stroke-width="3" />
        <path fill="none" stroke="#eeecea" stroke-linecap="round" stroke-linejoin="round" stroke-width="3"
            d="M563,667.65a6.25,6.25,0,0,0-6.25-6.25H537.23a6.25,6.25,0,0,0-6.25,6.25" />
        <line x1="541.94" x2="551.99" y1="636.84" y2="636.84" fill="none" stroke="#eeecea" stroke-linecap="round"
            stroke-linejoin="round" stroke-width="3" />
        <line x1="541.94" x2="551.99" y1="644.88" y2="644.88" fill="none" stroke="#eeecea" stroke-linecap="round"
            stroke-linejoin="round" stroke-width="3" />
        <line x1="541.94" x2="551.99" y1="653.35" y2="653.35" fill="none" stroke="#eeecea" stroke-linecap="round"
            stroke-linejoin="round" stroke-width="3" />
        <circle cx="554.41" cy="682.15" r="1.93" fill="#eeecea" />
        <circle cx="539.53" cy="682.15" r="1.93" fill="#eeecea" />
        <path fill="none" stroke="#eeecea" stroke-linecap="round" stroke-linejoin="round" stroke-width="3"
            d="M591.76,537v45.57A14.51,14.51,0,0,1,577.25,597l-4.51,4.5" />
        <path fill="none" stroke="#eeecea" stroke-linecap="round" stroke-linejoin="round" stroke-width="3"
            d="M547,636.84v-25.3A14.51,14.51,0,0,1,561.48,597l4.77-4.77" />
        <path fill="none" stroke="#b8d1cd" stroke-linecap="round" stroke-width="3"
            d="M197,584.71a12.08,12.08,0,0,0,17.07,0,12.09,12.09,0,0,1,17.08,0,12.07,12.07,0,0,0,17.06,0,12.08,12.08,0,0,1,17.07,0" />
        <path fill="none" stroke="#f59191" stroke-linecap="round" stroke-width="3"
            d="M108.54,691.92a12.06,12.06,0,0,0,17.07,0,12.1,12.1,0,0,1,17.07,0,12,12,0,0,0,17.06,0,12.1,12.1,0,0,1,17.07,0" />
        <line x1="821.12" x2="807.63" y1="241.66" y2="241.66" fill="none" stroke="#fab870" stroke-linecap="round"
            stroke-width="3" />
        <line x1="782.43" x2="738.78" y1="241.66" y2="241.66" fill="none" stroke="#fab870" stroke-linecap="round"
            stroke-width="3" />
        <line x1="1094.53" x2="1081.03" y1="333.72" y2="333.72" fill="none" stroke="#fab870" stroke-linecap="round"
            stroke-width="3" />
        <line x1="1055.84" x2="984.22" y1="333.72" y2="333.72" fill="none" stroke="#fab870" stroke-linecap="round"
            stroke-width="3" />
        <line x1="297.86" x2="215.52" y1="256.53" y2="256.53" fill="none" stroke="#fab870" stroke-linecap="round"
            stroke-width="3" />
        <line x1="1068.71" x2="1055.21" y1="634.77" y2="634.77" fill="none" stroke="#b8d1cd" stroke-linecap="round"
            stroke-width="3" />
        <line x1="1030.02" x2="965.78" y1="634.77" y2="634.77" fill="none" stroke="#b8d1cd" stroke-linecap="round"
            stroke-width="3" />
        <line x1="996.26" x2="886.62" y1="609.04" y2="609.04" fill="none" stroke="#f59191" stroke-linecap="round"
            stroke-width="3" />
        <line x1="215.71" x2="168.11" y1="359.45" y2="359.45" fill="none" stroke="#b8d1cd" stroke-linecap="round"
            stroke-width="3" />
        <line x1="174.54" x2="150.1" y1="379.57" y2="379.57" fill="none" stroke="#f59191" stroke-linecap="round"
            stroke-width="3" />
        <line x1="1134.26" x2="1120.77" y1="112.99" y2="112.99" fill="#fab870" stroke="#fab870" stroke-linecap="round"
            stroke-width="3" />
        <line x1="1095.57" x2="1006.55" y1="112.99" y2="112.99" fill="#fab870" stroke="#fab870" stroke-linecap="round"
            stroke-width="3" />
        <line x1="1159.86" x2="1068.6" y1="85.55" y2="85.55" fill="none" stroke="#b8d1cd" stroke-linecap="round"
            stroke-width="3" />
        <line x1="743.9" x2="681.22" y1="262.34" y2="262.34" fill="none" stroke="#b8d1cd" stroke-linecap="round"
            stroke-width="3" />
        <line x1="755.97" x2="717.24" y1="660.85" y2="660.85" fill="none" stroke="#b8d1cd" stroke-linecap="round"
            stroke-width="3" />
        <line x1="294.27" x2="243.49" y1="562.72" y2="562.72" fill="none" stroke="#fab870" stroke-linecap="round"
            stroke-width="3" />
        <line x1="578.41" x2="485.17" y1="158.75" y2="158.75" fill="none" stroke="#fab870" stroke-linecap="round"
            stroke-width="3" />
        <line x1="740.26" x2="647.02" y1="639.63" y2="639.63" fill="none" stroke="#fab870" stroke-linecap="round"
            stroke-width="3" />
        <line x1="510.79" x2="450.96" y1="181.81" y2="181.81" fill="none" stroke="#f59191" stroke-linecap="round"
            stroke-width="3" />
        <line x1="246.63" x2="239.32" y1="224.47" y2="224.47" fill="none" stroke="#b8d1cd" stroke-linecap="round"
            stroke-width="3" />
        <line x1="225.66" x2="178.17" y1="224.47" y2="224.47" fill="none" stroke="#b8d1cd" stroke-linecap="round"
            stroke-width="3" />
        <path fill="none" stroke="#f59191" stroke-linecap="round" stroke-linejoin="round" stroke-width="3"
            d="M979,399.57a15.31,15.31,0,0,0-15.3-15.31A15.3,15.3,0,0,0,979,369a15.31,15.31,0,0,0,15.31,15.3A15.32,15.32,0,0,0,979,399.57Z" />
        <path fill="none" stroke="#f59191" stroke-linecap="round" stroke-linejoin="round" stroke-width="3"
            d="M446,673.37a15.3,15.3,0,0,0-15.31-15.31A15.3,15.3,0,0,0,446,642.75a15.3,15.3,0,0,0,15.3,15.31A15.3,15.3,0,0,0,446,673.37Z" />
        <line x1="697.33" x2="697.33" y1="282.7" y2="288.38" fill="none" stroke="#f59191" stroke-linecap="round"
            stroke-linejoin="round" stroke-width="3" />
        <line x1="691.75" x2="686.07" y1="293.96" y2="293.96" fill="none" stroke="#f59191" stroke-linecap="round"
            stroke-linejoin="round" stroke-width="3" />
        <line x1="697.33" x2="697.33" y1="305.21" y2="299.53" fill="none" stroke="#f59191" stroke-linecap="round"
            stroke-linejoin="round" stroke-width="3" />
        <line x1="702.9" x2="708.58" y1="293.96" y2="293.96" fill="none" stroke="#f59191" stroke-linecap="round"
            stroke-linejoin="round" stroke-width="3" />
        <line x1="822.98" x2="822.98" y1="174.19" y2="179.88" fill="none" stroke="#b8d1cd" stroke-linecap="round"
            stroke-linejoin="round" stroke-width="3" />
        <line x1="817.41" x2="811.73" y1="185.45" y2="185.45" fill="none" stroke="#b8d1cd" stroke-linecap="round"
            stroke-linejoin="round" stroke-width="3" />
        <line x1="822.98" x2="822.98" y1="196.71" y2="191.02" fill="none" stroke="#b8d1cd" stroke-linecap="round"
            stroke-linejoin="round" stroke-width="3" />
        <line x1="828.56" x2="834.24" y1="185.45" y2="185.45" fill="none" stroke="#b8d1cd" stroke-linecap="round"
            stroke-linejoin="round" stroke-width="3" />
        <line x1="625.93" x2="625.93" y1="726.53" y2="732.22" fill="none" stroke="#f59191" stroke-linecap="round"
            stroke-linejoin="round" stroke-width="3" />
        <line x1="620.35" x2="614.67" y1="737.79" y2="737.79" fill="none" stroke="#f59191" stroke-linecap="round"
            stroke-linejoin="round" stroke-width="3" />
        <line x1="625.93" x2="625.93" y1="749.05" y2="743.37" fill="none" stroke="#f59191" stroke-linecap="round"
            stroke-linejoin="round" stroke-width="3" />
        <line x1="631.5" x2="637.18" y1="737.79" y2="737.79" fill="none" stroke="#f59191" stroke-linecap="round"
            stroke-linejoin="round" stroke-width="3" />
        <line x1="970.16" x2="970.16" y1="651.44" y2="657.12" fill="none" stroke="#fab870" stroke-linecap="round"
            stroke-linejoin="round" stroke-width="3" />
        <line x1="964.58" x2="958.9" y1="662.7" y2="662.7" fill="none" stroke="#fab870" stroke-linecap="round"
            stroke-linejoin="round" stroke-width="3" />
        <line x1="970.16" x2="970.16" y1="673.95" y2="668.27" fill="none" stroke="#fab870" stroke-linecap="round"
            stroke-linejoin="round" stroke-width="3" />
        <line x1="975.74" x2="981.42" y1="662.7" y2="662.7" fill="none" stroke="#fab870" stroke-linecap="round"
            stroke-linejoin="round" stroke-width="3" />
        <line x1="885.5" x2="885.5" y1="542.48" y2="548.16" fill="none" stroke="#b8d1cd" stroke-linecap="round"
            stroke-linejoin="round" stroke-width="3" />
        <line x1="879.92" x2="874.24" y1="553.73" y2="553.73" fill="none" stroke="#b8d1cd" stroke-linecap="round"
            stroke-linejoin="round" stroke-width="3" />
        <line x1="885.5" x2="885.5" y1="564.99" y2="559.31" fill="none" stroke="#b8d1cd" stroke-linecap="round"
            stroke-linejoin="round" stroke-width="3" />
        <line x1="891.07" x2="896.76" y1="553.73" y2="553.73" fill="none" stroke="#b8d1cd" stroke-linecap="round"
            stroke-linejoin="round" stroke-width="3" />
        <path fill="none" stroke="#b8d1cd" stroke-linecap="round" stroke-width="3"
            d="M863.81,276.46a7.91,7.91,0,0,0,11.22,0,8,8,0,0,1,11.22,0" />
        <circle cx="294.21" cy="230.79" r="9.35" fill="none" stroke="#b8d1cd" stroke-linecap="round"
            stroke-linejoin="round" stroke-width="3" />
        <polyline fill="none" stroke="#b8d1cd" stroke-linecap="round" stroke-linejoin="round" stroke-width="3"
            points="454 50.95 442.43 62.53 454 74.11 442.43 85.69 454 97.27 442.43 108.85 454 120.43 442.43 132 454 143.58 442.43 155.16" />
        <polyline fill="none" stroke="#f59191" stroke-linecap="round" stroke-linejoin="round" stroke-width="3"
            points="1018.03 305.84 1029.61 294.26 1018.03 282.69 1029.61 271.11 1018.03 259.53 1029.61 247.95 1018.03 236.37 1029.61 224.79" />
        <polyline fill="none" stroke="#b8d1cd" stroke-linecap="round" stroke-linejoin="round" stroke-width="3"
            points="73.83 476.14 62.25 487.72 73.83 499.3 62.25 510.88 73.83 522.46 62.25 534.04" />
    </g>
</svg>