<svg xmlns="http://www.w3.org/2000/svg" xmlns:xlink="http://www.w3.org/1999/xlink" viewBox="0 0 508.2052 541.096">
    <defs>
        <style>
            .cls-1,
            .cls-30,
            .cls-31 {
                fill: #fff;
            }

            .cls-10,
            .cls-11,
            .cls-13,
            .cls-18,
            .cls-19,
            .cls-2,
            .cls-20,
            .cls-21,
            .cls-22,
            .cls-23,
            .cls-24,
            .cls-26,
            .cls-28,
            .cls-29,
            .cls-7,
            .cls-9 {
                fill: none;
            }

            .cls-3 {
                clip-path: url(#clip-path);
            }

            .cls-4 {
                fill: #fce7d9;
            }

            .cls-5 {
                clip-path: url(#clip-path-2);
            }

            .cls-6 {
                fill: #b3f4ff;
            }

            .cls-13,
            .cls-19,
            .cls-21,
            .cls-22,
            .cls-23,
            .cls-28,
            .cls-29,
            .cls-7,
            .cls-9 {
                stroke: #472a1c;
            }

            .cls-10,
            .cls-11,
            .cls-13,
            .cls-18,
            .cls-19,
            .cls-20,
            .cls-21,
            .cls-22,
            .cls-23,
            .cls-24,
            .cls-26,
            .cls-28,
            .cls-29,
            .cls-7,
            .cls-9 {
                stroke-linecap: round;
                stroke-linejoin: round;
            }

            .cls-7 {
                stroke-width: 1.3235px;
            }

            .cls-8 {
                clip-path: url(#clip-path-3);
            }

            .cls-9 {
                stroke-width: 1.6607px;
            }

            .cls-10 {
                stroke: #2d1a14;
                stroke-width: 1.9448px;
            }

            .cls-11 {
                stroke: #8c7df9;
                stroke-width: 11.1054px;
            }

            .cls-12 {
                fill: #8c7df9;
            }

            .cls-13 {
                stroke-width: 1.6167px;
            }

            .cls-14 {
                fill: #a83522;
            }

            .cls-15 {
                fill: #ffb730;
            }

            .cls-16 {
                fill: #00d3cd;
            }

            .cls-17 {
                fill: #2d1a14;
            }

            .cls-18 {
                stroke: #1d0e21;
                stroke-width: 0.3266px;
            }

            .cls-19 {
                stroke-width: 1.7807px;
            }

            .cls-20,
            .cls-24,
            .cls-26 {
                stroke: #fff;
            }

            .cls-20 {
                stroke-width: 1.4463px;
            }

            .cls-21,
            .cls-24 {
                stroke-width: 1.2266px;
            }

            .cls-22,
            .cls-23 {
                stroke-width: 1.5584px;
            }

            .cls-23 {
                stroke-dasharray: 7.2759 7.2759;
            }

            .cls-25 {
                fill: #ff8ad5;
            }

            .cls-26 {
                stroke-width: 2.4531px;
            }

            .cls-27 {
                fill: #42cccc;
            }

            .cls-28 {
                stroke-width: 1.488px;
            }

            .cls-29 {
                stroke-width: 1.5475px;
            }

            .cls-30 {
                font-size: 57.534px;
            }

            .cls-30,
            .cls-31 {
                font-family: Montserrat-Black, Montserrat Black;
                font-weight: 800;
            }

            .cls-31 {
                font-size: 82.5482px;
            }
        </style>
        <clipPath id="clip-path" transform="translate(4.3802 4.5886)">
            <rect class="cls-1" width="500" height="500" />
        </clipPath>
        <clipPath id="clip-path-2" transform="translate(4.3802 4.5886)">
            <rect class="cls-2" x="276.7703" y="360.069" width="173.4635" height="104.2269" />
        </clipPath>
        <clipPath id="clip-path-3" transform="translate(4.3802 4.5886)">
            <rect class="cls-2" x="76.4957" y="332.2625" width="217.6581" height="130.7815" />
        </clipPath>
    </defs>
    <title>Success Illustration</title>
    <g id="OBJECTS">
        <path class="cls-4"
            d="M398.002,75.16a63.232,63.232,0,0,1,8.4538,2.7621c20.2764,8.2082,36.3256,22.7612,44.6573,43.0754,4.3715,10.6586,6.0762,24.1156-1.605,32.7012-5.8264,6.5125-15.6263,8.2063-24.1889,6.4627s-16.2157-6.3757-23.6739-10.9293c18.7974,13.5952,31.5788,34.2765,39.24,56.1733,5.7054,16.3061,8.8175,33.891,5.9682,50.93s-12.25,33.4684-27.1564,42.2007c-13.6723,8.01-30.7179,8.8837-46.0692,4.9566s-29.2272-12.2753-41.8985-21.79c-18.1279-13.6116-34.4525-30.048-45.67-49.7473-23.064-40.5025-22.1342-111.3543,39.5555-112.5514,16.88-.3275,33.3673,5.325,48.4806,12.85-1.5926-4.4759-6.605-7.398-8.1977-11.8739-3.0307-8.5171-6.1059-17.5521-4.3428-26.4231C365.4482,74.3739,381.9781,71.1808,398.002,75.16Z"
            transform="translate(4.3802 4.5886)" />
        <g class="cls-5">
            <circle class="cls-6" cx="364.1728" cy="446.3257" r="55.7726"
                transform="translate(-204.556 392.8234) rotate(-45)" />
            <circle class="cls-1" cx="364.1727" cy="446.3257" r="24.1439"
                transform="translate(-204.556 392.8234) rotate(-45)" />
            <rect class="cls-6" x="357.7443" y="372.6598" width="22.4819" height="38.9111" />
            <rect class="cls-6" x="355.9203" y="488.9472" width="22.482" height="38.9111" />
            <rect class="cls-6" x="410.5959" y="427.1269" width="22.4818" height="38.9111"
                transform="translate(872.7994 29.3342) rotate(90)" />
            <rect class="cls-6" x="294.3084" y="425.3029" width="22.482" height="38.911"
                transform="translate(754.688 143.7976) rotate(90)" />
            <rect class="cls-6" x="392.921" y="467.9736" width="22.482" height="38.9111"
                transform="translate(1038.9924 550.8964) rotate(135)" />
            <rect class="cls-6" x="311.9832" y="384.4562" width="22.4819" height="38.9111"
                transform="translate(841.767 465.5567) rotate(135.0002)" />
            <rect class="cls-6" x="310.6934" y="466.6838" width="22.4819" height="38.9111"
                transform="translate(210.202 1062.122) rotate(-134.9998)" />
            <rect class="cls-6" x="394.2108" y="385.746" width="22.482" height="38.911"
                transform="translate(410.0108 983.0085) rotate(-135.0002)" />
            <circle class="cls-7" cx="368.553" cy="450.9143" r="42.3665" />
        </g>
        <g class="cls-8">
            <circle class="cls-6" cx="186.4075" cy="440.2455" r="69.9821"
                transform="translate(-252.3229 265.3436) rotate(-45)" />
            <circle class="cls-1" cx="186.4076" cy="440.2455" r="30.2952"
                transform="translate(-252.3229 265.3436) rotate(-45)" />
            <rect class="cls-6" x="148.0293" y="346.1586" width="28.2098" height="48.8248"
                transform="translate(-110.6822 80.5881) rotate(-19.6288)" />
            <rect class="cls-6" x="194.8898" y="484.363" width="28.2099" height="48.8248"
                transform="translate(-154.3837 104.3593) rotate(-19.6286)" />
            <rect class="cls-6" x="240.5619" y="391.8305" width="28.2097" height="48.8248"
                transform="translate(565.5531 41.1378) rotate(70.3713)" />
            <rect class="cls-6" x="102.3573" y="438.6911" width="28.2099" height="48.8247"
                transform="translate(517.9119 202.4298) rotate(70.3712)" />
            <rect class="cls-6" x="236.8899" y="447.5558" width="28.2099" height="48.8247"
                transform="translate(789.3688 452.0009) rotate(115.3714)" />
            <rect class="cls-6" x="106.0292" y="382.9659" width="28.2098" height="48.8248"
                transform="translate(544.0761 477.9758) rotate(115.3715)" />
            <rect class="cls-6" x="139.1646" y="480.6912" width="28.2098" height="48.8248"
                transform="translate(79.7071 1031.7517) rotate(-154.6286)" />
            <rect class="cls-6" x="203.7545" y="349.8305" width="28.2099" height="48.8248"
                transform="translate(258.7304 810.3275) rotate(-154.6287)" />
            <circle class="cls-9" cx="186.4076" cy="440.2455" r="53.1604"
                transform="translate(-286.9355 426.2771) rotate(-64.8268)" />
        </g>
        <path class="cls-10" d="M69.672,464.2959c116.9075-.0037,279.72-.0072,396.8048-.0028"
            transform="translate(4.3802 4.5886)" />
        <line class="cls-11" x1="166.8842" y1="153.2361" x2="220.4512" y2="153.2361" />
        <line class="cls-11" x1="171.457" y1="207.4564" x2="225.024" y2="207.4564" />
        <line class="cls-11" x1="180.6026" y1="252.531" x2="234.1696" y2="252.531" />
        <line class="cls-11" x1="189.7482" y1="297.6056" x2="243.3152" y2="297.6056" />
        <path class="cls-12"
            d="M265.71,475.6027a6.86,6.86,0,0,1-6.7813-5.8915L207.9742,112.38a6.859,6.859,0,1,1,13.5806-1.9368l50.9539,357.3308a6.8648,6.8648,0,0,1-6.7992,7.8283Z"
            transform="translate(4.3802 4.5886)" />
        <line class="cls-13" x1="219.1447" y1="119.2669" x2="267.4856" y2="464.1859" />
        <line class="cls-11" x1="193.0145" y1="342.6803" x2="246.5814" y2="342.6803" />
        <line class="cls-11" x1="199.547" y1="387.7549" x2="253.114" y2="387.7549" />
        <line class="cls-11" x1="206.6963" y1="438.8644" x2="265.4097" y2="438.8644" />
        <path class="cls-11" d="M197.78,428.8942" transform="translate(4.3802 4.5886)" />
        <path class="cls-14"
            d="M255.6155,170.9257l-43.2211,19.3161,7.3532.1733-47.5855-21.0043c-1.861-.9109-5.575,1.3007-6.486,3.1616-.829,1.694-.5331,2.8475.9783,3.8824l46.5674,32.6059a6.6214,6.6214,0,0,0,6.4961.5669l.8572-.3935,44.423-20.3371a10.15,10.15,0,0,0-8.45-18.4582A10.5,10.5,0,0,0,255.6155,170.9257Z"
            transform="translate(4.3802 4.5886)" />
        <path class="cls-15"
            d="M270.002,175.6093a10.15,10.15,0,0,0-13.4541-5.0039,10.5108,10.5108,0,0,0-.9324.4868l-19.1,7.5329a196.4726,196.4726,0,0,0,6.1174,20.6773l22.3649-10.2388A10.15,10.15,0,0,0,270.002,175.6093Z"
            transform="translate(4.3802 4.5886)" />
        <path class="cls-14"
            d="M156.4105,174.5823c.0793-1.5,6.5391-.9111,6.5391-.9111s-8.3528-1.3068-8.4917-2.4435c-.22-1.7952,9.2483-.1572,9.2483-.1572s-10.2531-2.0489-9.5678-3.9375,10.5671,1.31,10.5671,1.31-9.0914-3.5947-8.2309-5.1127,12.3956,3.58,12.3956,3.58-2.7618-5.7864-1.6108-6.469c1.5269-.9054,5.7995,6.3357,7.5565,9.4731a6.9465,6.9465,0,0,1,.87,2.9423l.0324.49a4.7949,4.7949,0,0,1-5.7036,5.0219C164.2077,177.2352,156.36,175.528,156.4105,174.5823Z"
            transform="translate(4.3802 4.5886)" />
        <path class="cls-14"
            d="M303.2081,181.69a11.19,11.19,0,0,0,15.8-1.1285l.16-.1817v-.0039l35.5583-41.02.834-.9636a8.2894,8.2894,0,0,0,1.8955-6.7586l-.5706-3.3948L353.85,110.25,348.0982,76.167a3.7274,3.7274,0,0,0-.3849-1.1317,3.7842,3.7842,0,0,0-7.1173,1.3888l-.0087.0875-2.5442,25.7847-1.5494,15.6845-.9168,9.27-4.5431,5.24-9.9361,11.4634-17.0695,19.6928h-.0039l-1.4436,1.6706-.4972.5725A11.2011,11.2011,0,0,0,303.2081,181.69Z"
            transform="translate(4.3802 4.5886)" />
        <path class="cls-15"
            d="M317.6946,148.0471l-13.6664,15.7666h-.0039l-1.4436,1.67-.4971.5726a11.1993,11.1993,0,1,0,16.9247,14.6715l.16-.1816v-.0039l8.8182-10.1729C324.193,163.1109,320.8605,155.62,317.6946,148.0471Z"
            transform="translate(4.3802 4.5886)" />
        <path class="cls-14"
            d="M284.7611,150.005a35.4233,35.4233,0,0,0,5.4464,15.9926c-.9643,1.713-2.951,2.4564-4.8539,3.0693s-3.9446.316-5.947.3769c-3.6271.11-6.3266.9657-7.5482-1.3712.4792-.7706,1.5864-5.0581,2.1384-6.822.9457-3.0225-.5459-6.4021-2.3837-9.0133A96.5566,96.5566,0,0,0,284.7611,150.005Z"
            transform="translate(4.3802 4.5886)" />
        <path class="cls-15"
            d="M249.48,191.61l5.219,11.5143,9.25,29.2184h46.9463l8.0964-49.8892a16.4345,16.4345,0,0,0,.1773-1.9065l0-.0039a16.25,16.25,0,0,0-15.1407-16.7291h-.0039a15.0381,15.0381,0,0,0-1.7446-.0133c-.1155.0032-.2267.01-.3419.0172-.163.0111-.3263.0215-.4893.0361-.1829.0186-.3622.0371-.545.06l-9.0514,1.1439-2.16.2736L272.23,167.544l-2.1483.27-5.7848.7314-2.0689.2626c-.3182.0413-.6364.0907-.9432.1519h-.0078a16.2358,16.2358,0,0,0-12.5727,20.5894A16.6585,16.6585,0,0,0,249.48,191.61Z"
            transform="translate(4.3802 4.5886)" />
        <path class="cls-16" d="M304.4747,163.7257" transform="translate(4.3802 4.5886)" />
        <path class="cls-14"
            d="M342.3687,60.5535c-1.2548.1916-.2222,5.5739-.2222,5.5739s-1.7934-6.9143-2.7609-6.9365c-1.5275-.0354.6373,7.789.6373,7.789s-2.5758-8.45-4.1066-7.7171,1.98,8.7759,1.98,8.7759-3.7787-7.3449-4.9835-6.4951,4.041,10.1244,4.041,10.1244-5.0947-1.841-5.5729-.8164c-.8068,1.7287,9.8368,6.0956,9.8368,6.0956l6.9241-.2281S343.6234,60.3619,342.3687,60.5535Z"
            transform="translate(4.3802 4.5886)" />
        <path class="cls-14"
            d="M275.0394,157.2121h0a8.47,8.47,0,0,0,10.1612-6.4949l1.68-8.33a8.76,8.76,0,0,0-6.8-10.1642h0a8.4693,8.4693,0,0,0-10.1611,6.4949l-1.6806,8.33A8.7606,8.7606,0,0,0,275.0394,157.2121Z"
            transform="translate(4.3802 4.5886)" />
        <path class="cls-17"
            d="M281.321,132.5994c2.2252,3.1853,2.5438,7.2707,1.1184,11.7984a1.55,1.55,0,0,1-2.2522.9163c-3.5823-2.2551-7.6228-1.6089-11.4885-.5441l-.46,2.278a8.76,8.76,0,0,0,6.8,10.164,8.47,8.47,0,0,0,10.1614-6.4948l1.68-8.33A8.7308,8.7308,0,0,0,281.321,132.5994Z"
            transform="translate(4.3802 4.5886)" />
        <path class="cls-17"
            d="M278.9843,139.8781c.88-.73,2.5215-.6045,2.7844.735a6.621,6.621,0,0,0,4.3978,5.3166l.7144-3.5421a8.76,8.76,0,0,0-6.8-10.1641,8.4692,8.4692,0,0,0-10.1611,6.4948l-.69,3.4224A13.2825,13.2825,0,0,0,278.9843,139.8781Z"
            transform="translate(4.3802 4.5886)" />
        <line class="cls-13" x1="166.8842" y1="153.2361" x2="220.4512" y2="153.2361" />
        <line class="cls-13" x1="175.3766" y1="208.1096" x2="208.0394" y2="208.1096" />
        <line class="cls-13" x1="181.2559" y1="252.531" x2="234.8228" y2="252.531" />
        <line class="cls-13" x1="187.1351" y1="297.6056" x2="240.7022" y2="297.6056" />
        <line class="cls-13" x1="193.6677" y1="343.3335" x2="247.2347" y2="343.3335" />
        <line class="cls-18" x1="198.2405" y1="388.4082" x2="251.8075" y2="388.4082" />
        <path class="cls-12"
            d="M202.997,476.2559a6.86,6.86,0,0,1-6.7814-5.8914L145.2617,113.0337a6.859,6.859,0,0,1,13.5806-1.9369l50.9538,357.3309a6.8642,6.8642,0,0,1-6.7991,7.8282Z"
            transform="translate(4.3802 4.5886)" />
        <line class="cls-13" x1="156.4321" y1="119.9201" x2="204.773" y2="464.8391" />
        <path class="cls-17"
            d="M312.2392,259.6082c-7.003,10.9261-11.4468,15.1467-16.4493,17.924-8.9116,4.9473-19.0671,7.0791-29.0478,9.1474,13.605,9.7873,27.8625,19.6788,42.9694,26.9362-8.7684,14.1388-17.6118,28.6991-26.38,42.8378A251.6587,251.6587,0,0,0,255.4,336.5123c-9.8926-6.255-20.3959-11.9349-28.3542-20.5172s-13.0217-20.9967-9.39-32.1232c2.6738-8.1916,9.65-14.4132,17.4228-18.1324s16.3749-5.271,24.8577-6.7851c.99-8.4282,3.0225-18.1837,4.0124-26.6119h46.9463c2.0714,7.1165,4.1918,14.564,3.0356,21.8851-.9175,5.81-3.8517,8.7721-6.88,13.2777-4.0484,6.0232-6.3479,14.1411-9.2674,20.7891L279.4745,329.983q-18.5317,42.1971-37.0634,84.394c-15.5848-7.8714-30.1095-15.9731-42.3131-28.46,21.1107-37.3892,63.85-153.5747,63.85-153.5747C282.1247,230.9925,294.0538,260.8311,312.2392,259.6082Z"
            transform="translate(4.3802 4.5886)" />
        <path class="cls-4"
            d="M242.4271,409.8849a153.5255,153.5255,0,0,1-6.225,21.4385H162.8964c-1.7843-6.1443.0934-14.7456,3.2581-20.3062a19.0714,19.0714,0,0,1,5.6441-6.6144c4.565-3.0634,10.5029-2.7371,15.896-3.804A30.2037,30.2037,0,0,0,205.1691,390.04C218.7792,397.7,228.817,402.2248,242.4271,409.8849Z"
            transform="translate(4.3802 4.5886)" />
        <line class="cls-19" x1="174.6169" y1="419.7977" x2="239.7537" y2="419.7977" />
        <line class="cls-19" x1="206.6271" y1="398.9945" x2="220.2974" y2="412.4589" />
        <line class="cls-19" x1="196.5543" y1="403.7831" x2="210.2246" y2="417.2476" />
        <path class="cls-4"
            d="M307.1488,312.8025a153.5145,153.5145,0,0,1,21.2231,6.9238l-2.4006,73.2663c-6.1994,1.5821-14.7345-.5762-20.1886-3.9213a19.0721,19.0721,0,0,1-6.426-5.8577c-2.9123-4.6629-2.3916-10.5869-3.2814-16.0121a30.2035,30.2035,0,0,0-9.9814-17.8109C294.1955,336.0387,299.0471,326.1544,307.1488,312.8025Z"
            transform="translate(4.3802 4.5886)" />
        <line class="cls-19" x1="314.4863" y1="389.7172" x2="316.6194" y2="324.6153" />
        <line class="cls-19" x1="294.7425" y1="357.0428" x2="308.6474" y2="343.8208" />
        <line class="cls-19" x1="299.1986" y1="367.267" x2="313.1036" y2="354.045" />
        <path class="cls-20" d="M226.0788,401.1381c.5553-2.6585,29.3209-64.6258,29.3209-64.6258"
            transform="translate(4.3802 4.5886)" />
        <path class="cls-20"
            d="M296.8483,234.4091c2.5543,4.3314,1.8263,10.0107-.6545,14.3846s-6.457,7.6807-10.487,10.688a156.992,156.992,0,0,1-43.0024,22.6776c16.9872,16.1756,33.521,32.6805,50.5082,48.8561"
            transform="translate(4.3802 4.5886)" />
        <path class="cls-1"
            d="M270.6437,145.9293c-.0176.1195-.0362.2388-.0475.3609-.2583,2.7992,1.2822,5.23,3.441,5.4292s4.1182-1.9085,4.3765-4.7078c.0113-.1221.0147-.2428.0192-.3634Z"
            transform="translate(4.3802 4.5886)" />
        <path class="cls-17"
            d="M281.0622,139.01c-2.9232,4.0419-9.0859,5.0928-13.4067,2.6a12.3327,12.3327,0,0,1-5.524-12.8789,14.8781,14.8781,0,0,1,9.557-10.66,11.8445,11.8445,0,0,0-.7336,4.611,4.8711,4.8711,0,0,0,2.4772,4.2481c1.9092.8962,4.1157-.0179,6.1717-.4884a11.0271,11.0271,0,0,1,7.92.9535,7.571,7.571,0,0,1,3.8906,6.7134,11.2,11.2,0,0,1-1.8379,4.9494,43.791,43.791,0,0,1-4.6076,6.3821"
            transform="translate(4.3802 4.5886)" />
        <path class="cls-21"
            d="M270.0816,167.8137s6.5719,25.1368,6.5792,23.91,4.25-25.28,4.25-25.28,4.7969,27.5134,5.1836,25.3235,5.7581-26.71,5.7581-26.71"
            transform="translate(4.3802 4.5886)" />
        <path class="cls-14"
            d="M283.6065,144.5651a3.708,3.708,0,1,0,4.7177-1.8574A3.5891,3.5891,0,0,0,283.6065,144.5651Z"
            transform="translate(4.3802 4.5886)" />
        <path class="cls-12"
            d="M202.997,476.2559a6.86,6.86,0,0,1-6.7814-5.8914L145.2617,113.0337a6.859,6.859,0,0,1,13.5806-1.9369l50.9538,357.3309a6.8642,6.8642,0,0,1-6.7991,7.8282Z"
            transform="translate(4.3802 4.5886)" />
        <line class="cls-13" x1="156.4321" y1="119.9201" x2="204.773" y2="464.8391" />
        <circle class="cls-6" cx="431.7111" cy="350.7954" r="30.9444" />
        <circle class="cls-1" cx="427.3309" cy="346.2068" r="13.3958"
            transform="translate(-115.2627 408.1588) rotate(-45)" />
        <rect class="cls-6" x="425.7141" y="307.3773" width="12.4737" height="21.5891" />
        <rect class="cls-6" x="424.7021" y="371.8972" width="12.4737" height="21.5892" />
        <rect class="cls-6" x="453.0879" y="335.5547" width="12.4736" height="21.5891"
            transform="translate(810.0541 -108.3869) rotate(90)" />
        <rect class="cls-6" x="388.5678" y="334.5427" width="12.4738" height="21.5891"
            transform="translate(744.5221 -44.8789) rotate(90)" />
        <rect class="cls-6" x="443.2813" y="358.2177" width="12.4737" height="21.5891"
            transform="translate(1032.6865 316.6713) rotate(134.9997)" />
        <rect class="cls-6" x="398.3744" y="311.8797" width="12.4737" height="21.5891"
            transform="translate(923.26 269.3246) rotate(135)" />
        <rect class="cls-6" x="397.6588" y="357.5021" width="12.4737" height="21.5891"
            transform="translate(433.4451 918.9079) rotate(-134.9997)" />
        <rect class="cls-6" x="443.9969" y="312.5952" width="12.4737" height="21.5891"
            transform="translate(544.3031 875.0133) rotate(-134.9997)" />
        <circle class="cls-7" cx="431.7111" cy="350.7954" r="23.5063" />
        <path class="cls-7"
            d="M342.2679,362.2944c7.6678-5.6426,12.5178-14.6519,14.0441-24.0489s-.0882-19.1327-3.5754-27.9913c-2.0752-5.2715-5.6631-11.18-10.2-14.6609-3.5339-2.7117-9.8761-3.3615-11.3853,1.8254-1.8288,6.2851,4.9258,14.3807,9.47,17.6851a28.5507,28.5507,0,0,0,43.6646-13.4514"
            transform="translate(4.3802 4.5886)" />
        <circle class="cls-1" cx="162.2052" cy="316.4248" r="11.1774"
            transform="translate(-171.8571 211.9637) rotate(-45)" />
        <line class="cls-22" x1="175.0968" y1="396.8726" x2="174.6176" y2="393.2243" />
        <line class="cls-23" x1="173.6699" y1="386.0103" x2="140.0273" y2="129.915" />
        <line class="cls-22" x1="139.5534" y1="126.3081" x2="139.0742" y2="122.6597" />
        <path class="cls-17"
            d="M163.7393,296.4329a6.3558,6.3558,0,1,1-6.3557-6.3557A6.3557,6.3557,0,0,1,163.7393,296.4329Z"
            transform="translate(4.3802 4.5886)" />
        <path class="cls-17"
            d="M176.5924,388.8978a6.3558,6.3558,0,1,1-6.3557-6.3557A6.3556,6.3556,0,0,1,176.5924,388.8978Z"
            transform="translate(4.3802 4.5886)" />
        <path class="cls-17"
            d="M152.8487,215.8015a6.3558,6.3558,0,1,1-6.3557-6.3558A6.3557,6.3557,0,0,1,152.8487,215.8015Z"
            transform="translate(4.3802 4.5886)" />
        <path class="cls-17" d="M138.33,121.6872a6.3557,6.3557,0,1,1-6.3557-6.3557A6.3557,6.3557,0,0,1,138.33,121.6872Z"
            transform="translate(4.3802 4.5886)" />
        <path class="cls-15"
            d="M351.9374,25.7288l11.8812,9.9932L378.7864,31.6a5.8671,5.8671,0,0,1,6.9951,7.8608l-5.8326,14.3877L388.4946,66.81a5.867,5.867,0,0,1-5.3144,9.0818l-15.4859-1.1011L358.008,86.9233a5.8671,5.8671,0,0,1-10.28-2.2478L343.99,69.6072l-14.5321-5.463a5.8671,5.8671,0,0,1-1.0388-10.4711l13.1757-8.2116L342.3,29.9524A5.8671,5.8671,0,0,1,351.9374,25.7288Z"
            transform="translate(4.3802 4.5886)" />
        <path class="cls-17"
            d="M388.4945,66.81,379.949,53.8484l5.8324-14.3878A5.8668,5.8668,0,0,0,378.7865,31.6l-4.6888,1.2912c8.5024,19.206-7.35,40.7331-22.2284,56.0168a5.797,5.797,0,0,0,6.1388-1.9847l9.6861-12.1327L383.18,75.8917A5.8672,5.8672,0,0,0,388.4945,66.81Z"
            transform="translate(4.3802 4.5886)" />
        <path class="cls-24" d="M346.8885,29.205s-.6133,5.2128-.92,11.3456" transform="translate(4.3802 4.5886)" />
        <path class="cls-24" d="M331.6945,54.3119a5.73,5.73,0,0,0-2.2234,2.3007,2.4523,2.4523,0,0,0,.5905,2.9382"
            transform="translate(4.3802 4.5886)" />
        <path class="cls-24" d="M348.2786,77.6548a6.7627,6.7627,0,0,0,3.0634,6.1205"
            transform="translate(4.3802 4.5886)" />
        <path class="cls-24" d="M366.7911,69.89a18.2612,18.2612,0,0,0,8.4615,2.0637"
            transform="translate(4.3802 4.5886)" />
        <path class="cls-24" d="M365.8951,38.38a20.0459,20.0459,0,0,0,5.0771-1.7914"
            transform="translate(4.3802 4.5886)" />
        <path class="cls-17"
            d="M138.8806,247.9423a52.44,52.44,0,1,0-52.44,52.44c1.27,0,2.5243-.0611,3.7716-.15v.15h48.6688V251.7139h-.15C138.82,250.4669,138.8806,249.2122,138.8806,247.9423Z"
            transform="translate(4.3802 4.5886)" />
        <path class="cls-25"
            d="M70.874,298.0329c12.8274-7.6154,24.412-17.2236,33.47-29.1873a102.1971,102.1971,0,0,0,16.7316-33.75,60.1783,60.1783,0,0,0,1.8339-24.8174A52.4388,52.4388,0,1,0,70.874,298.0329Z"
            transform="translate(4.3802 4.5886)" />
        <path class="cls-26" d="M66.79,208.4225a31.7394,31.7394,0,0,0-16.3212,14.1581"
            transform="translate(4.3802 4.5886)" />
        <circle class="cls-27" cx="125.6185" cy="362.6784" r="36.5496"
            transform="translate(-215.2794 199.6403) rotate(-45)" />
        <path class="cls-27"
            d="M162.1678,362.6785a36.5494,36.5494,0,1,0-36.5494,36.5494c.8849,0,1.76-.0426,2.6286-.1043v.1043h33.9208V365.3071h-.1042C162.1253,364.438,162.1678,363.5633,162.1678,362.6785Z"
            transform="translate(4.3802 4.5886)" />
        <path class="cls-17"
            d="M162.1678,362.6785a36.3706,36.3706,0,0,0-6.0824-20.1861,53.8051,53.8051,0,0,1-10.0775,22.9659c-10.5491,14.1156-25.5254,22.9928-42.4166,26.3836a36.3833,36.3833,0,0,0,22.0271,7.386c.8849,0,1.76-.0426,2.6286-.1043v.1043h33.9208V365.3071h-.1042C162.1253,364.438,162.1678,363.5633,162.1678,362.6785Z"
            transform="translate(4.3802 4.5886)" />
        <path class="cls-26" d="M104.5014,342.9243a18.2867,18.2867,0,0,0-6.6249,12.9069"
            transform="translate(4.3802 4.5886)" />
        <path class="cls-22"
            d="M120.5885,182.3163a6.4257,6.4257,0,1,1-6.4256-6.4257A6.4256,6.4256,0,0,1,120.5885,182.3163Z"
            transform="translate(4.3802 4.5886)" />
        <path class="cls-22"
            d="M117.1747,149.5531a1.5059,1.5059,0,1,1-1.5059-1.506A1.5059,1.5059,0,0,1,117.1747,149.5531Z"
            transform="translate(4.3802 4.5886)" />
        <circle class="cls-22" cx="398.8223" cy="222.8457" r="4.9664" />
        <path class="cls-22" d="M438.88,260.8324a5.6549,5.6549,0,1,1-5.6548-5.6548A5.6548,5.6548,0,0,1,438.88,260.8324Z"
            transform="translate(4.3802 4.5886)" />
        <circle class="cls-22" cx="77.0816" cy="347.766" r="3.0294" />
        <circle class="cls-22" cx="308.8549" cy="99.6522" r="3.0294" />
        <circle class="cls-17" cx="410.8009" cy="206.3002" r="1.8094" />
        <path class="cls-17"
            d="M454.5191,275.5234a2.9945,2.9945,0,1,1-2.9945-2.9944A2.9945,2.9945,0,0,1,454.5191,275.5234Z"
            transform="translate(4.3802 4.5886)" />
        <path class="cls-17"
            d="M83.1245,324.8711a2.1969,2.1969,0,1,1-2.1969-2.1969A2.1969,2.1969,0,0,1,83.1245,324.8711Z"
            transform="translate(4.3802 4.5886)" />
        <path class="cls-17"
            d="M91.0648,146.7743a2.0566,2.0566,0,1,1-2.0566-2.0565A2.0566,2.0566,0,0,1,91.0648,146.7743Z"
            transform="translate(4.3802 4.5886)" />
        <path class="cls-17"
            d="M296.7474,73.0828a3.1926,3.1926,0,1,1-3.1926-3.1926A3.1925,3.1925,0,0,1,296.7474,73.0828Z"
            transform="translate(4.3802 4.5886)" />
        <path class="cls-17"
            d="M280.1508,193.4819c4.1062,5.9725,8.2751,12.0158,13.7583,16.7557a57.7432,57.7432,0,0,0,16.9138,9.7386,89.8664,89.8664,0,0,0,51.5713,4.0463c6.69-7.804,13.8964-16.0947,21.02-23.5048a185.7513,185.7513,0,0,1-17.3155-17.0385c-12.7624,7.0455-27.6561,10.8888-42.0738,13.0447a60.4108,60.4108,0,0,1-14.34.709c-9.37-.8468-18.0944-4.9439-26.594-8.9776A54.7962,54.7962,0,0,1,280.1508,193.4819Z"
            transform="translate(4.3802 4.5886)" />
        <path class="cls-17"
            d="M280.91,169.1991l-4.25,22.5248a5.4814,5.4814,0,0,0,2.8293,3.3934,4.718,4.718,0,0,0,6.5893-3.2867l.0145-.0632Z"
            transform="translate(4.3802 4.5886)" />
        <path class="cls-20"
            d="M298.9661,214.8429a23.0633,23.0633,0,0,0,9.3179-17.1876c.0228-.4374-.15-1.0494-.5817-.977"
            transform="translate(4.3802 4.5886)" />
        <path class="cls-20"
            d="M326.9562,224.4888c.5171-3.3646,3.1667-5.9863,5.9274-7.978a40.0689,40.0689,0,0,1,39.198-3.9119"
            transform="translate(4.3802 4.5886)" />
        <path class="cls-20"
            d="M331.35,194.8384c4.9814,4.7015,12.2933,6.5585,19.065,5.5278a31.19,31.19,0,0,0,17.666-9.7376,17.5651,17.5651,0,0,0,2.1208-2.6462"
            transform="translate(4.3802 4.5886)" />
        <line class="cls-28" x1="261.558" y1="68.9898" x2="261.558" y2="86.353" />
        <line class="cls-28" x1="270.2396" y1="77.6714" x2="252.8764" y2="77.6714" />
        <line class="cls-29" x1="469.2679" y1="185.1912" x2="469.2679" y2="203.2481" />
        <line class="cls-29" x1="478.2964" y1="194.2196" x2="460.2395" y2="194.2196" />
    </g>
    <g id="TEXTS"><text class="cls-30" transform="translate(119.555 389.4138)">1</text><text class="cls-31"
            transform="translate(69.3875 281.3083)">2</text></g>
</svg>