<svg width="1166" height="702" viewBox="0 0 1166 702" fill="none" xmlns="http://www.w3.org/2000/svg">
<path d="M872.09 392.34V257.84H810.37L713.64 390.5V431.64H832.17V472.48H872.09V431.64H897.27V392.34H872.09ZM832.17 392.34H759.39L832.17 292.85V392.34Z" fill="#1C77FF"/>
<path d="M404.83 392.34L383.52 398.08V439.32H364.91V472.49H404.83V431.64H430.01V392.34H404.83Z" fill="#6AA2FC"/>
<path d="M343.11 257.84L246.38 390.5V431.64H375.85V401.57L360.57 392.34H292.13L364.91 292.85V386L375.85 392.61V392.25L404.83 384.39V257.84H343.11Z" fill="#1C77FF"/>
<path d="M499.15 364.841C499.154 352.611 502.284 340.586 508.243 329.907C514.202 319.228 522.791 310.249 533.197 303.824C543.602 297.398 555.477 293.74 567.694 293.195C579.911 292.65 592.064 295.237 603 300.711L616.53 277.001L612.18 261.091C585.585 250.527 555.949 250.576 529.388 261.228C502.828 271.88 481.371 292.323 469.446 318.336C457.52 344.349 456.036 373.948 465.3 401.024C474.564 428.099 493.869 450.585 519.23 463.841L536.48 427.841C525.171 421.663 515.736 412.551 509.167 401.465C502.598 390.379 499.138 377.727 499.15 364.841Z" fill="#6AA2FC"/>
<path d="M574.35 448C564.92 448.009 555.581 446.154 546.87 442.54L529.61 478.54C543.719 484.691 558.944 487.865 574.335 487.865C589.726 487.865 604.951 484.691 619.06 478.54L603.06 441.95C594.011 445.931 584.235 447.991 574.35 448Z" fill="#416D8D"/>
<path d="M639.08 276.44L623.2 280.79L609.68 304.52C620.326 311.361 628.972 320.897 634.74 332.16C640.509 343.423 643.194 356.011 642.524 368.648C641.853 381.284 637.851 393.518 630.924 404.107C623.996 414.697 614.39 423.264 603.08 428.94L619.08 465.57C636.278 457.337 651.081 444.837 662.079 429.261C673.077 413.686 679.904 395.553 681.909 376.592C683.914 357.631 681.031 338.471 673.534 320.94C666.037 303.409 654.175 288.089 639.08 276.44Z" fill="#6AA2FC"/>
<path d="M622.75 273.84L644.67 267.83L616.74 251.92L622.75 273.84Z" fill="#416D8D"/>
<path d="M935.83 253.62H911.13C911.057 250.08 911.023 247.924 911.03 247.15C911.03 239.15 912.363 232.587 915.03 227.46C917.697 222.334 923.003 216.544 930.95 210.09C938.91 203.664 943.667 199.45 945.22 197.45C947.559 194.477 948.827 190.803 948.82 187.02C948.826 184.445 948.258 181.901 947.158 179.573C946.058 177.245 944.453 175.191 942.46 173.56C938.213 169.854 932.497 168 925.31 168C918.383 168 912.587 169.97 907.92 173.91C903.253 177.85 900.05 183.85 898.31 191.91L873.45 188.78C874.157 177.207 879.077 167.384 888.21 159.31C897.343 151.237 909.323 147.197 924.15 147.19C939.763 147.19 952.177 151.264 961.39 159.41C970.603 167.557 975.217 177.034 975.23 187.84C975.215 193.879 973.451 199.784 970.15 204.84C966.763 210.174 959.52 217.444 948.42 226.65C942.673 231.424 939.107 235.254 937.72 238.14C936.333 241.027 935.703 246.187 935.83 253.62ZM911.13 290.2V263H935.83V290.2H911.13Z" fill="#6AA2FC"/>
<path d="M335.7 579.23H332.7C332.89 574.083 333.662 568.974 335 564C336.187 560 338.623 554.4 342.31 547.2C344.582 543.145 346.487 538.895 348 534.5C348.862 531.602 349.3 528.594 349.3 525.57C349.3 519.397 347.667 514.49 344.4 510.85C342.924 509.113 341.084 507.722 339.01 506.777C336.936 505.832 334.679 505.355 332.4 505.38C328.193 505.38 324.877 506.38 322.45 508.38C320.02 510.38 318.82 512.53 318.82 514.86C318.989 517.216 319.738 519.494 321 521.49C322.46 524.11 323.19 526.11 323.19 527.49C323.234 529.124 322.63 530.71 321.51 531.9C320.996 532.47 320.366 532.924 319.662 533.231C318.959 533.538 318.198 533.691 317.43 533.68C316.334 533.637 315.263 533.344 314.298 532.825C313.333 532.305 312.499 531.571 311.86 530.68C310.18 528.68 309.34 525.87 309.34 522.25C309.34 516.743 311.697 511.873 316.41 507.64C321.123 503.407 327.507 501.29 335.56 501.29C345.56 501.29 352.917 504.21 357.63 510.05C361.012 514.028 362.87 519.079 362.87 524.3C362.828 528.088 362.025 531.828 360.51 535.3C358.93 539.053 355.93 543.467 351.51 548.54C344.47 556.54 340.17 562.207 338.61 565.54C337.05 568.873 336.08 573.437 335.7 579.23ZM334.65 588.33C335.719 588.322 336.778 588.527 337.767 588.932C338.756 589.337 339.654 589.935 340.41 590.691C341.165 591.446 341.763 592.344 342.168 593.333C342.573 594.322 342.778 595.382 342.77 596.45C342.785 597.514 342.58 598.57 342.167 599.551C341.754 600.532 341.142 601.417 340.37 602.15C339.624 602.907 338.733 603.505 337.75 603.909C336.767 604.313 335.713 604.514 334.65 604.5C332.555 604.426 330.57 603.542 329.114 602.034C327.658 600.526 326.844 598.511 326.844 596.415C326.844 594.319 327.658 592.304 329.114 590.796C330.57 589.288 332.555 588.404 334.65 588.33Z" fill="#416D8D"/>
<path d="M403 553.76C397.49 553.76 395.23 549.85 398 545.08L452 451.53C454.76 446.75 459.27 446.75 462 451.53L516 545.08C518.75 549.85 516.5 553.76 511 553.76H403Z" fill="#416D8D"/>
<path d="M572.31 152.091L565.61 145.391L553.79 157.201L541.98 145.391L535.28 152.091L547.09 163.911L535.28 175.721L541.98 182.431L553.79 170.611L565.61 182.431L572.31 175.721L560.5 163.911L572.31 152.091Z" fill="#1C77FF"/>
<path d="M568.66 381.92L576.18 368.81L587.35 382.42L577.51 351.53L570.51 363.68L560.15 349.46L568.66 381.92Z" fill="#1C77FF"/>
<path d="M652.88 511.01L647.73 505.87L638.66 514.94L629.58 505.87L624.44 511.01L633.51 520.09L624.44 529.16L629.58 534.31L638.66 525.23L647.73 534.31L652.88 529.16L643.8 520.09L652.88 511.01Z" fill="#1C77FF"/>
<path d="M367.91 82.4899L361.32 71.0799L367.91 59.6699H381.1L387.68 71.0799L381.1 82.4899H367.91Z" stroke="#6960CD" stroke-width="3" stroke-linecap="round" stroke-linejoin="round"/>
<path d="M392.27 257.36V237C392.27 233.067 390.708 229.295 387.926 226.514C385.145 223.732 381.373 222.17 377.44 222.17H333.29" stroke="#6960CD" stroke-width="3" stroke-linecap="round" stroke-linejoin="round"/>
<path d="M392.27 257.36V237C392.27 233.067 390.708 229.295 387.926 226.514C385.145 223.732 381.373 222.17 377.44 222.17H333.29C333.29 221.49 333.24 220.81 333.24 220.12C333.242 211.362 336.029 202.832 341.2 195.764C346.37 188.695 353.654 183.455 362 180.8V93.54C357.025 90.7648 353.112 86.4171 350.874 81.1786C348.636 75.9401 348.2 70.107 349.633 64.5939C351.067 59.0807 354.29 54.1992 358.796 50.7147C363.303 47.2303 368.838 45.3398 374.535 45.3398C380.232 45.3398 385.767 47.2303 390.274 50.7147C394.78 54.1992 398.003 59.0807 399.437 64.5939C400.87 70.107 400.434 75.9401 398.196 81.1786C395.958 86.4171 392.045 90.7648 387.07 93.54V180.8C394.949 183.316 401.891 188.142 406.994 194.652C412.097 201.161 415.127 209.054 415.69 217.307C416.252 225.559 414.322 233.79 410.15 240.932C405.977 248.074 399.755 253.797 392.29 257.36" stroke="#6960CD" stroke-width="3" stroke-linecap="round" stroke-linejoin="round"/>
<path d="M333.29 222.16C333.658 229.599 336.032 236.799 340.16 242.998C344.289 249.197 350.018 254.163 356.74 257.37V222.16" stroke="#6960CD" stroke-width="3" stroke-linecap="round" stroke-linejoin="round"/>
<path d="M383.06 193.32H365.94C362.11 194.541 358.59 196.574 355.618 199.28C352.646 201.986 350.293 205.302 348.72 209H400.37C398.783 205.295 396.415 201.975 393.428 199.269C390.44 196.563 386.904 194.534 383.06 193.32Z" stroke="#6960CD" stroke-width="3" stroke-linecap="round" stroke-linejoin="round"/>
<path d="M374.5 193.32V209.03" stroke="#6960CD" stroke-width="3" stroke-linecap="round" stroke-linejoin="round"/>
<path d="M387.78 195.311V209.031" stroke="#6960CD" stroke-width="3" stroke-linecap="round" stroke-linejoin="round"/>
<path d="M361.23 195.311V209.031" stroke="#6960CD" stroke-width="3" stroke-linecap="round" stroke-linejoin="round"/>
<path d="M392.27 267.801L374.5 278.061L356.73 267.801V247.281L374.5 237.021L392.27 247.281V267.801Z" stroke="#6960CD" stroke-width="3" stroke-linecap="round" stroke-linejoin="round"/>
<path d="M377.33 258C377.33 258.593 377.154 259.173 376.824 259.667C376.495 260.16 376.026 260.545 375.478 260.772C374.93 260.999 374.327 261.058 373.745 260.942C373.163 260.827 372.628 260.541 372.209 260.121C371.789 259.702 371.503 259.167 371.388 258.585C371.272 258.003 371.331 257.4 371.558 256.852C371.785 256.304 372.17 255.835 372.663 255.506C373.157 255.176 373.737 255 374.33 255C375.126 255 375.889 255.316 376.451 255.879C377.014 256.441 377.33 257.204 377.33 258Z" fill="#6960CD"/>
<path d="M556.72 253.53V242.08C552.82 242.08 543.09 240.99 541.72 235.87C541.163 234.24 540.495 232.649 539.72 231.11C537.04 226.55 543.15 218.9 545.91 216.11L537.81 208.01C535.05 210.77 527.4 216.88 522.81 214.2C521.271 213.425 519.681 212.757 518.05 212.2C512.93 210.87 511.84 201.14 511.84 197.2H500.49C500.49 201.11 499.4 210.84 494.28 212.2C492.649 212.757 491.059 213.425 489.52 214.2C484.95 216.88 477.31 210.77 474.52 208.01L466.42 216.11C469.18 218.87 475.29 226.52 472.61 231.11C471.835 232.649 471.167 234.239 470.61 235.87C469.28 240.99 459.55 242.08 455.61 242.08V253.53C459.52 253.53 469.25 254.62 470.61 259.74C471.171 261.369 471.839 262.959 472.61 264.5C475.29 269.06 469.18 276.71 466.42 279.5L474.52 287.6C477.28 284.84 484.92 278.72 489.52 281.4C491.057 282.18 492.648 282.848 494.28 283.4C499.4 284.74 500.49 294.47 500.49 298.4H511.94C511.94 294.5 513.03 284.77 518.15 283.4C519.781 282.844 521.371 282.175 522.91 281.4C527.47 278.72 535.12 284.84 537.91 287.6L546.01 279.5C543.25 276.74 537.14 269.09 539.82 264.5C540.597 262.959 541.265 261.365 541.82 259.73C543.09 254.62 552.82 253.53 556.72 253.53ZM506.21 261.53C503.504 261.53 500.859 260.728 498.608 259.226C496.358 257.723 494.603 255.588 493.566 253.088C492.529 250.589 492.255 247.839 492.78 245.184C493.305 242.53 494.605 240.09 496.516 238.174C498.426 236.258 500.862 234.951 503.515 234.418C506.168 233.885 508.919 234.151 511.421 235.181C513.923 236.211 516.064 237.959 517.573 240.205C519.083 242.451 519.892 245.094 519.9 247.8C519.9 251.431 518.458 254.913 515.89 257.48C513.323 260.048 509.841 261.49 506.21 261.49V261.53Z" stroke="#6960CD" stroke-width="3" stroke-linecap="round" stroke-linejoin="round"/>
<path d="M675.74 490.21L664.54 470.8L675.74 451.4H698.15L709.35 470.8L698.15 490.21H675.74Z" stroke="#6960CD" stroke-width="3" stroke-linecap="round" stroke-linejoin="round"/>
<path d="M678 470.811C678 469.031 678.528 467.29 679.517 465.81C680.506 464.33 681.911 463.177 683.556 462.496C685.2 461.814 687.01 461.636 688.756 461.983C690.502 462.331 692.105 463.188 693.364 464.447C694.623 465.705 695.48 467.309 695.827 469.055C696.174 470.801 695.996 472.61 695.315 474.255C694.634 475.899 693.48 477.305 692 478.294C690.52 479.283 688.78 479.811 687 479.811C684.613 479.811 682.324 478.862 680.636 477.174C678.948 475.487 678 473.197 678 470.811Z" stroke="#6960CD" stroke-width="3" stroke-linecap="round" stroke-linejoin="round"/>
<path d="M746.38 292.26H712.4V309.41H746.38V292.26Z" stroke="#6960CD" stroke-width="3" stroke-linecap="round" stroke-linejoin="round"/>
<path d="M720.67 292.26V309.41" stroke="#6960CD" stroke-width="3" stroke-linecap="round" stroke-linejoin="round"/>
<path d="M738.11 292.26V309.41" stroke="#6960CD" stroke-width="3" stroke-linecap="round" stroke-linejoin="round"/>
<path d="M735.9 246.8H722.89V292.26H735.9V246.8Z" stroke="#6960CD" stroke-width="3" stroke-linecap="round" stroke-linejoin="round"/>
<path d="M735.89 246.8L722.89 259.81" stroke="#6960CD" stroke-width="3" stroke-linecap="round" stroke-linejoin="round"/>
<path d="M735.89 258.37L722.89 271.38" stroke="#6960CD" stroke-width="3" stroke-linecap="round" stroke-linejoin="round"/>
<path d="M735.89 269.95L722.89 282.95" stroke="#6960CD" stroke-width="3" stroke-linecap="round" stroke-linejoin="round"/>
<path d="M735.89 281.521L725.16 292.261" stroke="#6960CD" stroke-width="3" stroke-linecap="round" stroke-linejoin="round"/>
<path d="M774 593.57V646.35C774 648.9 778.16 650.96 783.3 650.97C788.44 650.98 792.6 648.89 792.6 646.35V593.57H774Z" stroke="#6960CD" stroke-width="3" stroke-linecap="round" stroke-linejoin="round"/>
<path d="M732.29 527.851C732.29 517.764 735.281 507.903 740.885 499.517C746.489 491.13 754.454 484.593 763.773 480.733C773.092 476.873 783.347 475.863 793.24 477.831C803.133 479.798 812.22 484.656 819.352 491.788C826.485 498.921 831.342 508.008 833.31 517.901C835.278 527.794 834.268 538.048 830.408 547.367C826.548 556.687 820.011 564.652 811.624 570.256C803.237 575.86 793.377 578.851 783.29 578.851C769.764 578.851 756.792 573.477 747.228 563.913C737.663 554.349 732.29 541.377 732.29 527.851Z" stroke="#6960CD" stroke-width="3" stroke-linecap="round" stroke-linejoin="round"/>
<path d="M745.35 527.85C745.35 520.35 747.574 513.018 751.741 506.782C755.907 500.547 761.83 495.686 768.759 492.816C775.688 489.946 783.312 489.195 790.668 490.658C798.024 492.121 804.78 495.733 810.083 501.036C815.387 506.339 818.998 513.096 820.461 520.452C821.925 527.808 821.174 535.432 818.304 542.361C815.433 549.29 810.573 555.212 804.337 559.379C798.101 563.546 790.77 565.77 783.27 565.77C773.214 565.767 763.57 561.771 756.459 554.66C749.349 547.549 745.353 537.906 745.35 527.85Z" fill="#6AA2FC"/>
<path d="M783.28 593.57L783.27 578.83" stroke="#6960CD" stroke-width="3" stroke-linecap="round" stroke-linejoin="round"/>
<path d="M773.98 641.311H792.58" stroke="#6960CD" stroke-width="3" stroke-linecap="round" stroke-linejoin="round"/>
<path d="M796.26 519.56L791.56 514.86L783.27 523.15L774.99 514.86L770.29 519.56L778.57 527.85L770.29 536.13L774.99 540.83L783.27 532.55L791.56 540.83L796.26 536.13L787.97 527.85L796.26 519.56Z" fill="white"/>
<path d="M924.55 393.05L909.14 408.47H915.32L930.73 393.05H924.55ZM963.21 393.05L947.8 408.47H954L969.41 393.05H963.21ZM937.44 393.05L922 408.47H928.19L943.6 393.05H937.44ZM911.67 393.05L896.25 408.47H902.43L917.85 393.05H911.67ZM898.78 393.05L887.08 404.75V408.47H889.55L905 393.05H898.78ZM950.33 393.05L934.91 408.47H941.09L956.5 393.05H950.33ZM1027.64 393.05L1012.23 408.47H1018.41L1028.11 398.76V393.05H1027.64ZM976.1 393.05L960.68 408.47H966.86L982.28 393.05H976.1ZM1028.1 408.47V405.47L1025.1 408.47H1028.1ZM1014.75 393.05L999.33 408.47H1005.51L1020.93 393.05H1014.75ZM1001.86 393.05L986.45 408.47H992.62L1008.04 393.05H1001.86ZM988.97 393.05L973.56 408.47H979.74L995.15 393.05H988.97Z" fill="#6AA2FC"/>
<path d="M1028.11 393.05H887.08V408.46H1028.11V393.05Z" stroke="#6960CD" stroke-width="3" stroke-linecap="round" stroke-linejoin="round"/>
<path d="M912.87 408.46L887.5 472.49H872.09L897.46 408.46H912.87Z" stroke="#6960CD" stroke-width="3" stroke-linecap="round" stroke-linejoin="round"/>
<path d="M924.84 438.66L912.87 408.47" stroke="#6960CD" stroke-width="3" stroke-linecap="round" stroke-linejoin="round"/>
<path d="M914.29 450.95L922.83 472.49H938.24L929.71 450.96" stroke="#6960CD" stroke-width="3" stroke-linecap="round" stroke-linejoin="round"/>
<path d="M905.16 427.91L909.42 438.66" stroke="#6960CD" stroke-width="3" stroke-linecap="round" stroke-linejoin="round"/>
<path d="M1017.74 408.46L992.37 472.49H976.95L1002.33 408.46H1017.74Z" stroke="#6960CD" stroke-width="3" stroke-linecap="round" stroke-linejoin="round"/>
<path d="M1010.03 427.91L1027.69 472.49H1043.11L1017.74 408.46" stroke="#6960CD" stroke-width="3" stroke-linecap="round" stroke-linejoin="round"/>
<path d="M898.63 385.23C902.501 385.23 905.64 382.091 905.64 378.22C905.64 374.348 902.501 371.21 898.63 371.21C894.758 371.21 891.62 374.348 891.62 378.22C891.62 382.091 894.758 385.23 898.63 385.23Z" stroke="#6960CD" stroke-width="3" stroke-linecap="round" stroke-linejoin="round"/>
<path d="M898.63 385.23V393.05" stroke="#6960CD" stroke-width="3" stroke-linecap="round" stroke-linejoin="round"/>
<path d="M1023.57 378.22C1023.57 376.835 1023.16 375.482 1022.39 374.331C1021.62 373.18 1020.53 372.282 1019.25 371.753C1017.97 371.223 1016.56 371.084 1015.2 371.354C1013.85 371.624 1012.6 372.291 1011.62 373.27C1010.64 374.249 1009.97 375.496 1009.7 376.854C1009.43 378.212 1009.57 379.619 1010.1 380.899C1010.63 382.178 1011.53 383.271 1012.68 384.04C1013.83 384.809 1015.19 385.22 1016.57 385.22C1018.43 385.22 1020.21 384.482 1021.52 383.169C1022.83 381.857 1023.57 380.076 1023.57 378.22Z" stroke="#6960CD" stroke-width="3" stroke-linecap="round" stroke-linejoin="round"/>
<path d="M1016.56 385.23V393.05" stroke="#6960CD" stroke-width="3" stroke-linecap="round" stroke-linejoin="round"/>
<path d="M985.49 450.96H896.03" stroke="#6960CD" stroke-width="3" stroke-linecap="round" stroke-linejoin="round"/>
<path d="M990.36 438.66H900.9" stroke="#6960CD" stroke-width="3" stroke-linecap="round" stroke-linejoin="round"/>
<path d="M1144.35 484C1131.19 484 1114.28 495.08 1100.42 495.08C1091.62 495.08 1087.94 493 1082.67 493V514.07C1087.94 514.07 1091.62 511.99 1100.42 511.99C1114.28 511.99 1131.19 523.08 1144.35 523.08C1149.53 523.08 1154.5 521.021 1158.17 517.357C1161.83 513.692 1163.89 508.722 1163.89 503.54C1163.89 498.358 1161.83 493.388 1158.17 489.723C1154.5 486.059 1149.53 484 1144.35 484Z" fill="#1C77FF"/>
<path d="M991.48 498.84V508.23L1015.04 512.41V494.67L991.48 498.84Z" stroke="#6960CD" stroke-width="3" stroke-linecap="round" stroke-linejoin="round"/>
<path d="M1082.67 503.54H1015.04" stroke="#6960CD" stroke-width="3" stroke-linecap="round" stroke-linejoin="round"/>
<path d="M1144.35 484C1131.19 484 1114.28 495.08 1100.42 495.08C1091.62 495.08 1087.94 493 1082.67 493V514.07C1087.94 514.07 1091.62 511.99 1100.42 511.99C1114.28 511.99 1131.19 523.08 1144.35 523.08C1149.53 523.08 1154.5 521.021 1158.17 517.357C1161.83 513.692 1163.89 508.722 1163.89 503.54C1163.89 498.358 1161.83 493.388 1158.17 489.723C1154.5 486.059 1149.53 484 1144.35 484Z" stroke="#6960CD" stroke-width="3" stroke-linecap="round" stroke-linejoin="round"/>
<path d="M1145.56 501C1146.07 501 1146.57 501.152 1147 501.437C1147.42 501.721 1147.76 502.126 1147.95 502.599C1148.15 503.072 1148.2 503.593 1148.1 504.095C1148 504.598 1147.75 505.059 1147.39 505.421C1147.03 505.784 1146.57 506.03 1146.07 506.13C1145.56 506.23 1145.04 506.179 1144.57 505.983C1144.1 505.787 1143.69 505.455 1143.41 505.029C1143.12 504.603 1142.97 504.102 1142.97 503.59C1142.97 502.903 1143.24 502.244 1143.73 501.759C1144.21 501.273 1144.87 501 1145.56 501Z" fill="#6960CD"/>
<path d="M1135.48 501C1135.99 501 1136.49 501.152 1136.92 501.437C1137.34 501.721 1137.68 502.126 1137.87 502.599C1138.07 503.072 1138.12 503.593 1138.02 504.095C1137.92 504.598 1137.67 505.059 1137.31 505.421C1136.95 505.784 1136.49 506.03 1135.99 506.13C1135.48 506.23 1134.96 506.179 1134.49 505.983C1134.02 505.787 1133.61 505.455 1133.33 505.029C1133.04 504.603 1132.89 504.102 1132.89 503.59C1132.89 502.903 1133.16 502.244 1133.65 501.759C1134.13 501.273 1134.79 501 1135.48 501Z" fill="#6960CD"/>
<path d="M1125.4 501C1125.91 500.998 1126.41 501.148 1126.84 501.432C1127.27 501.715 1127.6 502.119 1127.8 502.592C1128 503.065 1128.05 503.586 1127.95 504.089C1127.85 504.592 1127.61 505.055 1127.24 505.418C1126.88 505.781 1126.42 506.029 1125.92 506.129C1125.42 506.23 1124.89 506.18 1124.42 505.984C1123.95 505.788 1123.54 505.456 1123.26 505.03C1122.97 504.604 1122.82 504.103 1122.82 503.59C1122.82 502.906 1123.1 502.25 1123.58 501.765C1124.06 501.28 1124.72 501.005 1125.4 501Z" fill="#6960CD"/>
<path d="M1092.46 512.63V494.45" stroke="#6960CD" stroke-width="3" stroke-linecap="round" stroke-linejoin="round"/>
<path d="M804.28 50.5304L791.96 45.3904L822.25 32.9404L834.57 38.0804L804.28 50.5304Z" fill="#1C77FF"/>
<path d="M830.1 61.3097L817.79 56.1697L848.08 43.7197L860.39 48.8597L830.1 61.3097Z" fill="#1C77FF"/>
<path d="M855.92 72.08L843.61 66.95L873.9 54.5L886.21 59.64L855.92 72.08Z" fill="#1C77FF"/>
<path d="M881.75 82.8603L869.43 77.7203L899.72 65.2803L912.04 70.4203L881.75 82.8603Z" fill="#1C77FF"/>
<path d="M907.57 93.6398L895.25 88.4998L925.54 76.0498L937.86 81.1898L907.57 93.6398Z" fill="#1C77FF"/>
<path d="M933.39 104.42L921.08 99.2801L951.37 86.8301L963.68 91.9701L933.39 104.42Z" fill="#1C77FF"/>
<path d="M959.21 115.2L946.9 110.06L977.19 97.6104L989.5 102.75L959.21 115.2Z" fill="#1C77FF"/>
<path d="M985.03 125.981L972.72 120.841L1003.01 108.391L1015.33 113.531L985.03 125.981Z" fill="#1C77FF"/>
<path d="M1010.86 136.76L998.55 131.62L1028.84 119.17L1041.15 124.31L1010.86 136.76Z" fill="#1C77FF"/>
<path d="M1036.68 147.54L1024.37 142.4L1054.66 129.95L1066.97 135.09L1036.68 147.54Z" fill="#1C77FF"/>
<path d="M1062.51 158.32L1050.19 153.18L1080.48 140.73L1092.8 145.87L1062.51 158.32Z" fill="#1C77FF"/>
<path d="M1088.33 169.1L1076.01 163.96L1106.31 151.51L1118.62 156.65L1088.33 169.1Z" fill="#1C77FF"/>
<path d="M1114.15 179.88L1101.84 174.74L1132.13 162.29L1144.44 167.43L1114.15 179.88Z" fill="#1C77FF"/>
<path d="M810.03 27.8301L1146.29 168.2" stroke="#6960CD" stroke-width="3" stroke-linecap="round" stroke-linejoin="round"/>
<path d="M786.59 43.1406L1129.38 186.241" stroke="#6960CD" stroke-width="3" stroke-linecap="round" stroke-linejoin="round"/>
<path d="M20.57 566.02L7.70999 562.44L36.23 546.34L49.09 549.92L20.57 566.02Z" fill="#6AA2FC"/>
<path d="M47.53 573.531L34.67 569.951L63.19 553.851L76.04 557.431L47.53 573.531Z" fill="#6AA2FC"/>
<path d="M74.48 581.031L61.63 577.451L90.15 561.351L103 564.931L74.48 581.031Z" fill="#6AA2FC"/>
<path d="M101.44 588.53L88.58 584.96L117.1 568.86L129.96 572.44L101.44 588.53Z" fill="#6AA2FC"/>
<path d="M128.4 596.04L115.54 592.46L144.06 576.36L156.91 579.94L128.4 596.04Z" fill="#6AA2FC"/>
<path d="M155.35 603.55L142.5 599.97L171.02 583.87L183.87 587.45L155.35 603.55Z" fill="#6AA2FC"/>
<path d="M182.31 611.05L169.46 607.47L197.98 591.38L210.83 594.95L182.31 611.05Z" fill="#6AA2FC"/>
<path d="M209.27 618.55L196.41 614.98L224.93 598.88L237.79 602.46L209.27 618.55Z" fill="#6AA2FC"/>
<path d="M236.22 626.06L223.37 622.48L251.89 606.38L264.74 609.96L236.22 626.06Z" fill="#6AA2FC"/>
<path d="M263.18 633.561L250.33 629.991L278.85 613.891L291.7 617.471L263.18 633.561Z" fill="#6AA2FC"/>
<path d="M290.14 641.071L277.29 637.491L305.81 621.391L318.66 624.971L290.14 641.071Z" fill="#6AA2FC"/>
<path d="M317.1 648.58L304.24 645L332.76 628.9L345.62 632.48L317.1 648.58Z" fill="#6AA2FC"/>
<path d="M344.05 656.08L331.2 652.5L359.72 636.4L372.57 639.98L344.05 656.08Z" fill="#6AA2FC"/>
<path d="M23.47 542.79L374.5 640.52" stroke="#6960CD" stroke-width="3" stroke-linecap="round" stroke-linejoin="round"/>
<path d="M2.11 560.88L359.96 660.51" stroke="#6960CD" stroke-width="3" stroke-linecap="round" stroke-linejoin="round"/>
<path d="M210.19 396.73H168.97L172 382.96H207.15L210.19 396.73Z" fill="#6AA2FC"/>
<path d="M215.99 423.061H163.17L160.35 436.831H218.81L215.99 423.061Z" fill="#6AA2FC"/>
<path d="M225.52 466.36L200.18 351.32H178.97L153.63 466.36" stroke="#6960CD" stroke-width="3" stroke-linecap="round" stroke-linejoin="round"/>
<path d="M241.2 474.5L238.06 466.36H141.09L137.95 474.5H241.2Z" stroke="#6960CD" stroke-width="3" stroke-linecap="round" stroke-linejoin="round"/>
<path d="M116.28 474.49H100.62" stroke="#6960CD" stroke-width="3" stroke-linecap="round" stroke-linejoin="round"/>
<path d="M122.63 489.82L111.56 500.89" stroke="#6960CD" stroke-width="3" stroke-linecap="round" stroke-linejoin="round"/>
<path d="M137.95 496.17V511.83" stroke="#6960CD" stroke-width="3" stroke-linecap="round" stroke-linejoin="round"/>
<path d="M232 283C230.21 283 229.47 281.72 230.37 280.17L248 249.68C248.9 248.12 250.37 248.12 251.27 249.68L268.88 280.19C269.78 281.74 269.05 283.02 267.25 283.02L232 283Z" fill="#416D8D"/>
<path d="M456.99 477.351V522.741" stroke="white" stroke-width="3" stroke-linecap="round" stroke-linejoin="round"/>
<path d="M456.99 540.931V535.061" stroke="white" stroke-width="3" stroke-linecap="round" stroke-linejoin="round"/>
<path d="M699.45 156.51C699.45 145.39 701.3 135.51 708.61 128.15C714.439 122.328 718.41 114.909 720.021 106.83C721.632 98.7513 720.811 90.3761 717.66 82.7643C714.51 75.1525 709.173 68.646 702.325 64.0682C695.476 59.4904 687.423 57.0469 679.185 57.0469C670.947 57.0469 662.894 59.4904 656.045 64.0682C649.197 68.646 643.86 75.1525 640.71 82.7643C637.559 90.3761 636.738 98.7513 638.349 106.83C639.96 114.909 643.931 122.328 649.76 128.15C657.07 135.46 658.91 145.39 658.91 156.51H699.45Z" stroke="#6960CD" stroke-width="3" stroke-linecap="round" stroke-linejoin="round"/>
<path d="M703.48 156.51H654.86" stroke="#6960CD" stroke-width="3" stroke-linecap="round" stroke-linejoin="round"/>
<path d="M703.49 165.74H654.86" stroke="#6960CD" stroke-width="3" stroke-linecap="round" stroke-linejoin="round"/>
<path d="M703.48 174.96H654.86" stroke="#6960CD" stroke-width="3" stroke-linecap="round" stroke-linejoin="round"/>
<path d="M658.89 174.96V156.51" stroke="#6960CD" stroke-width="3" stroke-linecap="round" stroke-linejoin="round"/>
<path d="M699.45 174.96V156.51" stroke="#6960CD" stroke-width="3" stroke-linecap="round" stroke-linejoin="round"/>
<path d="M672.29 128.47V156.51" stroke="#6960CD" stroke-width="3" stroke-linecap="round" stroke-linejoin="round"/>
<path d="M672.29 128.47L657.68 113.86" stroke="#6960CD" stroke-width="3" stroke-linecap="round" stroke-linejoin="round"/>
<path d="M685.6 128.47V156.51" stroke="#6960CD" stroke-width="3" stroke-linecap="round" stroke-linejoin="round"/>
<path d="M685.6 128.47L700.2 113.86" stroke="#6960CD" stroke-width="3" stroke-linecap="round" stroke-linejoin="round"/>
<path d="M661.76 109.47L667.52 103.72L673.28 109.47L679.03 103.72L684.79 109.47L690.55 103.72L696.3 109.47" stroke="#6960CD" stroke-width="3" stroke-linecap="round" stroke-linejoin="round"/>
<path d="M659.82 184.19H698.52" stroke="#6960CD" stroke-width="3" stroke-linecap="round" stroke-linejoin="round"/>
<path d="M679.18 44.1299V35.1299" stroke="#6960CD" stroke-width="3" stroke-linecap="round" stroke-linejoin="round"/>
<path d="M717.77 60.12L724.14 53.75" stroke="#6960CD" stroke-width="3" stroke-linecap="round" stroke-linejoin="round"/>
<path d="M733.75 98.71H742.76" stroke="#6960CD" stroke-width="3" stroke-linecap="round" stroke-linejoin="round"/>
<path d="M717.77 137.311L724.14 143.671" stroke="#6960CD" stroke-width="3" stroke-linecap="round" stroke-linejoin="round"/>
<path d="M640.58 60.12L634.21 53.75" stroke="#6960CD" stroke-width="3" stroke-linecap="round" stroke-linejoin="round"/>
<path d="M624.6 98.71H615.59" stroke="#6960CD" stroke-width="3" stroke-linecap="round" stroke-linejoin="round"/>
<path d="M640.58 137.311L634.21 143.671" stroke="#6960CD" stroke-width="3" stroke-linecap="round" stroke-linejoin="round"/>
<path d="M504.55 644.77C504.549 645.37 504.666 645.965 504.895 646.52C505.124 647.075 505.461 647.58 505.886 648.004C506.31 648.429 506.815 648.765 507.37 648.995C507.925 649.224 508.52 649.341 509.12 649.34H550.73C551.939 649.34 553.099 648.859 553.954 648.004C554.81 647.149 555.29 645.989 555.29 644.78C555.29 643.57 554.81 642.411 553.954 641.555C553.099 640.7 551.939 640.22 550.73 640.22H509.12C508.521 640.218 507.928 640.335 507.374 640.563C506.821 640.791 506.317 641.126 505.893 641.548C505.468 641.971 505.131 642.473 504.901 643.025C504.671 643.578 504.551 644.171 504.55 644.77Z" stroke="#6960CD" stroke-width="3" stroke-linecap="round" stroke-linejoin="round"/>
<path d="M519.29 649.34V666.22" stroke="#6960CD" stroke-width="3" stroke-linecap="round" stroke-linejoin="round"/>
<path d="M540.65 649.34V666.22" stroke="#6960CD" stroke-width="3" stroke-linecap="round" stroke-linejoin="round"/>
<path d="M513.98 640.22V618.65" stroke="#6960CD" stroke-width="3" stroke-linecap="round" stroke-linejoin="round"/>
<path d="M545.96 640.22V618.65" stroke="#6960CD" stroke-width="3" stroke-linecap="round" stroke-linejoin="round"/>
<path d="M546 618.65C546 616.993 545.342 615.403 544.169 614.231C542.997 613.059 541.408 612.4 539.75 612.4H520.23C518.572 612.4 516.983 613.059 515.811 614.231C514.639 615.403 513.98 616.993 513.98 618.65" stroke="#6960CD" stroke-width="3" stroke-linecap="round" stroke-linejoin="round"/>
<path d="M524.94 587.84H534.99" stroke="#6960CD" stroke-width="3" stroke-linecap="round" stroke-linejoin="round"/>
<path d="M524.94 595.88H534.99" stroke="#6960CD" stroke-width="3" stroke-linecap="round" stroke-linejoin="round"/>
<path d="M524.94 604.351H534.99" stroke="#6960CD" stroke-width="3" stroke-linecap="round" stroke-linejoin="round"/>
<path d="M537.41 635.08C538.476 635.08 539.34 634.216 539.34 633.15C539.34 632.084 538.476 631.22 537.41 631.22C536.344 631.22 535.48 632.084 535.48 633.15C535.48 634.216 536.344 635.08 537.41 635.08Z" fill="#6960CD"/>
<path d="M522.53 635.08C523.596 635.08 524.46 634.216 524.46 633.15C524.46 632.084 523.596 631.22 522.53 631.22C521.464 631.22 520.6 632.084 520.6 633.15C520.6 634.216 521.464 635.08 522.53 635.08Z" fill="#6960CD"/>
<path d="M574.76 488V533.57C574.739 537.404 573.201 541.075 570.482 543.778C567.763 546.482 564.084 548 560.25 548L555.74 552.5" stroke="#6960CD" stroke-width="3" stroke-linecap="round" stroke-linejoin="round"/>
<path d="M530 587.841V562.54C529.996 560.635 530.367 558.747 531.093 556.985C531.819 555.224 532.884 553.622 534.229 552.272C535.573 550.921 537.171 549.849 538.93 549.116C540.688 548.384 542.574 548.004 544.48 548L549.25 543.23" stroke="#6960CD" stroke-width="3" stroke-linecap="round" stroke-linejoin="round"/>
<path d="M180 535.71C182.265 537.971 185.335 539.241 188.535 539.241C191.735 539.241 194.805 537.971 197.07 535.71C199.337 533.448 202.408 532.178 205.61 532.178C208.812 532.178 211.883 533.448 214.15 535.71C216.413 537.971 219.481 539.24 222.68 539.24C225.879 539.24 228.947 537.971 231.21 535.71C233.475 533.449 236.545 532.179 239.745 532.179C242.945 532.179 246.015 533.449 248.28 535.71" stroke="#416D8D" stroke-width="3" stroke-linecap="round"/>
<path d="M91.54 642.921C92.6601 644.043 93.9905 644.933 95.4551 645.54C96.9196 646.148 98.4895 646.46 100.075 646.46C101.66 646.46 103.23 646.148 104.695 645.54C106.159 644.933 107.49 644.043 108.61 642.921C110.877 640.664 113.946 639.397 117.145 639.397C120.344 639.397 123.413 640.664 125.68 642.921C126.796 644.048 128.124 644.944 129.589 645.555C131.053 646.166 132.623 646.48 134.21 646.48C135.797 646.48 137.367 646.166 138.831 645.555C140.296 644.944 141.624 644.048 142.74 642.921C145.007 640.664 148.076 639.397 151.275 639.397C154.474 639.397 157.543 640.664 159.81 642.921" stroke="#1C77FF" stroke-width="3" stroke-linecap="round"/>
<path d="M804.12 192.66H790.63" stroke="#6AA2FC" stroke-width="3" stroke-linecap="round"/>
<path d="M765.43 192.66H721.78" stroke="#6AA2FC" stroke-width="3" stroke-linecap="round"/>
<path d="M1077.53 284.72H1064.03" stroke="#6AA2FC" stroke-width="3" stroke-linecap="round"/>
<path d="M1038.84 284.72H967.22" stroke="#6AA2FC" stroke-width="3" stroke-linecap="round"/>
<path d="M280.86 207.53H198.52" stroke="#6AA2FC" stroke-width="3" stroke-linecap="round"/>
<path d="M1051.71 585.771H1038.21" stroke="#416D8D" stroke-width="3" stroke-linecap="round"/>
<path d="M1013.02 585.771H948.78" stroke="#416D8D" stroke-width="3" stroke-linecap="round"/>
<path d="M979.26 560.04H869.62" stroke="#1C77FF" stroke-width="3" stroke-linecap="round"/>
<path d="M198.71 310.45H151.11" stroke="#416D8D" stroke-width="3" stroke-linecap="round"/>
<path d="M157.54 330.57H133.1" stroke="#1C77FF" stroke-width="3" stroke-linecap="round"/>
<path d="M1117.26 63.9902H1103.77" stroke="#6AA2FC" stroke-width="3" stroke-linecap="round"/>
<path d="M1078.57 63.9902H989.55" stroke="#6AA2FC" stroke-width="3" stroke-linecap="round"/>
<path d="M1142.86 36.5498H1051.6" stroke="#416D8D" stroke-width="3" stroke-linecap="round"/>
<path d="M726.9 213.34H664.22" stroke="#416D8D" stroke-width="3" stroke-linecap="round"/>
<path d="M738.97 611.851H700.24" stroke="#416D8D" stroke-width="3" stroke-linecap="round"/>
<path d="M277.27 513.72H226.49" stroke="#6AA2FC" stroke-width="3" stroke-linecap="round"/>
<path d="M561.41 109.75H468.17" stroke="#6AA2FC" stroke-width="3" stroke-linecap="round"/>
<path d="M723.26 590.63H630.02" stroke="#6AA2FC" stroke-width="3" stroke-linecap="round"/>
<path d="M493.79 132.811H433.96" stroke="#1C77FF" stroke-width="3" stroke-linecap="round"/>
<path d="M229.63 175.47H222.32" stroke="#416D8D" stroke-width="3" stroke-linecap="round"/>
<path d="M208.66 175.47H161.17" stroke="#416D8D" stroke-width="3" stroke-linecap="round"/>
<path d="M962 350.57C962 346.511 960.388 342.619 957.519 339.748C954.65 336.877 950.759 335.263 946.7 335.26C950.751 335.26 954.636 333.654 957.505 330.793C960.373 327.932 961.989 324.051 962 320C962.003 324.059 963.617 327.95 966.488 330.819C969.359 333.688 973.251 335.3 977.31 335.3C973.257 335.303 969.371 336.911 966.501 339.773C963.632 342.635 962.013 346.517 962 350.57Z" stroke="#1C77FF" stroke-width="3" stroke-linecap="round" stroke-linejoin="round"/>
<path d="M429 624.37C429.001 622.359 428.606 620.368 427.837 618.51C427.068 616.651 425.941 614.963 424.519 613.541C423.097 612.119 421.409 610.992 419.55 610.223C417.692 609.454 415.701 609.059 413.69 609.06C415.701 609.061 417.692 608.666 419.55 607.897C421.409 607.128 423.097 606.001 424.519 604.579C425.941 603.157 427.068 601.469 427.837 599.61C428.606 597.752 429.001 595.761 429 593.75C428.999 595.76 429.393 597.751 430.162 599.608C430.93 601.466 432.057 603.153 433.478 604.575C434.899 605.997 436.586 607.125 438.443 607.894C440.3 608.664 442.29 609.06 444.3 609.06C442.29 609.06 440.3 609.456 438.443 610.226C436.586 610.995 434.899 612.123 433.478 613.545C432.057 614.967 430.93 616.654 430.162 618.512C429.393 620.369 428.999 622.36 429 624.37Z" stroke="#1C77FF" stroke-width="3" stroke-linecap="round" stroke-linejoin="round"/>
<path d="M680.33 233.7V239.38" stroke="#1C77FF" stroke-width="3" stroke-linecap="round" stroke-linejoin="round"/>
<path d="M674.75 244.96H669.07" stroke="#1C77FF" stroke-width="3" stroke-linecap="round" stroke-linejoin="round"/>
<path d="M680.33 256.21V250.53" stroke="#1C77FF" stroke-width="3" stroke-linecap="round" stroke-linejoin="round"/>
<path d="M685.9 244.96H691.58" stroke="#1C77FF" stroke-width="3" stroke-linecap="round" stroke-linejoin="round"/>
<path d="M805.98 125.19V130.88" stroke="#416D8D" stroke-width="3" stroke-linecap="round" stroke-linejoin="round"/>
<path d="M800.41 136.45H794.73" stroke="#416D8D" stroke-width="3" stroke-linecap="round" stroke-linejoin="round"/>
<path d="M805.98 147.711V142.021" stroke="#416D8D" stroke-width="3" stroke-linecap="round" stroke-linejoin="round"/>
<path d="M811.56 136.45H817.24" stroke="#416D8D" stroke-width="3" stroke-linecap="round" stroke-linejoin="round"/>
<path d="M608.93 677.53V683.22" stroke="#1C77FF" stroke-width="3" stroke-linecap="round" stroke-linejoin="round"/>
<path d="M603.35 688.79H597.67" stroke="#1C77FF" stroke-width="3" stroke-linecap="round" stroke-linejoin="round"/>
<path d="M608.93 700.05V694.37" stroke="#1C77FF" stroke-width="3" stroke-linecap="round" stroke-linejoin="round"/>
<path d="M614.5 688.79H620.18" stroke="#1C77FF" stroke-width="3" stroke-linecap="round" stroke-linejoin="round"/>
<path d="M953.16 602.44V608.12" stroke="#6AA2FC" stroke-width="3" stroke-linecap="round" stroke-linejoin="round"/>
<path d="M947.58 613.7H941.9" stroke="#6AA2FC" stroke-width="3" stroke-linecap="round" stroke-linejoin="round"/>
<path d="M953.16 624.951V619.271" stroke="#6AA2FC" stroke-width="3" stroke-linecap="round" stroke-linejoin="round"/>
<path d="M958.74 613.7H964.42" stroke="#6AA2FC" stroke-width="3" stroke-linecap="round" stroke-linejoin="round"/>
<path d="M868.5 493.48V499.16" stroke="#416D8D" stroke-width="3" stroke-linecap="round" stroke-linejoin="round"/>
<path d="M862.92 504.73H857.24" stroke="#416D8D" stroke-width="3" stroke-linecap="round" stroke-linejoin="round"/>
<path d="M868.5 515.991V510.311" stroke="#416D8D" stroke-width="3" stroke-linecap="round" stroke-linejoin="round"/>
<path d="M874.07 504.73H879.76" stroke="#416D8D" stroke-width="3" stroke-linecap="round" stroke-linejoin="round"/>
<path d="M846.81 227.46C847.545 228.199 848.419 228.786 849.382 229.187C850.345 229.587 851.377 229.793 852.42 229.793C853.463 229.793 854.495 229.587 855.458 229.187C856.421 228.786 857.295 228.199 858.03 227.46C859.526 225.988 861.541 225.163 863.64 225.163C865.739 225.163 867.754 225.988 869.25 227.46" stroke="#416D8D" stroke-width="3" stroke-linecap="round"/>
<path d="M277.21 191.14C282.374 191.14 286.56 186.954 286.56 181.79C286.56 176.627 282.374 172.44 277.21 172.44C272.046 172.44 267.86 176.627 267.86 181.79C267.86 186.954 272.046 191.14 277.21 191.14Z" stroke="#416D8D" stroke-width="3" stroke-linecap="round" stroke-linejoin="round"/>
<path d="M437 1.9502L425.43 13.5302L437 25.1102L425.43 36.6902L437 48.2702L425.43 59.8502L437 71.4302L425.43 83.0002L437 94.5802L425.43 106.16" stroke="#416D8D" stroke-width="3" stroke-linecap="round" stroke-linejoin="round"/>
<path d="M1001.03 256.84L1012.61 245.26L1001.03 233.69L1012.61 222.11L1001.03 210.53L1012.61 198.95L1001.03 187.37L1012.61 175.79" stroke="#1C77FF" stroke-width="3" stroke-linecap="round" stroke-linejoin="round"/>
<path d="M56.83 427.141L45.25 438.721L56.83 450.301L45.25 461.881L56.83 473.461L45.25 485.041" stroke="#416D8D" stroke-width="3" stroke-linecap="round" stroke-linejoin="round"/>
</svg>
