<svg width="1200" height="450" viewBox="0 0 1200 450" fill="none" xmlns="http://www.w3.org/2000/svg">
<g clip-path="url(#clip0_98_2)">
<mask id="mask0_98_2" style="mask-type:luminance" maskUnits="userSpaceOnUse" x="-1" y="-2" width="398" height="251">
<path fill-rule="evenodd" clip-rule="evenodd" d="M243.153 0L199.518 29.0153V70.1214L243.668 118.593V1.55335L304.939 17.2139V122.48L306.532 124.258L306.377 16.0963L243.153 0ZM253.476 21.34V127.878L260.163 136.131L291.108 107.059L291.117 107.015H291.138L291.169 106.971L291.677 107.603L297.658 114.288V32.0206L288.682 29.9472V107.386L280.136 114.176V27.9086L270.948 25.498V120.635L262.641 125.464V23.5648L253.481 21.3015L253.476 21.34ZM325.428 29.9012L309.209 40.1426V127.253L325.894 145.915V31.4479L379.674 44.9155V238.867H373.862V58.6006L365.533 56.3727V238.867H358.368V54.4608L349.3 52.036V172.09L352.978 176.203H349.3V238.867H342.134V175.88L289.889 117.609L285.943 121.918L334.503 175.88V238.867H125.946V156.009L67.9154 180.793V238.867H50.3782V188.285L12.7531 204.354V238.867H0V247.933H395.387L394.746 238.867H381.12V43.7907L325.428 29.9012ZM333.742 47.8815V154.688L342.134 164.079V50.1237L333.742 47.8815ZM197.052 68.5327L44.3186 163.958L2.55064 204.354L106.816 157.597L197.052 68.5327ZM198.222 81.0938L191.909 86.7168L257.295 159.368L264.735 156.445L198.222 81.0938ZM170.905 145.296V148.895H212.786V202.133H216.393V145.296H170.905ZM170.955 154.539V175.219H187.379V154.539H170.955ZM192.86 154.589V175.267H209.284V154.589H192.86ZM270.393 166.291V169.11H303.171V210.777H305.996V166.291H270.393ZM270.429 173.524V189.712H283.28V173.524H270.429ZM287.571 173.568V189.749H300.43V173.568H287.571ZM170.934 181.145V201.824H187.357V181.145H170.934ZM192.839 181.145V201.817H209.256V181.145H192.839ZM270.414 194.346V210.526H283.266V194.346H270.414ZM287.557 194.346V210.526H300.409V194.346H287.557Z" fill="url(#paint0_linear_98_2)" stroke="#8F5E25" stroke-width="2"/>
</mask>
<g mask="url(#mask0_98_2)">
<path fill-rule="evenodd" clip-rule="evenodd" d="M243.153 0L199.518 29.0153V70.1214L243.668 118.593V1.55335L304.939 17.2139V122.48L306.532 124.258L306.377 16.0963L243.153 0ZM253.476 21.34V127.878L260.163 136.131L291.108 107.059L291.117 107.015H291.138L291.169 106.971L291.677 107.603L297.658 114.288V32.0206L288.682 29.9472V107.386L280.136 114.176V27.9086L270.948 25.498V120.635L262.641 125.464V23.5648L253.481 21.3015L253.476 21.34ZM325.428 29.9012L309.209 40.1426V127.253L325.894 145.915V31.4479L379.674 44.9155V238.867H373.862V58.6006L365.533 56.3727V238.867H358.368V54.4608L349.3 52.036V172.09L352.978 176.203H349.3V238.867H342.134V175.88L289.889 117.609L285.943 121.918L334.503 175.88V238.867H125.946V156.009L67.9154 180.793V238.867H50.3782V188.285L12.7531 204.354V238.867H0V247.933H395.387L394.746 238.867H381.12V43.7907L325.428 29.9012ZM333.742 47.8815V154.688L342.134 164.079V50.1237L333.742 47.8815ZM197.052 68.5327L44.3186 163.958L2.55064 204.354L106.816 157.597L197.052 68.5327ZM198.222 81.0938L191.909 86.7168L257.295 159.368L264.735 156.445L198.222 81.0938ZM170.905 145.296V148.895H212.786V202.133H216.393V145.296H170.905ZM170.955 154.539V175.219H187.379V154.539H170.955ZM192.86 154.589V175.267H209.284V154.589H192.86ZM270.393 166.291V169.11H303.171V210.777H305.996V166.291H270.393ZM270.429 173.524V189.712H283.28V173.524H270.429ZM287.571 173.568V189.749H300.43V173.568H287.571ZM170.934 181.145V201.824H187.357V181.145H170.934ZM192.839 181.145V201.817H209.256V181.145H192.839ZM270.414 194.346V210.526H283.266V194.346H270.414ZM287.557 194.346V210.526H300.409V194.346H287.557Z" fill="url(#paint1_linear_98_2)" stroke="#8F5E25" stroke-width="2"/>
</g>
<path d="M1100.67 296.275C1102.43 294.115 1105.81 294.115 1107.57 296.275L1120.79 312.545C1121.89 313.897 1123.73 314.473 1125.44 314.004L1146.03 308.361C1148.76 307.612 1151.5 309.536 1151.6 312.282L1152.42 332.963C1152.48 334.682 1153.62 336.191 1155.29 336.784L1175.38 343.922C1178.05 344.87 1179.09 347.983 1177.51 350.267L1165.6 367.46C1164.6 368.889 1164.6 370.755 1165.6 372.184L1177.51 389.376C1179.09 391.66 1178.05 394.773 1175.38 395.721L1155.29 402.859C1153.62 403.453 1152.48 404.962 1152.42 406.681L1151.6 427.362C1151.5 430.109 1148.76 432.033 1146.03 431.283L1125.44 425.64C1123.73 425.17 1121.89 425.747 1120.79 427.099L1107.57 443.368C1105.81 445.529 1102.43 445.529 1100.67 443.368L1087.44 427.099C1086.35 425.747 1084.51 425.17 1082.8 425.64L1062.21 431.283C1059.48 432.033 1056.74 430.109 1056.63 427.362L1055.81 406.681C1055.75 404.962 1054.62 403.453 1052.95 402.859L1032.86 395.721C1030.19 394.773 1029.14 391.66 1030.72 389.376L1042.64 372.184C1043.63 370.755 1043.63 368.889 1042.64 367.46L1030.72 350.267C1029.14 347.983 1030.19 344.87 1032.86 343.922L1052.95 336.784C1054.62 336.191 1055.75 334.682 1055.81 332.963L1056.63 312.282C1056.74 309.536 1059.48 307.612 1062.21 308.361L1082.8 314.004C1084.51 314.473 1086.35 313.897 1087.44 312.545L1100.67 296.275Z" fill="#FAD303" stroke="#008080" stroke-width="9"/>
<path d="M1078.17 371.494L1095.47 386.527L1130.07 356.46" stroke="#008080" stroke-width="20" stroke-linecap="round" stroke-linejoin="round"/>
<path d="M274.74 382.368L275.834 403.563C274.051 406.603 271.661 409.355 268.663 411.82C265.665 414.284 261.938 416.297 257.482 417.858C253.025 419.337 247.759 420.076 241.682 420.076C231.797 419.994 223.128 418.186 215.673 414.654C208.3 411.039 202.588 405.905 198.536 399.25C194.485 392.596 192.46 384.545 192.46 375.098C192.46 365.897 194.445 357.969 198.415 351.315C202.385 344.579 208.057 339.403 215.43 335.788C222.884 332.173 231.757 330.366 242.046 330.366C248.529 330.366 254.322 331.023 259.426 332.338C264.611 333.652 268.947 335.254 272.431 337.143L272.552 358.215H271.458C269.271 350.082 265.705 344.291 260.763 340.84C255.821 337.308 250.027 335.542 243.383 335.542C236.901 335.542 231.351 337.144 226.733 340.347C222.114 343.551 218.549 348.069 216.038 353.903C213.526 359.736 212.27 366.718 212.27 374.851C212.27 382.984 213.445 390.008 215.795 395.923C218.225 401.838 221.628 406.439 226.004 409.725C230.46 413.011 235.686 414.736 241.682 414.9C247.921 414.9 253.187 413.873 257.482 411.82C261.776 409.766 265.219 406.356 267.812 401.592C270.486 396.827 272.471 390.419 273.767 382.368H274.74ZM311.599 344.414V418.351H294.097V344.414H311.599ZM340.038 413.422L342.834 418.351H311.356V413.422H340.038ZM335.906 379.287V384.217H311.356V379.287H335.906ZM341.375 344.414V349.343H311.356V344.414H341.375ZM347.817 395.677L343.198 418.351H322.172L325.94 413.422C329.424 413.422 332.503 412.724 335.177 411.327C337.931 409.848 340.281 407.795 342.226 405.165C344.17 402.454 345.669 399.292 346.723 395.677H347.817ZM335.906 383.97V394.814H334.691V393.828C334.691 391.117 333.84 388.858 332.138 387.051C330.518 385.244 328.289 384.298 325.454 384.217V383.97H335.906ZM335.906 368.69V379.534H325.454V379.287C328.289 379.206 330.518 378.26 332.138 376.453C333.84 374.563 334.691 372.263 334.691 369.552V368.69H335.906ZM341.375 349.097V362.159H340.16V361.05C340.16 357.435 339.187 354.601 337.243 352.547C335.379 350.493 332.664 349.425 329.1 349.343V349.097H341.375ZM341.375 342.566V345.523L328.614 344.414C330.963 344.414 333.434 344.209 336.027 343.798C338.62 343.305 340.403 342.894 341.375 342.566ZM294.341 410.587L294.948 418.351H285.954V417.119C285.954 417.119 286.198 417.119 286.684 417.119C287.17 417.119 287.453 417.119 287.534 417.119C289.317 417.119 290.816 416.502 292.031 415.27C293.327 413.956 294.016 412.394 294.097 410.587H294.341ZM294.341 352.177H294.097C294.016 350.288 293.327 348.727 292.031 347.495C290.816 346.262 289.317 345.646 287.534 345.646C287.453 345.646 287.17 345.646 286.684 345.646C286.198 345.646 285.954 345.646 285.954 345.646V344.414H294.948L294.341 352.177ZM379.239 344.414H392.365C395.687 344.414 398.928 344.784 402.088 345.523C405.248 346.181 408.084 347.29 410.595 348.85C413.108 350.329 415.092 352.382 416.551 355.012C418.091 357.558 418.86 360.762 418.86 364.623C418.86 367.499 418.252 370.374 417.037 373.249C415.903 376.042 414.08 378.466 411.568 380.52C409.137 382.573 405.937 383.929 401.966 384.586C404.316 385.326 406.545 386.763 408.651 388.899C410.838 391.036 412.54 393.048 413.755 394.937C414.08 395.595 414.647 396.663 415.457 398.141C416.268 399.538 417.28 401.181 418.495 403.07C419.792 404.878 421.129 406.767 422.506 408.739C424.127 410.957 425.544 412.682 426.76 413.915C427.975 415.065 429.231 415.886 430.527 416.379C431.824 416.872 433.323 417.119 435.024 417.119V418.351H424.815C420.44 418.351 416.713 418.022 413.634 417.365C410.636 416.707 408.003 415.517 405.734 413.791C403.546 411.984 401.521 409.56 399.657 406.521C398.928 405.453 398.159 404.18 397.348 402.701C396.538 401.14 395.728 399.579 394.917 398.018C394.107 396.458 393.378 394.937 392.729 393.459C392.163 391.98 391.757 390.748 391.514 389.762C390.461 387.133 389.246 385.244 387.868 384.093C386.572 382.861 385.357 382.245 384.222 382.245V381.136C384.222 381.136 384.506 381.136 385.073 381.136C385.64 381.136 386.37 381.136 387.26 381.136C388.962 381.136 390.623 380.848 392.243 380.273C393.945 379.616 395.485 378.425 396.862 376.7C398.239 374.893 399.252 372.263 399.9 368.813C400.062 368.32 400.184 367.622 400.265 366.718C400.427 365.814 400.468 364.788 400.386 363.638C400.225 360.598 399.657 358.174 398.685 356.367C397.794 354.477 396.659 353.081 395.282 352.177C393.905 351.191 392.486 350.534 391.028 350.206C389.651 349.795 388.436 349.59 387.382 349.59C385.843 349.508 384.425 349.508 383.128 349.59C381.913 349.59 380.981 349.548 380.333 349.466C380.252 349.466 380.13 349.055 379.968 348.234C379.807 347.33 379.644 346.467 379.482 345.646C379.321 344.825 379.239 344.414 379.239 344.414ZM380.454 344.414V418.351H362.832V344.414H380.454ZM363.196 410.587L363.682 418.351H354.932V417.119C355.013 417.119 355.216 417.119 355.539 417.119C355.945 417.119 356.229 417.119 356.39 417.119C358.173 417.119 359.672 416.502 360.887 415.27C362.184 413.956 362.872 412.394 362.953 410.587H363.196ZM363.196 352.054H362.953C362.872 350.164 362.184 348.645 360.887 347.495C359.672 346.262 358.213 345.646 356.512 345.646C356.269 345.646 355.945 345.646 355.539 345.646C355.216 345.646 355.013 345.646 354.932 345.646V344.414H363.682L363.196 352.054ZM380.211 410.587H380.454C380.454 412.641 381.144 414.243 382.52 415.393C383.979 416.544 385.519 417.119 387.139 417.119C387.139 417.119 387.301 417.119 387.625 417.119C387.95 417.119 388.193 417.119 388.354 417.119V418.351H379.604L380.211 410.587ZM472.782 344.784V418.351H455.159V344.784H472.782ZM499.277 344.291V349.22H428.786V344.291H499.277ZM499.277 348.85V361.912H497.94V360.803C498.022 357.271 497.049 354.477 495.023 352.424C493.079 350.37 490.365 349.302 486.88 349.22V348.85H499.277ZM499.277 342.442V345.523L486.394 344.291C487.934 344.291 489.595 344.209 491.377 344.044C493.16 343.798 494.78 343.551 496.239 343.305C497.697 342.977 498.71 342.689 499.277 342.442ZM455.402 410.587V418.351H447.259V417.119C447.259 417.119 447.462 417.119 447.867 417.119C448.353 417.119 448.596 417.119 448.596 417.119C450.379 417.119 451.878 416.502 453.093 415.27C454.39 413.956 455.078 412.394 455.159 410.587H455.402ZM472.417 410.587H472.782C472.782 412.394 473.43 413.956 474.727 415.27C476.023 416.502 477.603 417.119 479.466 417.119C479.466 417.119 479.67 417.119 480.074 417.119C480.56 417.119 480.803 417.119 480.803 417.119V418.351H472.417V410.587ZM441.183 348.85V349.22C437.618 349.302 434.863 350.37 432.918 352.424C431.055 354.477 430.123 357.271 430.123 360.803V361.912H428.786V348.85H441.183ZM428.786 342.442C429.515 342.607 430.569 342.853 431.946 343.182C433.404 343.51 434.984 343.798 436.686 344.044C438.469 344.209 440.089 344.291 441.547 344.291L428.786 345.523V342.442ZM531.535 344.414V418.351H514.034V344.414H531.535ZM514.399 410.587V418.351H505.527V417.119C505.527 417.119 505.77 417.119 506.256 417.119C506.742 417.119 507.026 417.119 507.107 417.119C508.97 417.119 510.591 416.502 511.968 415.27C513.346 413.956 514.034 412.394 514.034 410.587H514.399ZM531.292 410.587H531.535C531.617 412.394 532.305 413.956 533.602 415.27C534.979 416.502 536.64 417.119 538.585 417.119C538.585 417.119 538.788 417.119 539.192 417.119C539.678 417.119 539.962 417.119 540.043 417.119V418.351H531.292V410.587ZM531.292 352.177V344.414H540.043L539.921 345.646C539.921 345.646 539.719 345.646 539.314 345.646C538.909 345.646 538.666 345.646 538.585 345.646C536.64 345.646 534.979 346.262 533.602 347.495C532.305 348.727 531.617 350.288 531.535 352.177H531.292ZM514.399 352.177H514.034C514.034 350.288 513.346 348.727 511.968 347.495C510.591 346.262 508.93 345.646 506.985 345.646C506.985 345.646 506.742 345.646 506.256 345.646C505.77 345.646 505.527 345.646 505.527 345.646V344.414H514.399V352.177ZM573.187 344.414V418.351H555.685V344.414H573.187ZM597.615 379.287V384.217H572.943V379.287H597.615ZM603.206 344.414V349.343H572.943V344.414H603.206ZM597.615 383.97V394.814H596.4V393.828C596.4 391.117 595.549 388.858 593.848 387.051C592.227 385.244 589.959 384.298 587.042 384.217V383.97H597.615ZM597.615 368.69V379.534H587.042V379.287C589.959 379.206 592.227 378.26 593.848 376.453C595.549 374.563 596.4 372.263 596.4 369.552V368.69H597.615ZM603.206 348.973V362.282H601.869V361.05C601.869 357.517 600.897 354.724 598.952 352.67C597.088 350.534 594.334 349.425 590.688 349.343V348.973H603.206ZM603.206 342.566V345.523L590.323 344.414C591.862 344.414 593.483 344.332 595.185 344.167C596.967 343.921 598.588 343.675 600.046 343.428C601.504 343.1 602.558 342.812 603.206 342.566ZM556.05 410.587L556.536 418.351H547.542V417.119C547.542 417.119 547.785 417.119 548.272 417.119C548.758 417.119 549.042 417.119 549.122 417.119C550.905 417.119 552.445 416.502 553.741 415.27C555.037 413.956 555.685 412.394 555.685 410.587H556.05ZM556.05 352.177H555.685C555.685 350.288 555.037 348.727 553.741 347.495C552.445 346.262 550.905 345.646 549.122 345.646C549.042 345.646 548.758 345.646 548.272 345.646C547.785 345.646 547.542 345.646 547.542 345.646V344.414H556.536L556.05 352.177ZM572.943 410.587H573.187C573.267 412.394 573.916 413.956 575.131 415.27C576.427 416.502 578.007 417.119 579.871 417.119C579.871 417.119 580.114 417.119 580.6 417.119C581.086 417.119 581.37 417.119 581.451 417.119L581.329 418.351H572.457L572.943 410.587ZM638.592 344.414V418.351H621.091V344.414H638.592ZM621.455 410.587V418.351H612.583V417.119C612.583 417.119 612.826 417.119 613.312 417.119C613.798 417.119 614.082 417.119 614.163 417.119C616.027 417.119 617.648 416.502 619.024 415.27C620.402 413.956 621.091 412.394 621.091 410.587H621.455ZM638.349 410.587H638.592C638.673 412.394 639.362 413.956 640.658 415.27C642.036 416.502 643.696 417.119 645.641 417.119C645.641 417.119 645.844 417.119 646.249 417.119C646.735 417.119 647.019 417.119 647.099 417.119V418.351H638.349V410.587ZM638.349 352.177V344.414H647.099L646.978 345.646C646.978 345.646 646.776 345.646 646.37 345.646C645.966 345.646 645.722 345.646 645.641 345.646C643.696 345.646 642.036 346.262 640.658 347.495C639.362 348.727 638.673 350.288 638.592 352.177H638.349ZM621.455 352.177H621.091C621.091 350.288 620.402 348.727 619.024 347.495C617.648 346.262 615.986 345.646 614.041 345.646C614.041 345.646 613.798 345.646 613.312 345.646C612.826 345.646 612.583 345.646 612.583 345.646V344.414H621.455V352.177ZM680.243 344.414V418.351H662.742V344.414H680.243ZM708.682 413.422L711.478 418.351H680V413.422H708.682ZM704.55 379.287V384.217H680V379.287H704.55ZM710.019 344.414V349.343H680V344.414H710.019ZM716.461 395.677L711.842 418.351H690.817L694.584 413.422C698.068 413.422 701.147 412.724 703.821 411.327C706.576 409.848 708.925 407.795 710.87 405.165C712.815 402.454 714.314 399.292 715.367 395.677H716.461ZM704.55 383.97V394.814H703.335V393.828C703.335 391.117 702.484 388.858 700.783 387.051C699.162 385.244 696.934 384.298 694.098 384.217V383.97H704.55ZM704.55 368.69V379.534H694.098V379.287C696.934 379.206 699.162 378.26 700.783 376.453C702.484 374.563 703.335 372.263 703.335 369.552V368.69H704.55ZM710.019 349.097V362.159H708.804V361.05C708.804 357.435 707.832 354.601 705.887 352.547C704.023 350.493 701.309 349.425 697.744 349.343V349.097H710.019ZM710.019 342.566V345.523L697.258 344.414C699.608 344.414 702.079 344.209 704.672 343.798C707.265 343.305 709.047 342.894 710.019 342.566ZM662.985 410.587L663.592 418.351H654.599V417.119C654.599 417.119 654.842 417.119 655.328 417.119C655.814 417.119 656.098 417.119 656.179 417.119C657.961 417.119 659.46 416.502 660.676 415.27C661.972 413.956 662.661 412.394 662.742 410.587H662.985ZM662.985 352.177H662.742C662.661 350.288 661.972 348.727 660.676 347.495C659.46 346.262 657.961 345.646 656.179 345.646C656.098 345.646 655.814 345.646 655.328 345.646C654.842 345.646 654.599 345.646 654.599 345.646V344.414H663.592L662.985 352.177ZM763.683 344.414C772.353 344.414 779.807 345.893 786.046 348.85C792.285 351.726 797.065 355.956 800.387 361.543C803.709 367.047 805.37 373.66 805.37 381.382C805.37 389.104 803.709 395.718 800.387 401.222C797.065 406.726 792.285 410.957 786.046 413.915C779.807 416.872 772.353 418.351 763.683 418.351H736.702L736.459 413.422C742.617 413.422 747.559 413.422 751.286 413.422C755.095 413.422 757.849 413.422 759.551 413.422C761.334 413.422 762.224 413.422 762.224 413.422C769.841 413.422 775.837 410.587 780.212 404.919C784.587 399.25 786.775 391.405 786.775 381.382C786.775 371.36 784.587 363.514 780.212 357.846C775.837 352.095 769.841 349.22 762.224 349.22C762.224 349.22 761.334 349.22 759.551 349.22C757.768 349.22 754.892 349.22 750.922 349.22C746.952 349.22 741.726 349.22 735.243 349.22V344.414H763.683ZM748.491 344.414V418.351H730.99V344.414H748.491ZM731.354 410.464V418.351H722.604V417.119C722.604 417.119 722.847 417.119 723.333 417.119C723.819 417.119 724.103 417.119 724.184 417.119C726.047 417.119 727.627 416.461 728.924 415.147C730.301 413.833 730.99 412.271 730.99 410.464H731.354ZM731.233 352.177H730.99C730.909 350.288 730.18 348.727 728.802 347.495C727.506 346.262 725.926 345.646 724.062 345.646C724.062 345.646 723.819 345.646 723.333 345.646C722.847 345.646 722.604 345.646 722.604 345.646V344.414H731.233V352.177Z" fill="#008080"/>
<path d="M451.129 67.543V124H438.979V67.543H451.129ZM470.974 67.219V70.621H419.134V67.219H470.974ZM470.974 70.378V79.936L470.164 79.855V78.964C470.164 76.426 469.408 74.428 467.896 72.97C466.438 71.458 464.44 70.675 461.902 70.621V70.378H470.974ZM470.974 65.761V68.11L461.092 67.219C462.28 67.219 463.522 67.138 464.818 66.976C466.168 66.814 467.41 66.625 468.544 66.409C469.678 66.193 470.488 65.977 470.974 65.761ZM439.222 118.087V124H432.742V123.19C432.742 123.19 432.904 123.19 433.228 123.19C433.606 123.19 433.795 123.19 433.795 123.19C435.199 123.19 436.387 122.704 437.359 121.732C438.385 120.706 438.925 119.491 438.979 118.087H439.222ZM450.886 118.087H451.129C451.183 119.491 451.696 120.706 452.668 121.732C453.694 122.704 454.909 123.19 456.313 123.19C456.313 123.19 456.475 123.19 456.799 123.19C457.177 123.19 457.366 123.19 457.366 123.19V124H450.886V118.087ZM428.125 70.378V70.621C425.641 70.675 423.643 71.458 422.131 72.97C420.673 74.428 419.944 76.426 419.944 78.964V79.855L419.134 79.936V70.378H428.125ZM419.134 65.761C419.674 65.977 420.484 66.193 421.564 66.409C422.698 66.625 423.94 66.814 425.29 66.976C426.64 67.138 427.882 67.219 429.016 67.219L419.134 68.11V65.761ZM491.547 75.4H500.295C502.509 75.4 504.669 75.643 506.775 76.129C508.881 76.561 510.771 77.29 512.445 78.316C514.119 79.288 515.442 80.638 516.414 82.366C517.44 84.04 517.953 86.146 517.953 88.684C517.953 90.574 517.548 92.464 516.738 94.354C515.982 96.19 514.767 97.783 513.093 99.133C511.473 100.483 509.34 101.374 506.694 101.806C508.26 102.292 509.745 103.237 511.149 104.641C512.607 106.045 513.741 107.368 514.551 108.61C514.767 109.042 515.145 109.744 515.685 110.716C516.225 111.634 516.9 112.714 517.71 113.956C518.574 115.144 519.465 116.386 520.383 117.682C521.463 119.14 522.408 120.274 523.218 121.084C524.028 121.84 524.865 122.38 525.729 122.704C526.593 123.028 527.592 123.19 528.726 123.19V124H521.922C519.006 124 516.522 123.784 514.47 123.352C512.472 122.92 510.717 122.137 509.205 121.003C507.747 119.815 506.397 118.222 505.155 116.224C504.669 115.522 504.156 114.685 503.616 113.713C503.076 112.687 502.536 111.661 501.996 110.635C501.456 109.609 500.97 108.61 500.538 107.638C500.16 106.666 499.89 105.856 499.728 105.208C499.026 103.48 498.216 102.238 497.298 101.482C496.434 100.672 495.624 100.267 494.868 100.267V99.538C494.868 99.538 495.057 99.538 495.435 99.538C495.813 99.538 496.299 99.538 496.893 99.538C498.027 99.538 499.134 99.349 500.214 98.971C501.348 98.539 502.374 97.756 503.292 96.622C504.21 95.434 504.885 93.706 505.317 91.438C505.425 91.114 505.506 90.655 505.56 90.061C505.668 89.467 505.695 88.792 505.641 88.036C505.533 86.038 505.155 84.445 504.507 83.257C503.913 82.015 503.157 81.097 502.239 80.503C501.321 79.855 500.376 79.423 499.404 79.207C498.486 78.937 497.676 78.802 496.974 78.802C495.948 78.748 495.003 78.748 494.139 78.802C493.329 78.802 492.708 78.775 492.276 78.721C492.222 78.721 492.141 78.451 492.033 77.911C491.925 77.317 491.817 76.75 491.709 76.21C491.601 75.67 491.547 75.4 491.547 75.4ZM492.357 75.4V124H480.612V75.4H492.357ZM480.855 118.897L481.179 124H475.347V123.19C475.401 123.19 475.536 123.19 475.752 123.19C476.022 123.19 476.211 123.19 476.319 123.19C477.507 123.19 478.506 122.785 479.316 121.975C480.18 121.111 480.639 120.085 480.693 118.897H480.855ZM480.855 80.422H480.693C480.639 79.18 480.18 78.181 479.316 77.425C478.506 76.615 477.534 76.21 476.4 76.21C476.238 76.21 476.022 76.21 475.752 76.21C475.536 76.21 475.401 76.21 475.347 76.21V75.4H481.179L480.855 80.422ZM492.195 118.897H492.357C492.357 120.247 492.816 121.3 493.734 122.056C494.706 122.812 495.732 123.19 496.812 123.19C496.812 123.19 496.92 123.19 497.136 123.19C497.352 123.19 497.514 123.19 497.622 123.19V124H491.79L492.195 118.897ZM542.707 75.4V105.937C542.707 110.905 543.841 114.793 546.109 117.601C548.431 120.409 551.644 121.813 555.748 121.813C560.014 121.813 563.308 120.49 565.63 117.844C568.006 115.198 569.221 111.526 569.275 106.828V75.4H574.621V106.342C574.621 112.12 572.839 116.683 569.275 120.031C565.765 123.379 560.77 125.053 554.29 125.053C546.46 125.053 540.628 123.406 536.794 120.112C532.96 116.764 531.043 112.201 531.043 106.423V75.4H542.707ZM531.205 75.4V79.612H531.043C530.989 78.586 530.611 77.749 529.909 77.101C529.207 76.453 528.343 76.129 527.317 76.129C527.317 76.129 527.128 76.129 526.75 76.129C526.372 76.129 526.183 76.129 526.183 76.129V75.4H531.205ZM547.486 75.4V76.129C547.486 76.129 547.297 76.129 546.919 76.129C546.541 76.129 546.352 76.129 546.352 76.129C545.326 76.129 544.462 76.453 543.76 77.101C543.058 77.749 542.707 78.586 542.707 79.612H542.545V75.4H547.486ZM569.437 75.4V79.612H569.275C569.221 78.586 568.843 77.749 568.141 77.101C567.439 76.453 566.602 76.129 565.63 76.129C565.63 76.129 565.441 76.129 565.063 76.129C564.685 76.129 564.496 76.129 564.496 76.129V75.4H569.437ZM579.4 75.4V76.129C579.4 76.129 579.211 76.129 578.833 76.129C578.509 76.129 578.347 76.129 578.347 76.129C577.321 76.129 576.43 76.453 575.674 77.101C574.972 77.749 574.621 78.586 574.621 79.612H574.459V75.4H579.4ZM600.385 74.347C601.465 74.347 602.761 74.401 604.273 74.509C605.839 74.617 607.378 74.752 608.89 74.914C610.402 75.022 611.725 75.184 612.859 75.4C614.047 75.562 614.857 75.724 615.289 75.886L614.236 85.768H613.507C613.507 83.284 612.643 81.313 610.915 79.855C609.187 78.397 606.703 77.668 603.463 77.668C600.871 77.668 598.765 78.235 597.145 79.369C595.579 80.503 594.742 82.015 594.634 83.905C594.526 84.877 594.688 85.768 595.12 86.578C595.606 87.334 596.254 88.009 597.064 88.603C597.928 89.197 598.873 89.791 599.899 90.385L612.616 98.242C614.776 99.322 616.477 100.888 617.719 102.94C618.961 104.992 619.501 107.476 619.339 110.392C619.177 113.416 618.286 116.035 616.666 118.249C615.1 120.463 612.913 122.164 610.105 123.352C607.351 124.486 604.084 125.053 600.304 125.053C597.982 125.053 595.822 124.864 593.824 124.486C591.826 124.108 590.098 123.595 588.64 122.947C587.236 122.299 586.156 121.57 585.4 120.76C584.968 119.68 584.779 118.384 584.833 116.872C584.887 115.306 585.13 113.767 585.562 112.255C585.994 110.689 586.534 109.393 587.182 108.367H587.83C587.668 110.797 588.1 113.038 589.126 115.09C590.206 117.142 591.772 118.789 593.824 120.031C595.876 121.219 598.333 121.813 601.195 121.813C604.327 121.813 606.676 121.084 608.242 119.626C609.808 118.168 610.591 116.467 610.591 114.523C610.591 113.065 610.105 111.769 609.133 110.635C608.215 109.447 606.676 108.286 604.516 107.152L593.014 99.862C590.314 98.458 588.343 96.595 587.101 94.273C585.913 91.951 585.481 89.413 585.805 86.659C586.075 84.067 586.831 81.853 588.073 80.017C589.369 78.181 591.07 76.777 593.176 75.805C595.282 74.833 597.685 74.347 600.385 74.347ZM615.289 75.076L615.208 76.534H606.541V75.076H615.289ZM651.977 75.643V124H640.232V75.643H651.977ZM669.635 75.319V78.559H622.655V75.319H669.635ZM669.635 78.316V86.902H668.744V86.173C668.798 83.851 668.15 82.015 666.8 80.665C665.504 79.315 663.695 78.613 661.373 78.559V78.316H669.635ZM669.635 74.104V76.129L661.049 75.319C662.075 75.319 663.182 75.265 664.37 75.157C665.558 74.995 666.638 74.833 667.61 74.671C668.582 74.455 669.257 74.266 669.635 74.104ZM640.394 118.897V124H634.967V123.19C634.967 123.19 635.102 123.19 635.372 123.19C635.696 123.19 635.858 123.19 635.858 123.19C637.046 123.19 638.045 122.785 638.855 121.975C639.719 121.111 640.178 120.085 640.232 118.897H640.394ZM651.734 118.897H651.977C651.977 120.085 652.409 121.111 653.273 121.975C654.137 122.785 655.19 123.19 656.432 123.19C656.432 123.19 656.567 123.19 656.837 123.19C657.161 123.19 657.323 123.19 657.323 123.19V124H651.734V118.897ZM630.917 78.316V78.559C628.541 78.613 626.705 79.315 625.409 80.665C624.167 82.015 623.546 83.851 623.546 86.173V86.902H622.655V78.316H630.917ZM622.655 74.104C623.141 74.212 623.843 74.374 624.761 74.59C625.733 74.806 626.786 74.995 627.92 75.157C629.108 75.265 630.188 75.319 631.16 75.319L622.655 76.129V74.104ZM690.891 75.4V124H679.227V75.4H690.891ZM709.845 120.76L711.708 124H690.729V120.76H709.845ZM707.091 98.323V101.563H690.729V98.323H707.091ZM710.736 75.4V78.64H690.729V75.4H710.736ZM715.029 109.096L711.951 124H697.938L700.449 120.76C702.771 120.76 704.823 120.301 706.605 119.383C708.441 118.411 710.007 117.061 711.303 115.333C712.599 113.551 713.598 111.472 714.3 109.096H715.029ZM707.091 101.401V108.529H706.281V107.881C706.281 106.099 705.714 104.614 704.58 103.426C703.5 102.238 702.015 101.617 700.125 101.563V101.401H707.091ZM707.091 91.357V98.485H700.125V98.323C702.015 98.269 703.5 97.648 704.58 96.46C705.714 95.218 706.281 93.706 706.281 91.924V91.357H707.091ZM710.736 78.478V87.064H709.926V86.335C709.926 83.959 709.278 82.096 707.982 80.746C706.74 79.396 704.931 78.694 702.555 78.64V78.478H710.736ZM710.736 74.185V76.129L702.231 75.4C703.797 75.4 705.444 75.265 707.172 74.995C708.9 74.671 710.088 74.401 710.736 74.185ZM679.389 118.897L679.794 124H673.8V123.19C673.8 123.19 673.962 123.19 674.286 123.19C674.61 123.19 674.799 123.19 674.853 123.19C676.041 123.19 677.04 122.785 677.85 121.975C678.714 121.111 679.173 120.085 679.227 118.897H679.389ZM679.389 80.503H679.227C679.173 79.261 678.714 78.235 677.85 77.425C677.04 76.615 676.041 76.21 674.853 76.21C674.799 76.21 674.61 76.21 674.286 76.21C673.962 76.21 673.8 76.21 673.8 76.21V75.4H679.794L679.389 80.503ZM746.501 75.4C752.279 75.4 757.247 76.372 761.405 78.316C765.563 80.206 768.749 82.987 770.963 86.659C773.177 90.277 774.284 94.624 774.284 99.7C774.284 104.776 773.177 109.123 770.963 112.741C768.749 116.359 765.563 119.14 761.405 121.084C757.247 123.028 752.279 124 746.501 124H728.519L728.357 120.76C732.461 120.76 735.755 120.76 738.239 120.76C740.777 120.76 742.613 120.76 743.747 120.76C744.935 120.76 745.529 120.76 745.529 120.76C750.605 120.76 754.601 118.897 757.517 115.171C760.433 111.445 761.891 106.288 761.891 99.7C761.891 93.112 760.433 87.955 757.517 84.229C754.601 80.449 750.605 78.559 745.529 78.559C745.529 78.559 744.935 78.559 743.747 78.559C742.559 78.559 740.642 78.559 737.996 78.559C735.35 78.559 731.867 78.559 727.547 78.559V75.4H746.501ZM736.376 75.4V124H724.712V75.4H736.376ZM724.955 118.816V124H719.123V123.19C719.123 123.19 719.285 123.19 719.609 123.19C719.933 123.19 720.122 123.19 720.176 123.19C721.418 123.19 722.471 122.758 723.335 121.894C724.253 121.03 724.712 120.004 724.712 118.816H724.955ZM724.874 80.503H724.712C724.658 79.261 724.172 78.235 723.254 77.425C722.39 76.615 721.337 76.21 720.095 76.21C720.095 76.21 719.933 76.21 719.609 76.21C719.285 76.21 719.123 76.21 719.123 76.21V75.4H724.874V80.503ZM825.966 65.68L852.453 123.514H837.873L821.025 81.313L825.966 65.68ZM808.551 118.087C808.119 119.167 808.038 120.085 808.308 120.841C808.578 121.597 809.037 122.191 809.685 122.623C810.333 123.001 810.981 123.19 811.629 123.19H812.358V124H795.024V123.19C795.024 123.19 795.159 123.19 795.429 123.19C795.645 123.19 795.753 123.19 795.753 123.19C796.995 123.19 798.264 122.812 799.56 122.056C800.91 121.246 802.017 119.923 802.881 118.087H808.551ZM825.966 65.68L826.29 75.562L806.202 123.757H800.289L821.268 76.291C821.43 75.967 821.7 75.373 822.078 74.509C822.51 73.591 822.942 72.565 823.374 71.431C823.86 70.297 824.292 69.217 824.67 68.191C825.048 67.111 825.237 66.274 825.237 65.68H825.966ZM834.471 104.722V108.124H810.657V104.722H834.471ZM835.686 118.087H849.861C850.779 119.923 851.886 121.246 853.182 122.056C854.478 122.812 855.747 123.19 856.989 123.19C856.989 123.19 857.097 123.19 857.313 123.19C857.529 123.19 857.637 123.19 857.637 123.19V124H831.879V123.19H832.608C833.688 123.19 834.633 122.758 835.443 121.894C836.253 120.976 836.334 119.707 835.686 118.087ZM885.404 75.4C891.182 75.4 896.15 76.372 900.308 78.316C904.466 80.206 907.652 82.987 909.866 86.659C912.08 90.277 913.187 94.624 913.187 99.7C913.187 104.776 912.08 109.123 909.866 112.741C907.652 116.359 904.466 119.14 900.308 121.084C896.15 123.028 891.182 124 885.404 124H867.422L867.26 120.76C871.364 120.76 874.658 120.76 877.142 120.76C879.68 120.76 881.516 120.76 882.65 120.76C883.838 120.76 884.432 120.76 884.432 120.76C889.508 120.76 893.504 118.897 896.42 115.171C899.336 111.445 900.794 106.288 900.794 99.7C900.794 93.112 899.336 87.955 896.42 84.229C893.504 80.449 889.508 78.559 884.432 78.559C884.432 78.559 883.838 78.559 882.65 78.559C881.462 78.559 879.545 78.559 876.899 78.559C874.253 78.559 870.77 78.559 866.45 78.559V75.4H885.404ZM875.279 75.4V124H863.615V75.4H875.279ZM863.858 118.816V124H858.026V123.19C858.026 123.19 858.188 123.19 858.512 123.19C858.836 123.19 859.025 123.19 859.079 123.19C860.321 123.19 861.374 122.758 862.238 121.894C863.156 121.03 863.615 120.004 863.615 118.816H863.858ZM863.777 80.503H863.615C863.561 79.261 863.075 78.235 862.157 77.425C861.293 76.615 860.24 76.21 858.998 76.21C858.998 76.21 858.836 76.21 858.512 76.21C858.188 76.21 858.026 76.21 858.026 76.21V75.4H863.777V80.503ZM940.207 125.053L916.393 75.805H930.163L944.905 110.149L940.207 125.053ZM940.207 125.053L939.883 115.576L957.46 75.643H963.373L944.662 115.171C944.554 115.441 944.311 116.008 943.933 116.872C943.555 117.682 943.15 118.627 942.718 119.707C942.286 120.733 941.881 121.732 941.503 122.704C941.179 123.676 940.99 124.459 940.936 125.053H940.207ZM955.192 80.746C955.786 79.288 955.705 78.154 954.949 77.344C954.247 76.534 953.41 76.129 952.438 76.129H951.871V75.4H967.99V76.21C967.99 76.21 967.882 76.21 967.666 76.21C967.45 76.21 967.342 76.21 967.342 76.21C966.262 76.21 965.128 76.561 963.94 77.263C962.752 77.911 961.753 79.072 960.943 80.746H955.192ZM932.269 80.746H918.823C918.013 79.072 917.014 77.911 915.826 77.263C914.692 76.561 913.585 76.21 912.505 76.21C912.505 76.21 912.424 76.21 912.262 76.21C912.046 76.21 911.938 76.21 911.938 76.21V75.4H935.671V76.129H935.023C934.159 76.129 933.349 76.534 932.593 77.344C931.837 78.154 931.729 79.288 932.269 80.746ZM986.262 75.4V124H974.598V75.4H986.262ZM974.841 118.897V124H968.928V123.19C968.928 123.19 969.09 123.19 969.414 123.19C969.738 123.19 969.927 123.19 969.981 123.19C971.223 123.19 972.303 122.785 973.221 121.975C974.139 121.111 974.598 120.085 974.598 118.897H974.841ZM986.1 118.897H986.262C986.316 120.085 986.775 121.111 987.639 121.975C988.557 122.785 989.664 123.19 990.96 123.19C990.96 123.19 991.095 123.19 991.365 123.19C991.689 123.19 991.878 123.19 991.932 123.19V124H986.1V118.897ZM986.1 80.503V75.4H991.932L991.851 76.21C991.851 76.21 991.716 76.21 991.446 76.21C991.176 76.21 991.014 76.21 990.96 76.21C989.664 76.21 988.557 76.615 987.639 77.425C986.775 78.235 986.316 79.261 986.262 80.503H986.1ZM974.841 80.503H974.598C974.598 79.261 974.139 78.235 973.221 77.425C972.303 76.615 971.196 76.21 969.9 76.21C969.9 76.21 969.738 76.21 969.414 76.21C969.09 76.21 968.928 76.21 968.928 76.21V75.4H974.841V80.503ZM1013.93 74.347C1015.01 74.347 1016.3 74.401 1017.82 74.509C1019.38 74.617 1020.92 74.752 1022.43 74.914C1023.95 75.022 1025.27 75.184 1026.4 75.4C1027.59 75.562 1028.4 75.724 1028.83 75.886L1027.78 85.768H1027.05C1027.05 83.284 1026.19 81.313 1024.46 79.855C1022.73 78.397 1020.25 77.668 1017.01 77.668C1014.41 77.668 1012.31 78.235 1010.69 79.369C1009.12 80.503 1008.29 82.015 1008.18 83.905C1008.07 84.877 1008.23 85.768 1008.66 86.578C1009.15 87.334 1009.8 88.009 1010.61 88.603C1011.47 89.197 1012.42 89.791 1013.44 90.385L1026.16 98.242C1028.32 99.322 1030.02 100.888 1031.26 102.94C1032.5 104.992 1033.04 107.476 1032.88 110.392C1032.72 113.416 1031.83 116.035 1030.21 118.249C1028.64 120.463 1026.46 122.164 1023.65 123.352C1020.89 124.486 1017.63 125.053 1013.85 125.053C1011.53 125.053 1009.37 124.864 1007.37 124.486C1005.37 124.108 1003.64 123.595 1002.18 122.947C1000.78 122.299 999.699 121.57 998.943 120.76C998.511 119.68 998.322 118.384 998.376 116.872C998.43 115.306 998.673 113.767 999.105 112.255C999.537 110.689 1000.08 109.393 1000.73 108.367H1001.37C1001.21 110.797 1001.64 113.038 1002.67 115.09C1003.75 117.142 1005.32 118.789 1007.37 120.031C1009.42 121.219 1011.88 121.813 1014.74 121.813C1017.87 121.813 1020.22 121.084 1021.79 119.626C1023.35 118.168 1024.13 116.467 1024.13 114.523C1024.13 113.065 1023.65 111.769 1022.68 110.635C1021.76 109.447 1020.22 108.286 1018.06 107.152L1006.56 99.862C1003.86 98.458 1001.89 96.595 1000.64 94.273C999.456 91.951 999.024 89.413 999.348 86.659C999.618 84.067 1000.37 81.853 1001.62 80.017C1002.91 78.181 1004.61 76.777 1006.72 75.805C1008.83 74.833 1011.23 74.347 1013.93 74.347ZM1028.83 75.076L1028.75 76.534H1020.08V75.076H1028.83ZM1055.71 75.4V124H1044.04V75.4H1055.71ZM1074.66 120.76L1076.52 124H1055.55V120.76H1074.66ZM1071.91 98.323V101.563H1055.55V98.323H1071.91ZM1075.55 75.4V78.64H1055.55V75.4H1075.55ZM1079.85 109.096L1076.77 124H1062.75L1065.27 120.76C1067.59 120.76 1069.64 120.301 1071.42 119.383C1073.26 118.411 1074.82 117.061 1076.12 115.333C1077.42 113.551 1078.41 111.472 1079.12 109.096H1079.85ZM1071.91 101.401V108.529H1071.1V107.881C1071.1 106.099 1070.53 104.614 1069.4 103.426C1068.32 102.238 1066.83 101.617 1064.94 101.563V101.401H1071.91ZM1071.91 91.357V98.485H1064.94V98.323C1066.83 98.269 1068.32 97.648 1069.4 96.46C1070.53 95.218 1071.1 93.706 1071.1 91.924V91.357H1071.91ZM1075.55 78.478V87.064H1074.74V86.335C1074.74 83.959 1074.09 82.096 1072.8 80.746C1071.56 79.396 1069.75 78.694 1067.37 78.64V78.478H1075.55ZM1075.55 74.185V76.129L1067.05 75.4C1068.61 75.4 1070.26 75.265 1071.99 74.995C1073.72 74.671 1074.9 74.401 1075.55 74.185ZM1044.21 118.897L1044.61 124H1038.62V123.19C1038.62 123.19 1038.78 123.19 1039.1 123.19C1039.43 123.19 1039.62 123.19 1039.67 123.19C1040.86 123.19 1041.86 122.785 1042.67 121.975C1043.53 121.111 1043.99 120.085 1044.04 118.897H1044.21ZM1044.21 80.503H1044.04C1043.99 79.261 1043.53 78.235 1042.67 77.425C1041.86 76.615 1040.86 76.21 1039.67 76.21C1039.62 76.21 1039.43 76.21 1039.1 76.21C1038.78 76.21 1038.62 76.21 1038.62 76.21V75.4H1044.61L1044.21 80.503ZM1100.79 75.4H1109.54C1111.75 75.4 1113.91 75.643 1116.02 76.129C1118.12 76.561 1120.01 77.29 1121.69 78.316C1123.36 79.288 1124.68 80.638 1125.65 82.366C1126.68 84.04 1127.19 86.146 1127.19 88.684C1127.19 90.574 1126.79 92.464 1125.98 94.354C1125.22 96.19 1124.01 97.783 1122.33 99.133C1120.71 100.483 1118.58 101.374 1115.93 101.806C1117.5 102.292 1118.99 103.237 1120.39 104.641C1121.85 106.045 1122.98 107.368 1123.79 108.61C1124.01 109.042 1124.39 109.744 1124.93 110.716C1125.47 111.634 1126.14 112.714 1126.95 113.956C1127.81 115.144 1128.71 116.386 1129.62 117.682C1130.7 119.14 1131.65 120.274 1132.46 121.084C1133.27 121.84 1134.11 122.38 1134.97 122.704C1135.83 123.028 1136.83 123.19 1137.97 123.19V124H1131.16C1128.25 124 1125.76 123.784 1123.71 123.352C1121.71 122.92 1119.96 122.137 1118.45 121.003C1116.99 119.815 1115.64 118.222 1114.4 116.224C1113.91 115.522 1113.4 114.685 1112.86 113.713C1112.32 112.687 1111.78 111.661 1111.24 110.635C1110.7 109.609 1110.21 108.61 1109.78 107.638C1109.4 106.666 1109.13 105.856 1108.97 105.208C1108.27 103.48 1107.46 102.238 1106.54 101.482C1105.67 100.672 1104.86 100.267 1104.11 100.267V99.538C1104.11 99.538 1104.3 99.538 1104.68 99.538C1105.05 99.538 1105.54 99.538 1106.13 99.538C1107.27 99.538 1108.37 99.349 1109.45 98.971C1110.59 98.539 1111.61 97.756 1112.53 96.622C1113.45 95.434 1114.13 93.706 1114.56 91.438C1114.67 91.114 1114.75 90.655 1114.8 90.061C1114.91 89.467 1114.94 88.792 1114.88 88.036C1114.77 86.038 1114.4 84.445 1113.75 83.257C1113.15 82.015 1112.4 81.097 1111.48 80.503C1110.56 79.855 1109.62 79.423 1108.64 79.207C1107.73 78.937 1106.92 78.802 1106.21 78.802C1105.19 78.748 1104.24 78.748 1103.38 78.802C1102.57 78.802 1101.95 78.775 1101.52 78.721C1101.46 78.721 1101.38 78.451 1101.27 77.911C1101.17 77.317 1101.06 76.75 1100.95 76.21C1100.84 75.67 1100.79 75.4 1100.79 75.4ZM1101.6 75.4V124H1089.85V75.4H1101.6ZM1090.1 118.897L1090.42 124H1084.59V123.19C1084.64 123.19 1084.78 123.19 1084.99 123.19C1085.26 123.19 1085.45 123.19 1085.56 123.19C1086.75 123.19 1087.75 122.785 1088.56 121.975C1089.42 121.111 1089.88 120.085 1089.93 118.897H1090.1ZM1090.1 80.422H1089.93C1089.88 79.18 1089.42 78.181 1088.56 77.425C1087.75 76.615 1086.77 76.21 1085.64 76.21C1085.48 76.21 1085.26 76.21 1084.99 76.21C1084.78 76.21 1084.64 76.21 1084.59 76.21V75.4H1090.42L1090.1 80.422ZM1101.44 118.897H1101.6C1101.6 120.247 1102.06 121.3 1102.97 122.056C1103.95 122.812 1104.97 123.19 1106.05 123.19C1106.05 123.19 1106.16 123.19 1106.38 123.19C1106.59 123.19 1106.75 123.19 1106.86 123.19V124H1101.03L1101.44 118.897ZM1154.33 74.347C1155.41 74.347 1156.71 74.401 1158.22 74.509C1159.79 74.617 1161.33 74.752 1162.84 74.914C1164.35 75.022 1165.67 75.184 1166.81 75.4C1168 75.562 1168.81 75.724 1169.24 75.886L1168.18 85.768H1167.46C1167.46 83.284 1166.59 81.313 1164.86 79.855C1163.14 78.397 1160.65 77.668 1157.41 77.668C1154.82 77.668 1152.71 78.235 1151.09 79.369C1149.53 80.503 1148.69 82.015 1148.58 83.905C1148.47 84.877 1148.64 85.768 1149.07 86.578C1149.55 87.334 1150.2 88.009 1151.01 88.603C1151.88 89.197 1152.82 89.791 1153.85 90.385L1166.56 98.242C1168.72 99.322 1170.43 100.888 1171.67 102.94C1172.91 104.992 1173.45 107.476 1173.29 110.392C1173.13 113.416 1172.23 116.035 1170.61 118.249C1169.05 120.463 1166.86 122.164 1164.05 123.352C1161.3 124.486 1158.03 125.053 1154.25 125.053C1151.93 125.053 1149.77 124.864 1147.77 124.486C1145.77 124.108 1144.05 123.595 1142.59 122.947C1141.18 122.299 1140.1 121.57 1139.35 120.76C1138.92 119.68 1138.73 118.384 1138.78 116.872C1138.84 115.306 1139.08 113.767 1139.51 112.255C1139.94 110.689 1140.48 109.393 1141.13 108.367H1141.78C1141.62 110.797 1142.05 113.038 1143.07 115.09C1144.15 117.142 1145.72 118.789 1147.77 120.031C1149.82 121.219 1152.28 121.813 1155.14 121.813C1158.28 121.813 1160.62 121.084 1162.19 119.626C1163.76 118.168 1164.54 116.467 1164.54 114.523C1164.54 113.065 1164.05 111.769 1163.08 110.635C1162.16 109.447 1160.62 108.286 1158.46 107.152L1146.96 99.862C1144.26 98.458 1142.29 96.595 1141.05 94.273C1139.86 91.951 1139.43 89.413 1139.75 86.659C1140.02 84.067 1140.78 81.853 1142.02 80.017C1143.32 78.181 1145.02 76.777 1147.12 75.805C1149.23 74.833 1151.63 74.347 1154.33 74.347ZM1169.24 75.076L1169.16 76.534H1160.49V75.076H1169.24Z" fill="#008080"/>
<path d="M461.72 208H472.04C474.44 208 476.787 208.267 479.08 208.8C481.373 209.333 483.4 210.187 485.16 211.36C486.973 212.533 488.413 214.08 489.48 216C490.547 217.92 491.08 220.293 491.08 223.12C491.08 225.36 490.6 227.6 489.64 229.84C488.733 232.027 487.32 233.92 485.4 235.52C483.48 237.067 481 238 477.96 238.32C479.667 238.853 481.213 239.813 482.6 241.2C484.04 242.587 485.213 243.973 486.12 245.36C486.173 245.467 486.467 245.947 487 246.8C487.587 247.653 488.28 248.72 489.08 250C489.933 251.227 490.813 252.48 491.72 253.76C492.627 255.04 493.453 256.16 494.2 257.12C495.373 258.56 496.44 259.733 497.4 260.64C498.36 261.493 499.373 262.133 500.44 262.56C501.507 262.933 502.733 263.147 504.12 263.2V264H496.28C493.4 264 490.787 263.76 488.44 263.28C486.093 262.747 484.013 261.867 482.2 260.64C480.387 259.413 478.813 257.76 477.48 255.68C477.053 255.04 476.573 254.24 476.04 253.28C475.56 252.267 475.053 251.2 474.52 250.08C473.987 248.96 473.453 247.893 472.92 246.88C472.44 245.813 472.013 244.853 471.64 244C471.267 243.147 471 242.48 470.84 242C470.147 240.293 469.32 239.013 468.36 238.16C467.453 237.307 466.467 236.8 465.4 236.64V235.84C465.56 235.84 465.88 235.84 466.36 235.84C466.84 235.84 467.347 235.84 467.88 235.84C469.32 235.84 470.707 235.547 472.04 234.96C473.427 234.373 474.653 233.413 475.72 232.08C476.787 230.747 477.533 228.907 477.96 226.56C478.067 226.08 478.147 225.52 478.2 224.88C478.307 224.24 478.333 223.52 478.28 222.72C478.12 218.88 477.16 216.08 475.4 214.32C473.64 212.507 471.453 211.573 468.84 211.52C468.093 211.467 467.267 211.467 466.36 211.52C465.507 211.52 464.707 211.52 463.96 211.52C463.267 211.52 462.787 211.52 462.52 211.52C462.52 211.467 462.44 211.173 462.28 210.64C462.173 210.053 462.04 209.467 461.88 208.88C461.773 208.293 461.72 208 461.72 208ZM462.76 208V264H450.76V208H462.76ZM451 258.16V264H444.6V263.2C444.653 263.2 444.813 263.2 445.08 263.2C445.4 263.2 445.587 263.2 445.64 263.2C447.027 263.2 448.2 262.72 449.16 261.76C450.173 260.747 450.707 259.547 450.76 258.16H451ZM451 213.84H450.76C450.707 212.453 450.173 211.28 449.16 210.32C448.2 209.307 447.027 208.8 445.64 208.8C445.587 208.8 445.4 208.8 445.08 208.8C444.813 208.8 444.653 208.8 444.6 208.8V208H451V213.84ZM462.52 258.16H462.76C462.76 259.547 463.267 260.747 464.28 261.76C465.293 262.72 466.493 263.2 467.88 263.2C467.987 263.2 468.173 263.2 468.44 263.2C468.707 263.2 468.84 263.2 468.84 263.2V264H462.52V258.16ZM519.428 216V264H507.908V216H519.428ZM538.148 260.8L539.988 264H519.268V260.8H538.148ZM535.428 238.64V241.84H519.268V238.64H535.428ZM539.028 216V219.2H519.268V216H539.028ZM543.268 249.28L540.228 264H526.388L528.868 260.8C531.161 260.8 533.188 260.347 534.948 259.44C536.761 258.48 538.308 257.147 539.588 255.44C540.868 253.68 541.855 251.627 542.548 249.28H543.268ZM535.428 241.68V248.72H534.628V248.08C534.628 246.32 534.068 244.853 532.948 243.68C531.881 242.507 530.415 241.893 528.548 241.84V241.68H535.428ZM535.428 231.76V238.8H528.548V238.64C530.415 238.587 531.881 237.973 532.948 236.8C534.068 235.573 534.628 234.08 534.628 232.32V231.76H535.428ZM539.028 219.04V227.52H538.228V226.8C538.228 224.453 537.588 222.613 536.308 221.28C535.081 219.947 533.295 219.253 530.948 219.2V219.04H539.028ZM539.028 214.8V216.72L530.628 216C532.175 216 533.801 215.867 535.508 215.6C537.215 215.28 538.388 215.013 539.028 214.8ZM508.068 258.96L508.468 264H502.548V263.2C502.548 263.2 502.708 263.2 503.028 263.2C503.348 263.2 503.535 263.2 503.588 263.2C504.761 263.2 505.748 262.8 506.548 262C507.401 261.147 507.855 260.133 507.908 258.96H508.068ZM508.068 221.04H507.908C507.855 219.813 507.401 218.8 506.548 218C505.748 217.2 504.761 216.8 503.588 216.8C503.535 216.8 503.348 216.8 503.028 216.8C502.708 216.8 502.548 216.8 502.548 216.8V216H508.468L508.068 221.04ZM570.504 213.84L594.184 263.6H580.664L565.784 228.48L570.504 213.84ZM555.464 258.72C554.878 260.16 554.958 261.28 555.704 262.08C556.451 262.827 557.278 263.2 558.184 263.2H558.824V264H542.824V263.2C542.824 263.2 542.931 263.2 543.144 263.2C543.358 263.2 543.464 263.2 543.464 263.2C544.531 263.2 545.651 262.88 546.824 262.24C547.998 261.547 548.958 260.373 549.704 258.72H555.464ZM570.504 213.84L570.664 223.44L553.304 263.76H547.384L566.104 223.52C566.211 223.2 566.451 222.64 566.824 221.84C567.198 220.987 567.598 220.053 568.024 219.04C568.451 217.973 568.851 216.987 569.224 216.08C569.598 215.12 569.811 214.373 569.864 213.84H570.504ZM577.464 248.32V251.44H557.064V248.32H577.464ZM578.664 258.72H591.864C592.664 260.373 593.651 261.547 594.824 262.24C595.998 262.88 597.118 263.2 598.184 263.2C598.184 263.2 598.291 263.2 598.504 263.2C598.718 263.2 598.824 263.2 598.824 263.2V264H575.304V263.2H575.944C576.851 263.2 577.678 262.827 578.424 262.08C579.171 261.28 579.251 260.16 578.664 258.72ZM616.069 216V264H604.549V216H616.069ZM634.709 260.8L636.629 264H615.909V260.8H634.709ZM639.989 249.28L636.869 264H623.029L625.509 260.8C627.802 260.8 629.829 260.347 631.589 259.44C633.402 258.48 634.949 257.147 636.229 255.44C637.509 253.68 638.495 251.627 639.189 249.28H639.989ZM604.709 258.96L605.109 264H599.189V263.2C599.189 263.2 599.349 263.2 599.669 263.2C599.989 263.2 600.175 263.2 600.229 263.2C601.402 263.2 602.389 262.8 603.189 262C604.042 261.147 604.495 260.133 604.549 258.96H604.709ZM615.909 221.04V216H621.429V216.8C621.375 216.8 621.189 216.8 620.869 216.8C620.602 216.8 620.469 216.8 620.469 216.8C619.295 216.8 618.282 217.2 617.429 218C616.575 218.8 616.122 219.813 616.069 221.04H615.909ZM604.709 221.04H604.549C604.495 219.813 604.042 218.8 603.189 218C602.335 217.2 601.322 216.8 600.149 216.8C600.095 216.8 599.909 216.8 599.589 216.8C599.322 216.8 599.189 216.8 599.189 216.8V216H604.709V221.04ZM664.041 216.24V264H652.441V216.24H664.041ZM681.481 215.92V219.12H635.081V215.92H681.481ZM681.481 218.88V227.36H680.601V226.64C680.655 224.347 680.015 222.533 678.681 221.2C677.401 219.867 675.615 219.173 673.321 219.12V218.88H681.481ZM681.481 214.72V216.72L673.001 215.92C674.015 215.92 675.108 215.867 676.281 215.76C677.455 215.6 678.521 215.44 679.481 215.28C680.441 215.067 681.108 214.88 681.481 214.72ZM652.601 258.96V264H647.241V263.2C647.241 263.2 647.375 263.2 647.641 263.2C647.961 263.2 648.121 263.2 648.121 263.2C649.295 263.2 650.281 262.8 651.081 262C651.935 261.147 652.388 260.133 652.441 258.96H652.601ZM663.801 258.96H664.041C664.041 260.133 664.468 261.147 665.321 262C666.175 262.8 667.215 263.2 668.441 263.2C668.441 263.2 668.575 263.2 668.841 263.2C669.161 263.2 669.321 263.2 669.321 263.2V264H663.801V258.96ZM643.241 218.88V219.12C640.895 219.173 639.081 219.867 637.801 221.2C636.575 222.533 635.961 224.347 635.961 226.64V227.36H635.081V218.88H643.241ZM635.081 214.72C635.561 214.827 636.255 214.987 637.161 215.2C638.121 215.413 639.161 215.6 640.281 215.76C641.455 215.867 642.521 215.92 643.481 215.92L635.081 216.72V214.72ZM700.118 216.08L715.158 242.08L704.518 243.28L686.998 216.08H700.118ZM715.638 242.24V264H704.118V242.4L715.638 242.24ZM726.998 216.08H732.918L714.838 243.84L711.078 243.12L726.998 216.08ZM724.118 220.96C724.704 219.947 724.704 219.013 724.118 218.16C723.531 217.253 722.731 216.8 721.718 216.8C721.718 216.8 721.558 216.8 721.238 216.8C720.918 216.8 720.758 216.8 720.758 216.8V216H737.958V216.8H736.918C735.478 216.8 734.118 217.2 732.838 218C731.611 218.747 730.624 219.653 729.878 220.72L724.118 220.96ZM702.918 220.96L689.958 220.72C689.211 219.6 688.224 218.667 686.998 217.92C685.771 217.173 684.411 216.8 682.917 216.8H681.957V216H706.278V216.8C706.278 216.8 706.118 216.8 705.798 216.8C705.531 216.8 705.398 216.8 705.398 216.8C704.331 216.8 703.504 217.253 702.918 218.16C702.384 219.067 702.384 220 702.918 220.96ZM704.358 258.96V264H698.678V263.2C698.731 263.2 698.891 263.2 699.158 263.2C699.478 263.2 699.638 263.2 699.638 263.2C700.864 263.2 701.904 262.8 702.758 262C703.611 261.147 704.064 260.133 704.118 258.96H704.358ZM715.478 258.96H715.638C715.691 260.133 716.144 261.147 716.998 262C717.904 262.8 718.944 263.2 720.118 263.2C720.118 263.2 720.278 263.2 720.598 263.2C720.918 263.2 721.078 263.2 721.078 263.2V264H715.478V258.96Z" fill="#FBB040"/>
</g>
<defs>
<linearGradient id="paint0_linear_98_2" x1="0" y1="0" x2="395.387" y2="0" gradientUnits="userSpaceOnUse">
<stop stop-color="#8F5E25"/>
<stop offset="0.0001" stop-color="#FBB040"/>
<stop offset="1" stop-color="#FAD303"/>
</linearGradient>
<linearGradient id="paint1_linear_98_2" x1="0" y1="0" x2="395.387" y2="0" gradientUnits="userSpaceOnUse">
<stop stop-color="#8F5E25"/>
<stop offset="0.0001" stop-color="#FBB040"/>
<stop offset="1" stop-color="#FAD303"/>
</linearGradient>
<clipPath id="clip0_98_2">
<rect width="1200" height="450" fill="white"/>
</clipPath>
</defs>
</svg>
