<svg xmlns="http://www.w3.org/2000/svg" width="930" height="322" viewBox="0 0 930 322" fill="none">
    <g filter="url(#filter0_i_226_27)">
        <path
            d="M597.163 39.6625H581.263V85H569.976V39.6625H554.076V30.5875H597.163V39.6625ZM620.939 56.35C622.764 56.35 624.339 56.125 625.664 55.675C626.989 55.2 628.077 54.5625 628.927 53.7625C629.777 52.9375 630.402 51.975 630.802 50.875C631.202 49.775 631.402 48.575 631.402 47.275C631.402 44.7 630.539 42.7 628.814 41.275C627.114 39.85 624.514 39.1375 621.014 39.1375H615.164V56.35H620.939ZM647.302 85H637.139C635.239 85 633.864 84.275 633.014 82.825L622.664 66.1375C622.239 65.4875 621.764 65.0125 621.239 64.7125C620.739 64.4125 619.989 64.2625 618.989 64.2625H615.164V85H603.914V30.5875H621.014C624.814 30.5875 628.064 30.9875 630.764 31.7875C633.464 32.5625 635.677 33.65 637.402 35.05C639.127 36.45 640.389 38.125 641.189 40.075C641.989 42 642.389 44.125 642.389 46.45C642.389 48.25 642.127 49.9625 641.602 51.5875C641.102 53.1875 640.364 54.65 639.389 55.975C638.414 57.3 637.214 58.475 635.789 59.5C634.364 60.525 632.739 61.35 630.914 61.975C631.639 62.375 632.314 62.8625 632.939 63.4375C633.564 63.9875 634.127 64.65 634.627 65.425L647.302 85ZM674.383 76C676.208 76 677.845 75.7 679.295 75.1C680.745 74.475 681.97 73.6 682.97 72.475C683.97 71.35 684.733 69.9875 685.258 68.3875C685.783 66.7875 686.045 64.9875 686.045 62.9875V30.5875H697.295V62.9875C697.295 66.2875 696.758 69.325 695.683 72.1C694.633 74.85 693.12 77.225 691.145 79.225C689.17 81.225 686.77 82.7875 683.945 83.9125C681.12 85.0375 677.933 85.6 674.383 85.6C670.833 85.6 667.633 85.0375 664.783 83.9125C661.958 82.7875 659.558 81.225 657.583 79.225C655.608 77.225 654.083 74.85 653.008 72.1C651.958 69.325 651.433 66.2875 651.433 62.9875V30.5875H662.683V62.9875C662.683 64.9875 662.945 66.7875 663.47 68.3875C663.995 69.9875 664.758 71.35 665.758 72.475C666.758 73.6 667.983 74.475 669.433 75.1C670.883 75.7 672.533 76 674.383 76ZM737.467 41.0125C737.117 41.5875 736.754 42.0125 736.379 42.2875C736.029 42.5375 735.567 42.6625 734.992 42.6625C734.442 42.6625 733.842 42.475 733.192 42.1C732.567 41.7 731.829 41.275 730.979 40.825C730.129 40.375 729.154 39.9625 728.054 39.5875C726.954 39.1875 725.667 38.9875 724.192 38.9875C721.592 38.9875 719.642 39.575 718.342 40.75C717.042 41.9 716.392 43.4125 716.392 45.2875C716.392 46.4875 716.742 47.4875 717.442 48.2875C718.167 49.0625 719.104 49.7375 720.254 50.3125C721.429 50.8875 722.754 51.4 724.229 51.85C725.704 52.3 727.217 52.8 728.767 53.35C730.317 53.875 731.829 54.5 733.304 55.225C734.779 55.95 736.092 56.8625 737.242 57.9625C738.417 59.0625 739.354 60.4125 740.054 62.0125C740.779 63.5875 741.142 65.5125 741.142 67.7875C741.142 70.2625 740.704 72.5875 739.829 74.7625C738.979 76.9125 737.742 78.8 736.117 80.425C734.492 82.025 732.479 83.2875 730.079 84.2125C727.704 85.1375 725.004 85.6 721.979 85.6C720.254 85.6 718.529 85.425 716.804 85.075C715.104 84.725 713.454 84.2375 711.854 83.6125C710.279 82.9875 708.792 82.2375 707.392 81.3625C705.992 80.4875 704.767 79.5125 703.717 78.4375L707.017 73.1125C707.292 72.7125 707.654 72.3875 708.104 72.1375C708.554 71.8625 709.029 71.725 709.529 71.725C710.204 71.725 710.917 71.975 711.667 72.475C712.417 72.975 713.279 73.525 714.254 74.125C715.229 74.725 716.354 75.275 717.629 75.775C718.929 76.275 720.479 76.525 722.279 76.525C724.904 76.525 726.929 75.925 728.354 74.725C729.804 73.525 730.529 71.7375 730.529 69.3625C730.529 67.9875 730.167 66.875 729.442 66.025C728.742 65.175 727.817 64.4625 726.667 63.8875C725.517 63.3125 724.204 62.825 722.729 62.425C721.254 62 719.742 61.5375 718.192 61.0375C716.642 60.5375 715.129 59.9375 713.654 59.2375C712.179 58.5375 710.867 57.6125 709.717 56.4625C708.567 55.3125 707.629 53.8875 706.904 52.1875C706.204 50.4875 705.854 48.375 705.854 45.85C705.854 43.825 706.254 41.8625 707.054 39.9625C707.854 38.0625 709.029 36.375 710.579 34.9C712.129 33.425 714.029 32.2375 716.279 31.3375C718.554 30.4375 721.154 29.9875 724.079 29.9875C727.354 29.9875 730.379 30.5 733.154 31.525C735.954 32.525 738.317 33.925 740.242 35.725L737.467 41.0125ZM787.813 39.6625H771.913V85H760.625V39.6625H744.725V30.5875H787.813V39.6625ZM805.889 39.4V53.3875H824.039V61.9H805.889V76.1875H829.214V85H794.564V30.5875H829.214V39.4H805.889ZM886.418 57.775C886.418 61.75 885.743 65.4125 884.393 68.7625C883.068 72.0875 881.18 74.95 878.73 77.35C876.305 79.75 873.38 81.625 869.955 82.975C866.53 84.325 862.73 85 858.555 85H837.63V30.5875H858.555C862.73 30.5875 866.53 31.2625 869.955 32.6125C873.38 33.9625 876.305 35.85 878.73 38.275C881.18 40.675 883.068 43.5375 884.393 46.8625C885.743 50.1875 886.418 53.825 886.418 57.775ZM874.868 57.775C874.868 54.925 874.493 52.3625 873.743 50.0875C872.993 47.8125 871.918 45.8875 870.518 44.3125C869.118 42.7375 867.405 41.525 865.38 40.675C863.38 39.825 861.105 39.4 858.555 39.4H848.955V76.1875H858.555C861.105 76.1875 863.38 75.775 865.38 74.95C867.405 74.1 869.118 72.8875 870.518 71.3125C871.918 69.7125 872.993 67.775 873.743 65.5C874.493 63.225 874.868 60.65 874.868 57.775Z"
            fill="#C0C6C7" />
    </g>
    <g filter="url(#filter1_i_226_27)">
        <path
            d="M573.016 165.103L569.483 155.112C569.273 154.587 569.048 153.972 568.808 153.267C568.583 152.562 568.366 151.797 568.156 150.972C567.946 151.812 567.721 152.592 567.481 153.312C567.256 154.017 567.038 154.632 566.828 155.157L563.318 165.103H573.016ZM584.356 177.5H579.113C578.528 177.5 578.048 177.365 577.673 177.095C577.313 176.81 577.043 176.45 576.863 176.015L574.658 169.782H561.653L559.448 176.015C559.298 176.39 559.036 176.735 558.661 177.05C558.286 177.35 557.813 177.5 557.243 177.5H551.956L564.713 144.852H571.621L584.356 177.5ZM602.172 160.332C601.587 159.657 600.949 159.185 600.259 158.915C599.584 158.645 598.864 158.51 598.099 158.51C597.349 158.51 596.667 158.652 596.052 158.937C595.437 159.222 594.904 159.672 594.454 160.287C594.019 160.887 593.682 161.66 593.442 162.605C593.202 163.55 593.082 164.675 593.082 165.98C593.082 167.27 593.179 168.365 593.374 169.265C593.569 170.165 593.847 170.892 594.207 171.447C594.582 172.002 595.032 172.407 595.557 172.662C596.082 172.902 596.667 173.022 597.312 173.022C598.407 173.022 599.322 172.805 600.057 172.37C600.807 171.935 601.512 171.32 602.172 170.525V160.332ZM608.382 143.952V177.5H604.557C603.762 177.5 603.252 177.14 603.027 176.42L602.509 174.395C602.044 174.905 601.549 175.37 601.024 175.79C600.514 176.21 599.959 176.577 599.359 176.892C598.759 177.192 598.114 177.425 597.424 177.59C596.734 177.755 595.984 177.838 595.174 177.838C593.929 177.838 592.789 177.575 591.754 177.05C590.719 176.525 589.819 175.76 589.054 174.755C588.304 173.735 587.719 172.49 587.299 171.02C586.879 169.55 586.669 167.87 586.669 165.98C586.669 164.255 586.902 162.65 587.367 161.165C587.847 159.68 588.522 158.397 589.392 157.317C590.262 156.237 591.312 155.39 592.542 154.775C593.772 154.16 595.137 153.853 596.637 153.853C597.897 153.853 598.954 154.04 599.809 154.415C600.679 154.79 601.467 155.3 602.172 155.945V143.952H608.382ZM636.7 154.302L627.587 177.5H621.962L612.85 154.302H618.002C618.452 154.302 618.827 154.407 619.127 154.617C619.427 154.827 619.637 155.097 619.757 155.427L623.65 166.902C623.905 167.682 624.13 168.447 624.325 169.197C624.52 169.932 624.692 170.675 624.842 171.425C625.007 170.675 625.187 169.932 625.382 169.197C625.592 168.447 625.832 167.682 626.102 166.902L630.13 155.427C630.235 155.097 630.437 154.827 630.737 154.617C631.037 154.407 631.39 154.302 631.795 154.302H636.7ZM647.531 154.302V177.5H641.321V154.302H647.531ZM648.274 147.71C648.274 148.235 648.169 148.722 647.959 149.172C647.749 149.622 647.464 150.02 647.104 150.365C646.759 150.71 646.346 150.98 645.866 151.175C645.401 151.37 644.899 151.467 644.359 151.467C643.849 151.467 643.361 151.37 642.896 151.175C642.446 150.98 642.049 150.71 641.704 150.365C641.359 150.02 641.081 149.622 640.871 149.172C640.676 148.722 640.579 148.235 640.579 147.71C640.579 147.185 640.676 146.697 640.871 146.247C641.081 145.782 641.359 145.377 641.704 145.032C642.049 144.687 642.446 144.417 642.896 144.222C643.361 144.027 643.849 143.93 644.359 143.93C644.899 143.93 645.401 144.027 645.866 144.222C646.346 144.417 646.759 144.687 647.104 145.032C647.464 145.377 647.749 145.782 647.959 146.247C648.169 146.697 648.274 147.185 648.274 147.71ZM669.053 159.072C668.888 159.327 668.716 159.515 668.536 159.635C668.371 159.74 668.138 159.792 667.838 159.792C667.538 159.792 667.231 159.717 666.916 159.567C666.601 159.417 666.248 159.26 665.858 159.095C665.468 158.915 665.018 158.75 664.508 158.6C664.013 158.45 663.436 158.375 662.776 158.375C661.771 158.375 660.991 158.585 660.436 159.005C659.881 159.41 659.603 159.95 659.603 160.625C659.603 161.09 659.761 161.48 660.076 161.795C660.391 162.11 660.803 162.387 661.313 162.627C661.838 162.852 662.431 163.07 663.091 163.28C663.751 163.475 664.426 163.692 665.116 163.932C665.821 164.172 666.503 164.45 667.163 164.765C667.823 165.08 668.408 165.477 668.918 165.957C669.443 166.422 669.863 166.992 670.178 167.667C670.493 168.327 670.651 169.13 670.651 170.075C670.651 171.2 670.441 172.242 670.021 173.202C669.616 174.147 669.016 174.965 668.221 175.655C667.426 176.345 666.436 176.885 665.251 177.275C664.066 177.665 662.701 177.86 661.156 177.86C660.361 177.86 659.573 177.785 658.793 177.635C658.013 177.5 657.271 177.305 656.566 177.05C655.861 176.78 655.201 176.472 654.586 176.127C653.971 175.782 653.438 175.407 652.988 175.002L654.428 172.685C654.593 172.415 654.796 172.205 655.036 172.055C655.291 171.905 655.613 171.83 656.003 171.83C656.378 171.83 656.723 171.927 657.038 172.122C657.353 172.302 657.706 172.505 658.096 172.73C658.486 172.94 658.943 173.142 659.468 173.337C660.008 173.517 660.676 173.607 661.471 173.607C662.071 173.607 662.588 173.54 663.023 173.405C663.458 173.27 663.811 173.09 664.081 172.865C664.351 172.625 664.546 172.362 664.666 172.077C664.801 171.777 664.868 171.47 664.868 171.155C664.868 170.645 664.703 170.232 664.373 169.917C664.058 169.587 663.638 169.302 663.113 169.062C662.603 168.822 662.011 168.605 661.336 168.41C660.661 168.215 659.971 167.997 659.266 167.757C658.576 167.517 657.893 167.232 657.218 166.902C656.558 166.572 655.966 166.16 655.441 165.665C654.931 165.155 654.511 164.532 654.181 163.797C653.866 163.062 653.708 162.17 653.708 161.12C653.708 160.16 653.896 159.252 654.271 158.397C654.646 157.527 655.208 156.762 655.958 156.102C656.708 155.442 657.638 154.917 658.748 154.527C659.873 154.137 661.171 153.942 662.641 153.942C664.291 153.942 665.791 154.212 667.141 154.752C668.491 155.292 669.601 155.997 670.471 156.867L669.053 159.072ZM691.053 163.167C691.053 162.522 690.963 161.907 690.783 161.322C690.618 160.737 690.348 160.22 689.973 159.77C689.598 159.32 689.126 158.967 688.556 158.712C687.986 158.442 687.303 158.307 686.508 158.307C685.023 158.307 683.861 158.727 683.021 159.567C682.181 160.407 681.633 161.607 681.378 163.167H691.053ZM681.288 166.857C681.483 169.032 682.098 170.622 683.133 171.627C684.183 172.632 685.548 173.135 687.228 173.135C688.083 173.135 688.818 173.037 689.433 172.842C690.063 172.632 690.611 172.407 691.076 172.167C691.556 171.912 691.983 171.687 692.358 171.492C692.748 171.282 693.131 171.177 693.506 171.177C693.986 171.177 694.361 171.357 694.631 171.718L696.431 173.967C695.771 174.732 695.043 175.37 694.248 175.88C693.453 176.375 692.628 176.772 691.773 177.072C690.918 177.357 690.056 177.553 689.186 177.658C688.316 177.778 687.476 177.838 686.666 177.838C685.046 177.838 683.531 177.575 682.121 177.05C680.726 176.51 679.503 175.722 678.453 174.688C677.418 173.637 676.601 172.34 676.001 170.795C675.401 169.25 675.101 167.457 675.101 165.417C675.101 163.842 675.356 162.357 675.866 160.962C676.391 159.567 677.141 158.352 678.116 157.317C679.091 156.282 680.276 155.465 681.671 154.865C683.066 154.25 684.641 153.942 686.396 153.942C687.881 153.942 689.246 154.182 690.491 154.662C691.751 155.127 692.831 155.81 693.731 156.71C694.646 157.61 695.351 158.72 695.846 160.04C696.356 161.345 696.611 162.837 696.611 164.517C696.611 164.982 696.588 165.365 696.543 165.665C696.498 165.965 696.423 166.205 696.318 166.385C696.213 166.565 696.071 166.692 695.891 166.767C695.711 166.827 695.478 166.857 695.193 166.857H681.288ZM708.092 158.127C708.827 156.807 709.674 155.765 710.634 155C711.594 154.235 712.719 153.853 714.009 153.853C715.059 153.853 715.914 154.1 716.574 154.595L716.169 159.185C716.094 159.485 715.974 159.695 715.809 159.815C715.659 159.92 715.449 159.972 715.179 159.972C714.939 159.972 714.594 159.942 714.144 159.882C713.694 159.807 713.274 159.77 712.884 159.77C712.314 159.77 711.804 159.852 711.354 160.017C710.919 160.182 710.529 160.415 710.184 160.715C709.839 161.015 709.524 161.382 709.239 161.817C708.969 162.252 708.714 162.747 708.474 163.302V177.5H702.264V154.302H705.932C706.562 154.302 706.997 154.415 707.237 154.64C707.477 154.865 707.649 155.255 707.754 155.81L708.092 158.127ZM735.405 159.072C735.24 159.327 735.068 159.515 734.888 159.635C734.723 159.74 734.49 159.792 734.19 159.792C733.89 159.792 733.583 159.717 733.268 159.567C732.953 159.417 732.6 159.26 732.21 159.095C731.82 158.915 731.37 158.75 730.86 158.6C730.365 158.45 729.788 158.375 729.128 158.375C728.123 158.375 727.343 158.585 726.788 159.005C726.233 159.41 725.955 159.95 725.955 160.625C725.955 161.09 726.113 161.48 726.428 161.795C726.743 162.11 727.155 162.387 727.665 162.627C728.19 162.852 728.783 163.07 729.443 163.28C730.103 163.475 730.778 163.692 731.468 163.932C732.173 164.172 732.855 164.45 733.515 164.765C734.175 165.08 734.76 165.477 735.27 165.957C735.795 166.422 736.215 166.992 736.53 167.667C736.845 168.327 737.003 169.13 737.003 170.075C737.003 171.2 736.793 172.242 736.373 173.202C735.968 174.147 735.368 174.965 734.573 175.655C733.778 176.345 732.788 176.885 731.603 177.275C730.418 177.665 729.053 177.86 727.508 177.86C726.713 177.86 725.925 177.785 725.145 177.635C724.365 177.5 723.623 177.305 722.918 177.05C722.213 176.78 721.553 176.472 720.938 176.127C720.323 175.782 719.79 175.407 719.34 175.002L720.78 172.685C720.945 172.415 721.148 172.205 721.388 172.055C721.643 171.905 721.965 171.83 722.355 171.83C722.73 171.83 723.075 171.927 723.39 172.122C723.705 172.302 724.058 172.505 724.448 172.73C724.838 172.94 725.295 173.142 725.82 173.337C726.36 173.517 727.028 173.607 727.823 173.607C728.423 173.607 728.94 173.54 729.375 173.405C729.81 173.27 730.163 173.09 730.433 172.865C730.703 172.625 730.898 172.362 731.018 172.077C731.153 171.777 731.22 171.47 731.22 171.155C731.22 170.645 731.055 170.232 730.725 169.917C730.41 169.587 729.99 169.302 729.465 169.062C728.955 168.822 728.363 168.605 727.688 168.41C727.013 168.215 726.323 167.997 725.618 167.757C724.928 167.517 724.245 167.232 723.57 166.902C722.91 166.572 722.318 166.16 721.793 165.665C721.283 165.155 720.863 164.532 720.533 163.797C720.218 163.062 720.06 162.17 720.06 161.12C720.06 160.16 720.248 159.252 720.623 158.397C720.998 157.527 721.56 156.762 722.31 156.102C723.06 155.442 723.99 154.917 725.1 154.527C726.225 154.137 727.523 153.942 728.993 153.942C730.643 153.942 732.143 154.212 733.493 154.752C734.843 155.292 735.953 155.997 736.823 156.867L735.405 159.072ZM766.239 160.31C767.334 160.31 768.279 160.175 769.074 159.905C769.869 159.62 770.521 159.237 771.031 158.757C771.541 158.262 771.916 157.685 772.156 157.025C772.396 156.365 772.516 155.645 772.516 154.865C772.516 153.32 771.999 152.12 770.964 151.265C769.944 150.41 768.384 149.982 766.284 149.982H762.774V160.31H766.239ZM782.056 177.5H775.959C774.819 177.5 773.994 177.065 773.484 176.195L767.274 166.182C767.019 165.792 766.734 165.507 766.419 165.327C766.119 165.147 765.669 165.057 765.069 165.057H762.774V177.5H756.024V144.852H766.284C768.564 144.852 770.514 145.092 772.134 145.572C773.754 146.037 775.081 146.69 776.116 147.53C777.151 148.37 777.909 149.375 778.389 150.545C778.869 151.7 779.109 152.975 779.109 154.37C779.109 155.45 778.951 156.477 778.636 157.452C778.336 158.412 777.894 159.29 777.309 160.085C776.724 160.88 776.004 161.585 775.149 162.2C774.294 162.815 773.319 163.31 772.224 163.685C772.659 163.925 773.064 164.217 773.439 164.562C773.814 164.892 774.151 165.29 774.451 165.755L782.056 177.5ZM799.369 163.167C799.369 162.522 799.279 161.907 799.099 161.322C798.934 160.737 798.664 160.22 798.289 159.77C797.914 159.32 797.442 158.967 796.872 158.712C796.302 158.442 795.619 158.307 794.824 158.307C793.339 158.307 792.177 158.727 791.337 159.567C790.497 160.407 789.949 161.607 789.694 163.167H799.369ZM789.604 166.857C789.799 169.032 790.414 170.622 791.449 171.627C792.499 172.632 793.864 173.135 795.544 173.135C796.399 173.135 797.134 173.037 797.749 172.842C798.379 172.632 798.927 172.407 799.392 172.167C799.872 171.912 800.299 171.687 800.674 171.492C801.064 171.282 801.447 171.177 801.822 171.177C802.302 171.177 802.677 171.357 802.947 171.718L804.747 173.967C804.087 174.732 803.359 175.37 802.564 175.88C801.769 176.375 800.944 176.772 800.089 177.072C799.234 177.357 798.372 177.553 797.502 177.658C796.632 177.778 795.792 177.838 794.982 177.838C793.362 177.838 791.847 177.575 790.437 177.05C789.042 176.51 787.819 175.722 786.769 174.688C785.734 173.637 784.917 172.34 784.317 170.795C783.717 169.25 783.417 167.457 783.417 165.417C783.417 163.842 783.672 162.357 784.182 160.962C784.707 159.567 785.457 158.352 786.432 157.317C787.407 156.282 788.592 155.465 789.987 154.865C791.382 154.25 792.957 153.942 794.712 153.942C796.197 153.942 797.562 154.182 798.807 154.662C800.067 155.127 801.147 155.81 802.047 156.71C802.962 157.61 803.667 158.72 804.162 160.04C804.672 161.345 804.927 162.837 804.927 164.517C804.927 164.982 804.904 165.365 804.859 165.665C804.814 165.965 804.739 166.205 804.634 166.385C804.529 166.565 804.387 166.692 804.207 166.767C804.027 166.827 803.794 166.857 803.509 166.857H789.604ZM822.708 167.802C821.193 167.877 819.933 168.012 818.928 168.207C817.923 168.387 817.12 168.627 816.52 168.927C815.935 169.227 815.515 169.572 815.26 169.962C815.02 170.337 814.9 170.75 814.9 171.2C814.9 172.1 815.148 172.737 815.643 173.112C816.153 173.487 816.858 173.675 817.758 173.675C818.793 173.675 819.685 173.495 820.435 173.135C821.2 172.76 821.958 172.182 822.708 171.402V167.802ZM810.063 157.52C811.428 156.29 812.935 155.375 814.585 154.775C816.235 154.16 818.02 153.853 819.94 153.853C821.32 153.853 822.55 154.077 823.63 154.527C824.725 154.977 825.648 155.607 826.398 156.417C827.163 157.212 827.748 158.165 828.153 159.275C828.558 160.385 828.76 161.6 828.76 162.92V177.5H825.925C825.34 177.5 824.89 177.417 824.575 177.252C824.275 177.087 824.028 176.742 823.833 176.217L823.338 174.732C822.753 175.242 822.183 175.692 821.628 176.082C821.088 176.472 820.525 176.802 819.94 177.072C819.355 177.327 818.725 177.523 818.05 177.658C817.39 177.793 816.648 177.86 815.823 177.86C814.803 177.86 813.873 177.725 813.033 177.455C812.193 177.185 811.465 176.787 810.85 176.262C810.25 175.722 809.785 175.055 809.455 174.26C809.125 173.465 808.96 172.55 808.96 171.515C808.96 170.66 809.178 169.805 809.613 168.95C810.048 168.095 810.79 167.322 811.84 166.632C812.905 165.927 814.315 165.35 816.07 164.9C817.84 164.435 820.053 164.172 822.708 164.112V162.92C822.708 161.465 822.4 160.4 821.785 159.725C821.17 159.035 820.285 158.69 819.13 158.69C818.275 158.69 817.563 158.795 816.993 159.005C816.423 159.2 815.92 159.417 815.485 159.657C815.065 159.882 814.668 160.1 814.293 160.31C813.918 160.505 813.483 160.602 812.988 160.602C812.553 160.602 812.185 160.497 811.885 160.287C811.6 160.062 811.36 159.8 811.165 159.5L810.063 157.52ZM841.663 143.952V177.5H835.453V143.952H841.663ZM856.644 177.86C855.594 177.86 854.664 177.71 853.854 177.41C853.044 177.095 852.361 176.652 851.806 176.082C851.251 175.512 850.831 174.822 850.546 174.012C850.261 173.202 850.119 172.287 850.119 171.267V158.757H847.936C847.606 158.757 847.321 158.652 847.081 158.442C846.856 158.232 846.744 157.917 846.744 157.497V155.067L850.456 154.392L851.716 148.385C851.881 147.71 852.339 147.372 853.089 147.372H856.329V154.437H862.314V158.757H856.329V170.862C856.329 171.507 856.479 172.017 856.779 172.392C857.094 172.767 857.536 172.955 858.106 172.955C858.406 172.955 858.661 172.925 858.871 172.865C859.081 172.79 859.261 172.715 859.411 172.64C859.561 172.55 859.696 172.475 859.816 172.415C859.951 172.34 860.086 172.302 860.221 172.302C860.401 172.302 860.551 172.347 860.671 172.437C860.791 172.512 860.911 172.647 861.031 172.842L862.899 175.812C862.044 176.487 861.076 176.997 859.996 177.342C858.916 177.688 857.799 177.86 856.644 177.86ZM888.95 154.302L876.44 183.733C876.245 184.153 876.005 184.468 875.72 184.678C875.45 184.888 875.015 184.993 874.415 184.993H869.803L874.19 175.632L864.875 154.302H870.32C870.815 154.302 871.198 154.415 871.468 154.64C871.738 154.865 871.933 155.127 872.053 155.427L876.463 166.52C876.628 166.955 876.77 167.397 876.89 167.847C877.025 168.282 877.153 168.717 877.273 169.152C877.543 168.267 877.85 167.382 878.195 166.497L882.29 155.427C882.41 155.097 882.628 154.827 882.943 154.617C883.258 154.407 883.603 154.302 883.978 154.302H888.95Z"
            fill="#C0C6C7" />
    </g>
    <path
        d="M562.528 126.809C558.503 127.464 552.093 125.585 552.093 125.585L552.093 92.078C552.093 92.078 558.429 91.2967 562.528 91.5508C565.302 91.7228 566.757 92.6313 569.524 92.8975C572.336 93.1681 573.932 92.8852 576.757 92.8975C596.263 92.9822 607.173 94.837 626.678 94.6114C643.224 94.4201 801.915 92.4927 859.054 91.7984C871.56 91.6465 884.794 99.5256 884.588 112.031C884.376 124.923 871.159 131.237 858.272 130.831C800.48 129.007 643.138 124.07 626.678 123.871C607.18 123.635 596.256 125.536 576.757 125.585C573.932 125.592 572.324 125.2 569.524 125.585C566.718 125.97 565.324 126.354 562.528 126.809Z"
        fill="#C92129" />
    <path
        d="M494.25 164.5V182.302C494.25 182.302 505.584 184.703 512.968 184.749C520.728 184.798 532.659 182.302 532.659 182.302V164.5C532.659 164.5 525.261 154.933 525.123 147.922C524.962 139.775 527.238 133.632 534.482 128.897C540.21 125.153 552.107 125.448 552.107 125.448V109.093L486 109.093C486 109.093 486.604 116.35 488.218 120.686C489.851 125.073 494.25 131.122 494.25 131.122C494.25 131.122 501.578 140.863 501.543 147.922C501.508 154.902 494.25 164.5 494.25 164.5Z"
        fill="url(#paint0_linear_226_27)" />
    <path
        d="M552.058 124.993C552.058 124.993 551.371 124.981 550.188 125.005C540.36 125.538 529.266 133.262 526.776 144.018C524.955 151.884 532.003 164.045 532.003 164.045V182.402H517.417H503.196H499.306C499.306 182.402 502.232 162.133 501.494 149.136C501.098 142.149 499.306 131.334 499.306 131.334L503.196 134.561V182.402H517.417V164.045V156.368C517.417 148.59 513.85 143.511 517.417 136.452C522.521 126.354 543.735 125.139 550.188 125.005C550.817 124.971 551.442 124.967 552.058 124.993Z"
        fill="url(#paint1_linear_226_27)" />
    <path d="M494.472 182.402H501.401V149.136C500.905 156.309 498.522 159.168 494.472 164.378V182.402Z"
        fill="url(#paint2_linear_226_27)" />
    <path
        d="M494.25 50.6028V31.612C494.25 31.612 505.584 29.0507 512.968 29.0008C520.728 28.9483 532.659 31.612 532.659 31.612V50.6028C532.659 50.6028 525.261 60.8086 525.123 68.2879C524.962 76.9792 527.237 83.5331 534.482 88.5843C540.21 92.5781 552.107 92.2638 552.107 92.2638V109.712L486 109.712C486 109.712 486.164 103.786 487.093 100.146C488.611 94.2008 494.25 86.2104 494.25 86.2104C494.25 86.2104 501.578 75.8193 501.543 68.2879C501.508 60.8426 494.25 50.6028 494.25 50.6028Z"
        fill="url(#paint3_linear_226_27)" />
    <path
        d="M552.058 92.7501C552.058 92.7501 551.371 92.7627 550.188 92.7364C540.36 92.1679 529.266 83.9287 526.776 72.4537C524.955 64.0619 532.003 51.0891 532.003 51.0891V31.5049H517.417L503.196 31.5049H499.306C499.306 31.5049 502.232 53.1282 501.494 66.9939C501.098 74.447 499.306 85.9846 499.306 85.9846L503.196 82.5426V31.5049L517.417 31.5049V51.0891V59.2789C517.417 67.5759 513.849 72.9946 517.417 80.5248C522.521 91.2975 543.735 92.5935 550.188 92.7364C550.817 92.7729 551.442 92.7778 552.058 92.7501Z"
        fill="url(#paint4_linear_226_27)" />
    <path d="M494.472 31.7598H501.401V67.2488C500.905 59.5966 498.522 56.5465 494.472 50.9879V31.7598Z"
        fill="url(#paint5_linear_226_27)" />
    <g filter="url(#filter2_i_226_27)">
        <mask id="mask0_226_27" style="mask-type:luminance" maskUnits="userSpaceOnUse" x="17" y="9" width="437"
            height="298">
            <path fill-rule="evenodd" clip-rule="evenodd"
                d="M284.899 11L237.003 45.5235V94.4331L285.464 152.106V12.8482L352.719 31.4817V156.732L354.467 158.847L354.297 30.1519L284.899 11ZM296.23 36.3912V163.154L303.57 172.973L337.537 138.383L337.547 138.33H337.57L337.604 138.278L338.162 139.03L344.727 146.984V49.0993L334.874 46.6324V138.771L325.493 146.851V44.2067L315.408 41.3384V154.536L306.29 160.282V39.0382L296.235 36.3454L296.23 36.3912ZM375.209 46.5776L357.405 58.7632V162.41L375.72 184.615V48.4179L434.753 64.4422V295.213H428.373V80.7252L419.231 78.0743V295.213H411.366V75.7995L401.412 72.9144V215.76L405.449 220.652H401.412V295.213H393.547V220.268L336.199 150.936L331.868 156.063L385.171 220.268V295.213H156.245V196.625L92.5479 226.114V295.213H73.298V235.029L31.9986 254.148V295.213H18V306H452L451.296 295.213H436.339V63.1038L375.209 46.5776ZM384.335 67.9712V195.053L393.547 206.227V70.6391L384.335 67.9712ZM234.296 92.5428L66.6467 206.084L20.7997 254.148L135.247 198.515L234.296 92.5428ZM235.58 107.488L228.651 114.179L300.422 200.622L308.589 197.144L235.58 107.488ZM205.595 183.879V188.161H251.566V251.506H255.526V183.879H205.595ZM205.65 194.877V219.483H223.678V194.877H205.65ZM229.694 194.935V219.54H247.723V194.935H229.694ZM314.8 208.859V212.213H350.778V261.791H353.879V208.859H314.8ZM314.839 217.465V236.726H328.945V217.465H314.839ZM333.655 217.517V236.77H347.769V217.517H333.655ZM205.627 226.533V251.138H223.654V226.533H205.627ZM229.672 226.533V251.13H247.691V226.533H229.672ZM314.822 242.24V261.492H328.93V242.24H314.822ZM333.64 242.24V261.492H347.747V242.24H333.64Z"
                fill="url(#paint6_linear_226_27)" stroke="#8F5E25" stroke-width="2" />
        </mask>
        <g mask="url(#mask0_226_27)">
            <path fill-rule="evenodd" clip-rule="evenodd"
                d="M284.899 11L237.003 45.5235V94.4331L285.464 152.106V12.8482L352.719 31.4817V156.732L354.467 158.847L354.297 30.1519L284.899 11ZM296.23 36.3912V163.154L303.57 172.973L337.537 138.383L337.547 138.33H337.57L337.604 138.278L338.162 139.03L344.727 146.984V49.0993L334.874 46.6324V138.771L325.493 146.851V44.2067L315.408 41.3384V154.536L306.29 160.282V39.0382L296.235 36.3454L296.23 36.3912ZM375.209 46.5776L357.405 58.7632V162.41L375.72 184.615V48.4179L434.753 64.4422V295.213H428.373V80.7252L419.231 78.0743V295.213H411.366V75.7995L401.412 72.9144V215.76L405.449 220.652H401.412V295.213H393.547V220.268L336.199 150.936L331.868 156.063L385.171 220.268V295.213H156.245V196.625L92.5479 226.114V295.213H73.298V235.029L31.9986 254.148V295.213H18V306H452L451.296 295.213H436.339V63.1038L375.209 46.5776ZM384.335 67.9712V195.053L393.547 206.227V70.6391L384.335 67.9712ZM234.296 92.5428L66.6467 206.084L20.7997 254.148L135.247 198.515L234.296 92.5428ZM235.58 107.488L228.651 114.179L300.422 200.622L308.589 197.144L235.58 107.488ZM205.595 183.879V188.161H251.566V251.506H255.526V183.879H205.595ZM205.65 194.877V219.483H223.678V194.877H205.65ZM229.694 194.935V219.54H247.723V194.935H229.694ZM314.8 208.859V212.213H350.778V261.791H353.879V208.859H314.8ZM314.839 217.465V236.726H328.945V217.465H314.839ZM333.655 217.517V236.77H347.769V217.517H333.655ZM205.627 226.533V251.138H223.654V226.533H205.627ZM229.672 226.533V251.13H247.691V226.533H229.672ZM314.822 242.24V261.492H328.93V242.24H314.822ZM333.64 242.24V261.492H347.747V242.24H333.64Z"
                fill="url(#paint7_linear_226_27)" stroke="#C0C6C7" stroke-width="2" />
        </g>
    </g>
    <path
        d="M851.511 232.69C852.27 231.77 853.73 231.77 854.489 232.69L860.198 239.616C860.671 240.192 861.465 240.437 862.203 240.237L871.09 237.835C872.268 237.516 873.45 238.335 873.496 239.504L873.851 248.308C873.876 249.04 874.367 249.683 875.088 249.935L883.757 252.974C884.909 253.378 885.362 254.703 884.679 255.675L879.538 262.994C879.107 263.603 879.107 264.397 879.538 265.006L884.679 272.325C885.362 273.297 884.909 274.622 883.757 275.026L875.088 278.065C874.367 278.317 873.876 278.96 873.851 279.692L873.496 288.496C873.45 289.665 872.268 290.484 871.09 290.165L862.203 287.763C861.465 287.563 860.671 287.808 860.198 288.384L854.489 295.31C853.73 296.23 852.27 296.23 851.511 295.31L845.802 288.384C845.329 287.808 844.535 287.563 843.797 287.763L834.91 290.165C833.732 290.484 832.55 289.665 832.504 288.496L832.149 279.692C832.124 278.96 831.633 278.317 830.912 278.065L822.243 275.026C821.091 274.622 820.638 273.297 821.321 272.325L826.462 265.006C826.893 264.397 826.893 263.603 826.462 262.994L821.321 255.675C820.638 254.703 821.091 253.378 822.243 252.974L830.912 249.935C831.633 249.683 832.124 249.04 832.149 248.308L832.504 239.504C832.55 238.335 833.732 237.516 834.91 237.835L843.797 240.237C844.535 240.437 845.329 240.192 845.802 239.616L851.511 232.69Z"
        fill="#C92129" stroke="#C0C6C7" stroke-width="6" />
    <path d="M841.8 264.712L849.267 271.112L864.2 258.312" stroke="#C0C6C7" stroke-width="6" stroke-linecap="round"
        stroke-linejoin="round" />
    <g filter="url(#filter3_i_226_27)">
        <path
            d="M524.73 275.576C525.263 275.576 525.711 275.768 526.074 276.152L529.882 280.216C528.005 282.605 525.669 284.419 522.874 285.656C520.101 286.893 516.794 287.512 512.954 287.512C509.477 287.512 506.351 286.925 503.578 285.752C500.805 284.557 498.447 282.904 496.506 280.792C494.565 278.68 493.071 276.173 492.026 273.272C490.981 270.371 490.458 267.203 490.458 263.768C490.458 261.464 490.703 259.277 491.194 257.208C491.706 255.117 492.442 253.197 493.402 251.448C494.362 249.699 495.514 248.12 496.858 246.712C498.223 245.304 499.759 244.109 501.466 243.128C503.173 242.125 505.029 241.368 507.034 240.856C509.061 240.323 511.215 240.056 513.498 240.056C515.205 240.056 516.815 240.205 518.33 240.504C519.866 240.803 521.295 241.219 522.618 241.752C523.941 242.285 525.157 242.936 526.266 243.704C527.397 244.451 528.41 245.272 529.306 246.168L526.074 250.584C525.882 250.861 525.637 251.107 525.338 251.32C525.039 251.533 524.634 251.64 524.122 251.64C523.61 251.64 523.087 251.459 522.554 251.096C522.042 250.733 521.402 250.328 520.634 249.88C519.887 249.432 518.938 249.027 517.786 248.664C516.655 248.301 515.215 248.12 513.466 248.12C511.525 248.12 509.743 248.472 508.122 249.176C506.501 249.88 505.103 250.904 503.93 252.248C502.778 253.571 501.882 255.203 501.242 257.144C500.602 259.085 500.282 261.293 500.282 263.768C500.282 266.264 500.623 268.493 501.306 270.456C502.01 272.397 502.959 274.04 504.154 275.384C505.37 276.728 506.778 277.752 508.378 278.456C509.999 279.139 511.727 279.48 513.562 279.48C514.65 279.48 515.631 279.427 516.506 279.32C517.402 279.213 518.223 279.032 518.97 278.776C519.738 278.52 520.453 278.189 521.114 277.784C521.797 277.379 522.479 276.867 523.162 276.248C523.397 276.056 523.642 275.896 523.898 275.768C524.154 275.64 524.431 275.576 524.73 275.576ZM544.966 248.088V260.024H560.454V267.288H544.966V279.48H564.87V287H535.302V240.568H564.87V248.088H544.966ZM586.58 262.552C588.137 262.552 589.481 262.36 590.612 261.976C591.742 261.571 592.67 261.027 593.396 260.344C594.121 259.64 594.654 258.819 594.996 257.88C595.337 256.941 595.508 255.917 595.508 254.808C595.508 252.611 594.772 250.904 593.3 249.688C591.849 248.472 589.63 247.864 586.644 247.864H581.652V262.552H586.58ZM609.076 287H600.404C598.782 287 597.609 286.381 596.884 285.144L588.052 270.904C587.689 270.349 587.284 269.944 586.836 269.688C586.409 269.432 585.769 269.304 584.916 269.304H581.652V287H572.052V240.568H586.644C589.886 240.568 592.66 240.909 594.964 241.592C597.268 242.253 599.156 243.181 600.628 244.376C602.1 245.571 603.177 247 603.86 248.664C604.542 250.307 604.884 252.12 604.884 254.104C604.884 255.64 604.66 257.101 604.212 258.488C603.785 259.853 603.156 261.101 602.324 262.232C601.492 263.363 600.468 264.365 599.252 265.24C598.036 266.115 596.649 266.819 595.092 267.352C595.71 267.693 596.286 268.109 596.82 268.6C597.353 269.069 597.833 269.635 598.26 270.296L609.076 287ZM645.416 248.312H631.848V287H622.216V248.312H608.648V240.568H645.416V248.312ZM660.841 287H651.177V240.568H660.841V287ZM680.216 248.088V260.92H696.92V268.472H680.216V287H670.552V240.568H700.12V248.088H680.216ZM716.466 287H706.802V240.568H716.466V287ZM735.841 248.088V260.024H751.329V267.288H735.841V279.48H755.745V287H726.177V240.568H755.745V248.088H735.841ZM804.559 263.768C804.559 267.16 803.983 270.285 802.831 273.144C801.7 275.981 800.089 278.424 797.999 280.472C795.929 282.52 793.433 284.12 790.511 285.272C787.588 286.424 784.345 287 780.783 287H762.927V240.568H780.783C784.345 240.568 787.588 241.144 790.511 242.296C793.433 243.448 795.929 245.059 797.999 247.128C800.089 249.176 801.7 251.619 802.831 254.456C803.983 257.293 804.559 260.397 804.559 263.768ZM794.703 263.768C794.703 261.336 794.383 259.149 793.743 257.208C793.103 255.267 792.185 253.624 790.991 252.28C789.796 250.936 788.335 249.901 786.607 249.176C784.9 248.451 782.959 248.088 780.783 248.088H772.591V279.48H780.783C782.959 279.48 784.9 279.128 786.607 278.424C788.335 277.699 789.796 276.664 790.991 275.32C792.185 273.955 793.103 272.301 793.743 270.36C794.383 268.419 794.703 266.221 794.703 263.768Z"
            fill="#C0C6C7" />
    </g>
    <defs>
        <filter id="filter0_i_226_27" x="554.076" y="29.9873" width="333.842" height="57.1123"
            filterUnits="userSpaceOnUse" color-interpolation-filters="sRGB">
            <feFlood flood-opacity="0" result="BackgroundImageFix" />
            <feBlend mode="normal" in="SourceGraphic" in2="BackgroundImageFix" result="shape" />
            <feColorMatrix in="SourceAlpha" type="matrix" values="0 0 0 0 0 0 0 0 0 0 0 0 0 0 0 0 0 0 127 0"
                result="hardAlpha" />
            <feOffset dx="1.5" dy="1.5" />
            <feGaussianBlur stdDeviation="1.5" />
            <feComposite in2="hardAlpha" operator="arithmetic" k2="-1" k3="1" />
            <feColorMatrix type="matrix" values="0 0 0 0 0 0 0 0 0 0 0 0 0 0 0 0 0 0 0.4 0" />
            <feBlend mode="normal" in2="shape" result="effect1_innerShadow_226_27" />
        </filter>
        <filter id="filter1_i_226_27" x="551.956" y="143.93" width="337.994" height="42.0625"
            filterUnits="userSpaceOnUse" color-interpolation-filters="sRGB">
            <feFlood flood-opacity="0" result="BackgroundImageFix" />
            <feBlend mode="normal" in="SourceGraphic" in2="BackgroundImageFix" result="shape" />
            <feColorMatrix in="SourceAlpha" type="matrix" values="0 0 0 0 0 0 0 0 0 0 0 0 0 0 0 0 0 0 127 0"
                result="hardAlpha" />
            <feOffset dx="1" dy="1" />
            <feGaussianBlur stdDeviation="1" />
            <feComposite in2="hardAlpha" operator="arithmetic" k2="-1" k3="1" />
            <feColorMatrix type="matrix" values="0 0 0 0 0 0 0 0 0 0 0 0 0 0 0 0 0 0 0.4 0" />
            <feBlend mode="normal" in2="shape" result="effect1_innerShadow_226_27" />
        </filter>
        <filter id="filter2_i_226_27" x="17" y="9.9082" width="440.067" height="301.092" filterUnits="userSpaceOnUse"
            color-interpolation-filters="sRGB">
            <feFlood flood-opacity="0" result="BackgroundImageFix" />
            <feBlend mode="normal" in="SourceGraphic" in2="BackgroundImageFix" result="shape" />
            <feColorMatrix in="SourceAlpha" type="matrix" values="0 0 0 0 0 0 0 0 0 0 0 0 0 0 0 0 0 0 127 0"
                result="hardAlpha" />
            <feOffset dx="4" dy="4" />
            <feGaussianBlur stdDeviation="2" />
            <feComposite in2="hardAlpha" operator="arithmetic" k2="-1" k3="1" />
            <feColorMatrix type="matrix" values="0 0 0 0 0 0 0 0 0 0 0 0 0 0 0 0 0 0 0.25 0" />
            <feBlend mode="normal" in2="shape" result="effect1_innerShadow_226_27" />
        </filter>
        <filter id="filter3_i_226_27" x="490.458" y="240.056" width="315.6" height="48.9561"
            filterUnits="userSpaceOnUse" color-interpolation-filters="sRGB">
            <feFlood flood-opacity="0" result="BackgroundImageFix" />
            <feBlend mode="normal" in="SourceGraphic" in2="BackgroundImageFix" result="shape" />
            <feColorMatrix in="SourceAlpha" type="matrix" values="0 0 0 0 0 0 0 0 0 0 0 0 0 0 0 0 0 0 127 0"
                result="hardAlpha" />
            <feOffset dx="1.5" dy="1.5" />
            <feGaussianBlur stdDeviation="1.5" />
            <feComposite in2="hardAlpha" operator="arithmetic" k2="-1" k3="1" />
            <feColorMatrix type="matrix" values="0 0 0 0 0 0 0 0 0 0 0 0 0 0 0 0 0 0 0.4 0" />
            <feBlend mode="normal" in2="shape" result="effect1_innerShadow_226_27" />
        </filter>
        <linearGradient id="paint0_linear_226_27" x1="499.182" y1="134.878" x2="547.208" y2="107.307"
            gradientUnits="userSpaceOnUse">
            <stop stop-color="#A8B0B2" />
            <stop offset="0.489583" stop-color="#8A8F91" />
            <stop offset="1" stop-color="#ADB5B7" />
        </linearGradient>
        <linearGradient id="paint1_linear_226_27" x1="499.306" y1="153.689" x2="552.058" y2="153.689"
            gradientUnits="userSpaceOnUse">
            <stop stop-color="#A8B0B2" />
            <stop offset="1" stop-color="#7B7B7B" />
        </linearGradient>
        <linearGradient id="paint2_linear_226_27" x1="476.118" y1="72.9233" x2="524.773" y2="86.4415"
            gradientUnits="userSpaceOnUse">
            <stop stop-color="#C7C7C7" />
            <stop offset="1" stop-color="#CED3D4" />
        </linearGradient>
        <linearGradient id="paint3_linear_226_27" x1="499.182" y1="82.2041" x2="548.697" y2="108.85"
            gradientUnits="userSpaceOnUse">
            <stop stop-color="#A8B0B2" />
            <stop offset="0.489583" stop-color="#8A8F91" />
            <stop offset="1" stop-color="#ADB5B7" />
        </linearGradient>
        <linearGradient id="paint4_linear_226_27" x1="499.306" y1="62.1364" x2="552.058" y2="62.1364"
            gradientUnits="userSpaceOnUse">
            <stop stop-color="#A8B0B2" />
            <stop offset="1" stop-color="#7B7B7B" />
        </linearGradient>
        <linearGradient id="paint5_linear_226_27" x1="476.118" y1="148.553" x2="525.2" y2="135.77"
            gradientUnits="userSpaceOnUse">
            <stop stop-color="#C7C7C7" />
            <stop offset="1" stop-color="#CED3D4" />
        </linearGradient>
        <linearGradient id="paint6_linear_226_27" x1="18" y1="11" x2="452" y2="11" gradientUnits="userSpaceOnUse">
            <stop stop-color="#8F5E25" />
            <stop offset="0.0001" stop-color="#FBB040" />
            <stop offset="1" stop-color="#FAD303" />
        </linearGradient>
        <linearGradient id="paint7_linear_226_27" x1="18" y1="11" x2="452" y2="11" gradientUnits="userSpaceOnUse">
            <stop stop-color="#DAD0D0" />
            <stop offset="0.530208" stop-color="white" />
            <stop offset="1" stop-color="#DCE3E5" />
        </linearGradient>
    </defs>
</svg>