<svg width="1133" height="835" viewBox="0 0 1133 835" fill="none" xmlns="http://www.w3.org/2000/svg">
<path d="M71.2573 375.135L43.2684 408.083H86.5H169.053V726H113H93V746V795V815H113H1087H1107V795V746V726H1087H1029.68V408.083H1036.84H1084.66L1051.08 374.038L851.738 171.955L837.452 157.472L823.214 172.003L640.581 358.403L378.766 49.0789L363.528 31.0755L348.257 49.0517L71.2573 375.135Z" stroke="#FAD303" stroke-width="50"/>
<rect x="309" y="479.039" width="82.6446" height="82.6446" fill="#FAD303"/>
<rect x="309" y="573.804" width="82.6446" height="82.6446" fill="#FAD303"/>
<rect x="402.664" y="573.804" width="82.6446" height="82.6446" fill="#FAD303"/>
<rect x="402.664" y="479.039" width="82.6446" height="82.6446" fill="#FAD303"/>
<path d="M310.653 457H509V657" stroke="#FAD303" stroke-width="16"/>
<rect x="770" y="513.637" width="66.1158" height="66.1157" fill="#FAD303"/>
<rect x="770" y="589.446" width="66.1158" height="66.1157" fill="#FAD303"/>
<rect x="844.931" y="589.446" width="66.1158" height="66.1157" fill="#FAD303"/>
<rect x="844.931" y="513.637" width="66.1158" height="66.1157" fill="#FAD303"/>
<path d="M771.323 496H930.001V656" stroke="#FAD303" stroke-width="12"/>
</svg>
